<svg xmlns="http://www.w3.org/2000/svg" viewBox="0 0 800 494"><g><g><path d="M0 0 H494 V494 H0 Z" fill="rgb(228,122,44)" /></g><g transform="matrix(1 0 0 1 494 0)"><path d="M0 0 H306 V494 H0 Z" fill="rgb(186,204,192)" /></g><g transform="matrix(1 0 0 1 612 306)"><path d="M0 0 H188 V188 H0 Z" fill="rgb(108,149,143)" /></g><g transform="matrix(1 0 0 1 494 376)"><path d="M0 0 H118 V118 H0 Z" fill="rgb(64,54,63)" /></g><g transform="matrix(1 0 0 1 494 306)"><path d="M0 0 H71 V70 H0 Z" fill="rgb(215,162,108)" /></g><g transform="matrix(1 0 0 1 565 306)"><path d="M0 0 H47 V70 H0 Z" fill="rgb(174,73,53)" /></g><g transform="matrix(1 0 0 1 588 353)"><path d="M0 0 H24 V23 H0 Z" fill="rgb(247,230,212)" /></g><g transform="matrix(1 0 0 1 565 353)"><path d="M0 0 H23 V23 H0 Z" fill="rgb(47,62,70)" /></g></g></svg>