<svg xmlns="http://www.w3.org/2000/svg" viewBox="0 0 1200 600"><g><path d="M0 0 H1200 V600 H0 Z" fill="rgb(255,255,255)" /><g transform="matrix(1 0 0 1 80 80)"><g><g><g><path fill="rgb(47,54,61)" d="M6.0781 70.8 L6.0781 28.8 L12.2344 28.8 L12.4844 37.5188 L12.9531 37.5188 Q14.875 32.8781 18.875 30.5188 Q22.875 28.1594 27.5938 28.1594 Q30.875 28.1594 33.6406 29.1281 Q36.4063 30.0813 38.4375 32.2375 Q40.4844 34.3938 41.5938 37.8 Q42.7188 41.2063 42.7188 46.0813 L42.7188 70.8 L36.2344 70.8 L36.2344 47.3625 Q36.2344 42.6438 35.0781 39.6125 Q33.9219 36.5656 31.5625 35.0813 Q29.2031 33.5969 25.5156 33.5969 Q21.5938 33.5969 18.6406 35.5188 Q15.6875 37.4406 14.0781 40.6906 Q12.4844 43.925 12.4844 48.0813 L12.4844 70.8 Z" /><path fill="rgb(47,54,61)" d="M69.2031 71.5188 Q65.3594 71.5188 62.1094 70.0031 Q58.875 68.4875 56.5469 65.6906 Q54.2344 62.8781 53 58.8781 Q51.7656 54.8781 51.7656 49.7531 Q51.7656 42.9563 53.9531 38.1281 Q56.1563 33.2844 60.0781 30.6906 Q64 28.0813 69.2031 28.0813 Q72.7969 28.0813 75.7969 29.2375 Q78.7969 30.3938 80.875 32.4875 Q82.9531 34.5656 83.9219 37.4406 L84.3125 37.4406 L84.5625 28.8 L90.7188 28.8 L90.7188 70.8 L84.5625 70.8 L84.3125 62.0813 L83.9219 62.0813 Q82.4063 66.3156 78.5156 68.925 Q74.6406 71.5188 69.2031 71.5188 ZM71.2813 66.0813 Q75.4375 66.0813 78.3125 64.1281 Q81.2031 62.1594 82.7188 59.05 Q84.2344 55.925 84.2344 52.3156 L84.2344 47.2063 Q84.2344 43.5188 82.6719 40.3625 Q81.125 37.2063 78.2813 35.3313 Q75.4375 33.4406 71.3594 33.4406 Q67.3594 33.4406 64.4375 35.4094 Q61.5156 37.3625 59.9531 41.0031 Q58.4063 44.6438 58.4063 49.7531 Q58.4063 54.8 59.9531 58.4875 Q61.5156 62.1594 64.3906 64.1281 Q67.2813 66.0813 71.2813 66.0813 Z" /><path fill="rgb(47,54,61)" d="M117.4063 71.5969 Q113.4844 71.5969 110.3594 70.6438 Q107.2344 69.675 105 67.9563 Q102.7656 66.2375 101.5625 63.8 Q100.3594 61.3625 100.2813 58.3938 L106.6875 58.3938 Q106.8438 61.2063 108.2344 63.0813 Q109.6406 64.9563 112.0781 65.8469 Q114.5156 66.7219 117.5625 66.7219 Q122.4375 66.7219 125.0313 64.8781 Q127.6406 63.0344 127.6406 59.675 Q127.6406 57.1125 126.5156 55.7219 Q125.4063 54.3156 123.0781 53.5188 Q120.7656 52.7219 117 52.1594 Q111.7969 51.4406 108.3594 50.1594 Q104.9219 48.8781 103.1563 46.5188 Q101.4063 44.1594 101.4063 40.3156 Q101.4063 36.6438 103.4063 33.8781 Q105.4063 31.1125 109 29.5656 Q112.5938 28.0031 117.4063 28.0031 Q122.2813 28.0031 125.7969 29.5656 Q129.3125 31.1125 131.3125 33.9563 Q133.3125 36.8 133.4063 40.7219 L127.0781 40.7219 Q126.9219 37.925 125.6719 36.2063 Q124.4375 34.4875 122.3125 33.7219 Q120.2031 32.9563 117.3125 32.9563 Q112.8438 32.9563 110.3594 34.8 Q107.875 36.6438 107.875 39.675 Q107.875 42.0031 109.0781 43.4094 Q110.2813 44.8 112.7969 45.5656 Q115.3125 46.3156 119.1563 46.8781 Q123.875 47.5188 127.2813 48.8 Q130.6875 50.0813 132.4375 52.5188 Q134.2031 54.9563 134.2031 59.1125 Q134.2031 63.1125 132.125 65.8781 Q130.0469 68.6438 126.2344 70.1281 Q122.4375 71.5969 117.4063 71.5969 Z" /><path fill="rgb(47,54,61)" d="M159.2031 71.5188 Q155.3594 71.5188 152.1094 70.0031 Q148.875 68.4875 146.5469 65.6906 Q144.2344 62.8781 143 58.8781 Q141.7656 54.8781 141.7656 49.7531 Q141.7656 42.9563 143.9531 38.1281 Q146.1563 33.2844 150.0781 30.6906 Q154 28.0813 159.2031 28.0813 Q162.7969 28.0813 165.7969 29.2375 Q168.7969 30.3938 170.875 32.4875 Q172.9531 34.5656 173.9219 37.4406 L174.3125 37.4406 L174.5625 28.8 L180.7188 28.8 L180.7188 70.8 L174.5625 70.8 L174.3125 62.0813 L173.9219 62.0813 Q172.4063 66.3156 168.5156 68.925 Q164.6406 71.5188 159.2031 71.5188 ZM161.2813 66.0813 Q165.4375 66.0813 168.3125 64.1281 Q171.2031 62.1594 172.7188 59.05 Q174.2344 55.925 174.2344 52.3156 L174.2344 47.2063 Q174.2344 43.5188 172.6719 40.3625 Q171.125 37.2063 168.2813 35.3313 Q165.4375 33.4406 161.3594 33.4406 Q157.3594 33.4406 154.4375 35.4094 Q151.5156 37.3625 149.9531 41.0031 Q148.4063 44.6438 148.4063 49.7531 Q148.4063 54.8 149.9531 58.4875 Q151.5156 62.1594 154.3906 64.1281 Q157.2813 66.0813 161.2813 66.0813 Z" /><path fill="rgb(47,54,61)" d="M185.9531 77.2844 L211.2344 12.4875 L217.4844 12.4875 L192.3594 77.2844 Z" /><path fill="rgb(47,54,61)" d="M225.9219 70.8 L225.9219 37.2844 L219.2031 37.2844 L219.2031 27.925 L225.9219 27.925 L225.9219 23.3625 Q225.9219 18.0813 229.2031 15.2844 Q232.4844 12.4875 238.4063 12.4875 L246.6406 12.4875 L246.6406 20.4875 L241.4375 20.4875 Q239.5156 20.4875 238.5469 21.3313 Q237.5938 22.1594 237.5938 24.1594 L237.5938 27.925 L246 27.925 L246 37.2844 L237.5938 37.2844 L237.5938 70.8 Z" /><path fill="rgb(47,54,61)" d="M252.0469 84.1594 L252.0469 27.925 L263.2344 27.925 L263.6406 35.2063 L264.2813 35.2063 Q265.6406 31.5969 269.2031 29.3625 Q272.7656 27.1125 277.5625 27.1125 Q281.5625 27.1125 284.75 28.6438 Q287.9531 30.1594 290.2656 33.0031 Q292.5938 35.8469 293.8281 39.9719 Q295.0781 44.0813 295.0781 49.3625 Q295.0781 56.3156 292.875 61.3156 Q290.6875 66.3156 286.7656 68.9563 Q282.8438 71.5969 277.5625 71.5969 Q274.3594 71.5969 271.6719 70.5969 Q269 69.5969 267.0781 67.7688 Q265.1563 65.925 264.2813 63.5969 L263.7969 63.5969 L263.7969 84.1594 ZM273.0781 62.0813 Q276.3594 62.0813 278.5938 60.5188 Q280.8438 58.9563 281.9219 56.0813 Q283 53.2063 283 49.3625 Q283 45.4406 281.9531 42.5969 Q280.9219 39.7531 278.75 38.2063 Q276.5938 36.6438 273.3125 36.6438 Q270.2031 36.6438 268.0313 38.05 Q265.875 39.4406 264.8281 41.8469 Q263.7969 44.2375 263.7969 47.2844 L263.7969 51.5188 Q263.7969 54.6438 264.9219 57.0031 Q266.0469 59.3625 268.125 60.7219 Q270.2031 62.0813 273.0781 62.0813 Z" /><path fill="rgb(47,54,61)" d="M303.0469 70.8 L303.0469 27.925 L313.6875 27.925 L314.1563 34.8 L314.5625 34.8 Q316 30.6438 319.1563 29.0031 Q322.3125 27.3625 326.4063 27.3625 Q327.125 27.3625 327.6719 27.3625 Q328.2344 27.3625 328.7969 27.3625 L328.7969 38.3938 Q328.4063 38.3938 327.6719 38.3938 Q326.9531 38.3938 326.1563 38.3938 Q322.2344 38.3938 319.75 39.5656 Q317.2813 40.7219 316.0781 42.9719 Q314.875 45.2063 314.7969 48.3938 L314.7969 70.8 Z" /><path fill="rgb(47,54,61)" d="M336.0469 70.8 L336.0469 27.925 L347.7969 27.925 L347.7969 70.8 ZM341.875 22.675 Q339.1563 22.675 337.3906 21.2375 Q335.6406 19.8 335.6406 17.2375 Q335.6406 14.5969 337.3906 13.1594 Q339.1563 11.7219 341.875 11.7219 Q344.6719 11.7219 346.4375 13.1594 Q348.2031 14.5969 348.2031 17.2375 Q348.2031 19.8 346.4375 21.2375 Q344.6719 22.675 341.875 22.675 Z" /><path fill="rgb(47,54,61)" d="M358.0469 70.8 L358.0469 27.925 L369.4063 27.925 L369.7969 35.675 L370.2813 35.675 Q371.9531 31.3625 375.5156 29.2375 Q379.0781 27.1125 383.4063 27.1125 Q387.875 27.1125 391.5938 29.2844 Q395.3125 31.4406 397 36.7219 L397.6406 36.7219 Q399.2344 31.925 403.0781 29.5188 Q406.9219 27.1125 411.7969 27.1125 Q415.9531 27.1125 419.2656 28.8781 Q422.5938 30.6438 424.5156 34.5188 Q426.4375 38.3938 426.4375 44.8781 L426.4375 70.8 L414.6875 70.8 L414.6875 47.4406 Q414.6875 43.8469 413.9219 41.4406 Q413.1563 39.0344 411.4375 37.8781 Q409.7188 36.7219 407.0781 36.7219 Q404.2031 36.7219 402.2031 38.1594 Q400.2031 39.5969 399.1563 41.925 Q398.125 44.2375 398.125 46.9563 L398.125 70.8 L386.3594 70.8 L386.3594 47.4406 Q386.3594 43.8469 385.5625 41.4406 Q384.7656 39.0344 383.0781 37.8781 Q381.4063 36.7219 378.7656 36.7219 Q375.875 36.7219 373.875 38.1594 Q371.875 39.5969 370.8281 41.925 Q369.7969 44.2375 369.7969 46.9563 L369.7969 70.8 Z" /><path fill="rgb(47,54,61)" d="M454.5156 71.5969 Q447.7969 71.5969 443.1094 68.8781 Q438.4375 66.1594 435.9531 61.2063 Q433.4844 56.2375 433.4844 49.675 Q433.4844 42.7219 436 37.6906 Q438.5156 32.6438 443.1094 29.8781 Q447.7188 27.1125 454.0469 27.1125 Q461.4063 27.1125 466.0781 30.3156 Q470.7656 33.5188 472.8438 39.1281 Q474.9219 44.7219 474.2031 51.925 L445 51.925 Q445 55.4406 446.1563 57.8781 Q447.3125 60.3156 449.4688 61.5188 Q451.6406 62.7219 454.5156 62.7219 Q457.875 62.7219 459.9531 61.3625 Q462.0469 60.0031 462.7656 57.7531 L473.875 57.7531 Q473.2344 62.0031 470.5938 65.0813 Q467.9531 68.1594 463.8281 69.8781 Q459.7188 71.5969 454.5156 71.5969 ZM445 45.7531 L443.9531 44.6438 L463.7969 44.6438 L462.6875 45.7531 Q462.8438 42.3938 461.7656 40.2844 Q460.6875 38.1594 458.7188 37.05 Q456.7656 35.925 454.0469 35.925 Q451.3125 35.925 449.2656 37.0813 Q447.2344 38.2375 446.1563 40.4406 Q445.0781 42.6438 445 45.7531 Z" /></g></g><g transform="matrix(1 0 0 1 0 128)"><path fill="rgb(110,118,129)" d="M2.6875 35.32 L2.6875 11.9919 L18.6563 11.9919 L18.6563 14.3981 L4.8594 14.3981 L5.4063 13.8513 L5.4063 35.32 ZM4.5156 24.945 L4.5156 22.6794 L17.375 22.6794 L17.375 24.945 Z" /><path fill="rgb(110,118,129)" d="M21.3438 20.3044 L20.7969 15.5075 L20.7969 11.9919 L23.0938 11.9919 L23.0938 15.5075 L22.5469 20.3044 Z" /><path fill="rgb(110,118,129)" d="M34.7344 28.0231 L34.7344 25.82 L43.9063 25.82 L43.9063 28.0231 Z" /><path fill="rgb(110,118,129)" d="M52.7969 35.32 L61.3438 11.9919 L65.1875 11.9919 L73.7031 35.32 L70.8438 35.32 L64.3906 17.0856 L63.3594 14.1325 L63.1719 14.1325 L62.1719 17.0856 L55.6875 35.32 ZM57.4063 29.5856 L57.8281 27.3513 L68.6719 27.3513 L69.0938 29.5856 Z" /><path fill="rgb(110,118,129)" d="M85.2344 35.32 L85.2344 20.6013 L82.4219 20.6013 L82.4219 18.5231 L85.2344 18.5231 L85.2344 15.7419 Q85.2344 13.8513 86.2813 12.9294 Q87.3438 11.9919 89.2344 11.9919 L91.5313 11.9919 L91.5313 14.07 L89.7813 14.07 Q88.625 14.07 88.2031 14.6013 Q87.7969 15.1325 87.7969 16.0544 L87.7969 18.5231 L94.5156 18.5231 L94.5156 11.9919 L97.0781 11.9919 L97.0781 35.32 L94.5156 35.32 L94.5156 20.6013 L87.7969 20.6013 L87.7969 35.32 Z" /><path fill="rgb(110,118,129)" d="M102.4375 35.32 L102.4375 18.5231 L105.0313 18.5231 L105.0313 35.32 ZM103.7656 15.8669 Q103.0313 15.8669 102.5781 15.4763 Q102.1406 15.07 102.1406 14.3981 Q102.1406 13.7263 102.5781 13.3513 Q103.0313 12.9606 103.7656 12.9606 Q104.4688 12.9606 104.9219 13.3513 Q105.375 13.7263 105.375 14.3981 Q105.375 15.07 104.9219 15.4763 Q104.4688 15.8669 103.7656 15.8669 Z" /><path fill="rgb(110,118,129)" d="M115.8281 40.9763 Q113.9375 40.9763 112.5 40.4138 Q111.0625 39.8669 110.1719 38.8044 Q109.2969 37.7575 109.1094 36.3044 L111.6406 36.3044 Q111.7656 37.1481 112.3438 37.7575 Q112.9219 38.3669 113.8125 38.6794 Q114.7188 39.0075 115.8906 39.0075 Q117.5938 39.0075 118.7188 38.5075 Q119.8594 38.0075 120.3906 36.9919 Q120.9219 35.9919 120.9219 34.3981 L120.9219 31.195 L120.7969 31.195 Q120.25 32.7888 118.75 33.7731 Q117.2656 34.7419 115.1563 34.7419 Q113.6875 34.7419 112.4531 34.1794 Q111.2188 33.6169 110.3281 32.5544 Q109.4375 31.4763 108.9531 29.945 Q108.4688 28.4138 108.4688 26.4919 Q108.4688 23.8981 109.3125 22.0388 Q110.1719 20.1794 111.6719 19.195 Q113.1719 18.195 115.1563 18.195 Q117.2031 18.195 118.7031 19.1638 Q120.2188 20.1169 120.7969 21.7575 L120.9531 21.7575 L121.0469 18.5231 L123.5156 18.5231 L123.5156 34.0075 Q123.5156 36.445 122.5781 37.9919 Q121.6563 39.5388 119.9375 40.2575 Q118.2344 40.9763 115.8281 40.9763 ZM116.0313 32.57 Q117.5938 32.57 118.6875 31.8669 Q119.7969 31.1638 120.3594 29.9763 Q120.9219 28.7888 120.9219 27.4138 L120.9219 25.4919 Q120.9219 24.1169 120.3438 22.9606 Q119.7656 21.7888 118.6719 21.0856 Q117.5938 20.3825 116.0938 20.3825 Q114.5469 20.3825 113.4219 21.1013 Q112.3125 21.82 111.7188 23.195 Q111.125 24.57 111.125 26.4919 Q111.125 28.3825 111.7188 29.7575 Q112.3125 31.1325 113.4063 31.8513 Q114.5156 32.57 116.0313 32.57 Z" /><path fill="rgb(110,118,129)" d="M128.4375 35.32 L128.4375 11.9919 L130.9844 11.9919 L130.9844 22.0075 L131.1875 22.0075 Q131.9531 20.1481 133.5469 19.2106 Q135.1563 18.2575 137.0469 18.2575 Q138.3594 18.2575 139.4531 18.6481 Q140.5625 19.0388 141.375 19.8981 Q142.1875 20.7575 142.6406 22.1169 Q143.0938 23.4763 143.0938 25.4294 L143.0938 35.32 L140.5 35.32 L140.5 25.945 Q140.5 24.0544 140.0313 22.8356 Q139.5625 21.6169 138.625 21.0388 Q137.6875 20.445 136.2031 20.445 Q134.6406 20.445 133.4531 21.2106 Q132.2656 21.9763 131.625 23.2731 Q130.9844 24.57 130.9844 26.2263 L130.9844 35.32 Z" /><path fill="rgb(110,118,129)" d="M152.5156 35.32 Q150.7656 35.32 149.8438 34.4763 Q148.9375 33.6169 148.9375 31.7106 L148.9375 20.6638 L145.6719 20.6638 L145.6719 18.5231 L148.9375 18.5231 L148.9375 13.4919 L151.5 13.1481 L151.5 18.5231 L155.4063 18.5231 L155.4063 20.6638 L151.5313 20.6638 L151.5313 31.2888 Q151.5313 32.2419 151.9688 32.6794 Q152.4219 33.1169 153.2813 33.1169 L155.4688 33.1169 L155.4688 35.32 Z" /><path fill="rgb(110,118,129)" d="M172.1563 35.6325 Q170.5938 35.6325 169.3438 35.2575 Q168.0938 34.8669 167.1875 34.1794 Q166.2969 33.4919 165.8125 32.5231 Q165.3438 31.5388 165.3125 30.3669 L167.875 30.3669 Q167.9375 31.4763 168.5 32.2263 Q169.0625 32.9763 170.0313 33.3356 Q171.0156 33.695 172.2188 33.695 Q174.1719 33.695 175.2031 32.9606 Q176.25 32.2106 176.25 30.8669 Q176.25 29.8513 175.7969 29.2888 Q175.3594 28.7263 174.4219 28.4138 Q173.5 28.0856 172 27.8669 Q169.9219 27.57 168.5469 27.07 Q167.1719 26.5544 166.4688 25.6169 Q165.7656 24.6638 165.7656 23.1325 Q165.7656 21.6638 166.5625 20.5544 Q167.3594 19.445 168.7969 18.82 Q170.2344 18.195 172.1563 18.195 Q174.1094 18.195 175.5156 18.82 Q176.9219 19.445 177.7188 20.5856 Q178.5313 21.7263 178.5625 23.2888 L176.0313 23.2888 Q175.9688 22.1638 175.4688 21.4763 Q174.9688 20.7888 174.125 20.4919 Q173.2813 20.1794 172.125 20.1794 Q170.3438 20.1794 169.3438 20.9294 Q168.3594 21.6638 168.3594 22.8669 Q168.3594 23.8044 168.8281 24.3669 Q169.3125 24.9138 170.3125 25.2263 Q171.3281 25.5231 172.8594 25.7575 Q174.75 26.0075 176.1094 26.5231 Q177.4688 27.0388 178.1719 28.0075 Q178.875 28.9763 178.875 30.6481 Q178.875 32.2419 178.0469 33.3513 Q177.2188 34.4606 175.6875 35.0544 Q174.1719 35.6325 172.1563 35.6325 Z" /><path fill="rgb(110,118,129)" d="M189.5313 35.6013 Q187.7188 35.6013 186.2188 35.0075 Q184.7344 34.3981 183.6563 33.2419 Q182.5938 32.0856 182 30.5075 Q181.4063 28.9138 181.4063 26.9606 Q181.4063 24.3825 182.3906 22.4294 Q183.3906 20.4763 185.2344 19.3669 Q187.0781 18.2575 189.5313 18.2575 Q191.3594 18.2575 192.8438 18.8513 Q194.3438 19.445 195.3906 20.6013 Q196.4531 21.7575 197.0156 23.3513 Q197.5938 24.945 197.5938 26.9294 Q197.5938 29.4919 196.6094 31.445 Q195.6406 33.3981 193.8125 34.5075 Q192 35.6013 189.5313 35.6013 ZM189.5313 33.3669 Q191.1719 33.3669 192.375 32.6169 Q193.5938 31.8669 194.2813 30.4138 Q194.9688 28.945 194.9688 26.9294 Q194.9688 25.4294 194.5781 24.2419 Q194.2031 23.0388 193.5 22.195 Q192.7969 21.3356 191.7969 20.8981 Q190.8125 20.445 189.5313 20.445 Q187.9063 20.445 186.6719 21.2263 Q185.4375 22.0075 184.75 23.445 Q184.0625 24.8825 184.0625 26.9606 Q184.0625 28.445 184.4219 29.6481 Q184.7969 30.8356 185.5156 31.6794 Q186.2344 32.5075 187.25 32.945 Q188.2813 33.3669 189.5313 33.3669 Z" /><path fill="rgb(110,118,129)" d="M202.2344 35.32 L202.2344 20.6013 L199.4219 20.6013 L199.4219 18.5231 L202.2344 18.5231 L202.2344 15.7419 Q202.2344 13.8513 203.2813 12.9294 Q204.3438 11.9919 206.2344 11.9919 L208.5313 11.9919 L208.5313 14.07 L206.7813 14.07 Q205.625 14.07 205.2031 14.6013 Q204.7969 15.1325 204.7969 16.0544 L204.7969 18.5231 L208.25 18.5231 L208.25 20.6013 L204.7969 20.6013 L204.7969 35.32 Z" /><path fill="rgb(110,118,129)" d="M216.5156 35.32 Q214.7656 35.32 213.8438 34.4763 Q212.9375 33.6169 212.9375 31.7106 L212.9375 20.6638 L209.6719 20.6638 L209.6719 18.5231 L212.9375 18.5231 L212.9375 13.4919 L215.5 13.1481 L215.5 18.5231 L219.4063 18.5231 L219.4063 20.6638 L215.5313 20.6638 L215.5313 31.2888 Q215.5313 32.2419 215.9688 32.6794 Q216.4219 33.1169 217.2813 33.1169 L219.4688 33.1169 L219.4688 35.32 Z" /><path fill="rgb(110,118,129)" d="M225.6406 35.32 L221.2813 18.5231 L223.875 18.5231 L226.375 28.4763 L227.4063 33.0231 L227.5938 33.0231 L228.5156 28.4763 L230.7969 18.5231 L233.9219 18.5231 L236.3281 28.4763 L237.3125 33.0544 L237.4844 33.0544 L238.4688 28.4763 L240.9375 18.5231 L243.4375 18.5231 L239.1094 35.32 L235.6875 35.32 L233.3594 25.8825 L232.3906 21.4294 L232.2344 21.4294 L231.3438 25.8825 L229.1563 35.32 Z" /><path fill="rgb(110,118,129)" d="M252.4844 35.6013 Q250.9375 35.6013 249.6406 35.0075 Q248.3594 34.3981 247.4219 33.2731 Q246.5 32.1481 246 30.5544 Q245.5 28.945 245.5 26.8981 Q245.5 24.1794 246.375 22.2419 Q247.2656 20.3044 248.8281 19.2731 Q250.4063 18.2263 252.4844 18.2263 Q253.9219 18.2263 255.1094 18.695 Q256.3125 19.1638 257.1406 19.9919 Q257.9844 20.82 258.375 21.9763 L258.5313 21.9763 L258.625 18.5231 L261.0938 18.5231 L261.0938 35.32 L258.625 35.32 L258.5313 31.8356 L258.375 31.8356 Q257.7656 33.5231 256.2031 34.57 Q254.6563 35.6013 252.4844 35.6013 ZM253.3125 33.4294 Q254.9688 33.4294 256.125 32.6481 Q257.2813 31.8669 257.8906 30.6169 Q258.5 29.3669 258.5 27.9294 L258.5 25.8825 Q258.5 24.4138 257.875 23.1481 Q257.25 21.8825 256.1094 21.1325 Q254.9688 20.3825 253.3438 20.3825 Q251.75 20.3825 250.5781 21.1638 Q249.4063 21.945 248.7813 23.3981 Q248.1563 24.8513 248.1563 26.8981 Q248.1563 28.9138 248.7813 30.3981 Q249.4063 31.8669 250.5625 32.6481 Q251.7188 33.4294 253.3125 33.4294 Z" /><path fill="rgb(110,118,129)" d="M265.4375 35.32 L265.4375 18.5231 L267.7344 18.5231 L267.8906 21.6169 L268.0313 21.6169 Q268.5625 20.0231 269.9375 19.1638 Q271.3125 18.2888 273.0156 18.2888 Q273.2969 18.2888 273.5469 18.32 Q273.8125 18.3356 274.0469 18.3669 L274.0469 20.82 Q273.8125 20.7888 273.5469 20.7731 Q273.2969 20.7575 273.0156 20.7575 Q271.5469 20.7575 270.4531 21.3044 Q269.375 21.8513 268.75 22.8669 Q268.125 23.8669 267.9844 25.3044 L267.9844 35.32 Z" /><path fill="rgb(110,118,129)" d="M282.8594 35.6013 Q280.4688 35.6013 278.75 34.5544 Q277.0469 33.4919 276.1406 31.5388 Q275.25 29.5856 275.25 27.0075 Q275.25 24.3513 276.1406 22.3825 Q277.0469 20.4138 278.7031 19.3356 Q280.375 18.2575 282.7656 18.2575 Q285.3281 18.2575 286.9844 19.4138 Q288.6563 20.57 289.4063 22.6169 Q290.1563 24.6638 289.9688 27.3513 L277.7813 27.3513 Q277.8125 29.4294 278.4375 30.82 Q279.0625 32.2106 280.1875 32.8981 Q281.3281 33.5856 282.8594 33.5856 Q284.6563 33.5856 285.7969 32.7575 Q286.9531 31.9294 287.3438 30.5544 L289.8438 30.5544 Q289.5469 32.1481 288.5625 33.2888 Q287.5938 34.4294 286.125 35.0231 Q284.6563 35.6013 282.8594 35.6013 ZM277.8125 25.8825 L277.5156 25.4919 L287.7344 25.4919 L287.4375 25.945 Q287.4688 23.9294 286.8906 22.695 Q286.3125 21.4606 285.2344 20.8669 Q284.1719 20.2731 282.7656 20.2731 Q281.2969 20.2731 280.2031 20.9138 Q279.125 21.5544 278.5 22.7888 Q277.875 24.0231 277.8125 25.8825 Z" /><path fill="rgb(110,118,129)" d="M307.4844 35.6013 Q305.9375 35.6013 304.6406 35.0075 Q303.3594 34.3981 302.4219 33.2731 Q301.5 32.1481 301 30.5544 Q300.5 28.945 300.5 26.8981 Q300.5 24.1794 301.375 22.2419 Q302.2656 20.3044 303.8281 19.2731 Q305.4063 18.2263 307.4844 18.2263 Q308.9219 18.2263 310.1094 18.695 Q311.3125 19.1638 312.1406 19.9919 Q312.9844 20.82 313.375 21.9763 L313.5313 21.9763 L313.625 18.5231 L316.0938 18.5231 L316.0938 35.32 L313.625 35.32 L313.5313 31.8356 L313.375 31.8356 Q312.7656 33.5231 311.2031 34.57 Q309.6563 35.6013 307.4844 35.6013 ZM308.3125 33.4294 Q309.9688 33.4294 311.125 32.6481 Q312.2813 31.8669 312.8906 30.6169 Q313.5 29.3669 313.5 27.9294 L313.5 25.8825 Q313.5 24.4138 312.875 23.1481 Q312.25 21.8825 311.1094 21.1325 Q309.9688 20.3825 308.3438 20.3825 Q306.75 20.3825 305.5781 21.1638 Q304.4063 21.945 303.7813 23.3981 Q303.1563 24.8513 303.1563 26.8981 Q303.1563 28.9138 303.7813 30.3981 Q304.4063 31.8669 305.5625 32.6481 Q306.7188 33.4294 308.3125 33.4294 Z" /><path fill="rgb(110,118,129)" d="M320.4375 35.32 L320.4375 18.5231 L322.8906 18.5231 L322.9844 22.0075 L323.1875 22.0075 Q323.9531 20.1481 325.5469 19.2106 Q327.1563 18.2575 329.0469 18.2575 Q330.3594 18.2575 331.4531 18.6481 Q332.5625 19.0388 333.375 19.8981 Q334.1875 20.7575 334.6406 22.1169 Q335.0938 23.4763 335.0938 25.4294 L335.0938 35.32 L332.5 35.32 L332.5 25.945 Q332.5 24.0544 332.0313 22.8356 Q331.5625 21.6169 330.625 21.0388 Q329.6875 20.445 328.2031 20.445 Q326.6406 20.445 325.4531 21.2106 Q324.2656 21.9763 323.625 23.2731 Q322.9844 24.57 322.9844 26.2263 L322.9844 35.32 Z" /><path fill="rgb(110,118,129)" d="M346.4844 35.6013 Q344.9375 35.6013 343.6406 35.0075 Q342.3594 34.3981 341.4219 33.2731 Q340.5 32.1481 340 30.5544 Q339.5 28.945 339.5 26.8981 Q339.5 24.1794 340.375 22.2419 Q341.2656 20.3044 342.8281 19.2731 Q344.4063 18.2263 346.4844 18.2263 Q347.9219 18.2263 349.1094 18.695 Q350.3125 19.1638 351.1406 19.9919 Q351.9844 20.82 352.375 21.9763 L352.5 21.9763 L352.5 11.9919 L355.0938 11.9919 L355.0938 35.32 L352.625 35.32 L352.5313 31.8356 L352.375 31.8356 Q351.7656 33.5231 350.2031 34.57 Q348.6563 35.6013 346.4844 35.6013 ZM347.3125 33.4294 Q348.9688 33.4294 350.125 32.6481 Q351.2813 31.8669 351.8906 30.6169 Q352.5 29.3669 352.5 27.9294 L352.5 25.8825 Q352.5 24.4138 351.875 23.1481 Q351.25 21.8825 350.1094 21.1325 Q348.9688 20.3825 347.3438 20.3825 Q345.75 20.3825 344.5781 21.1638 Q343.4063 21.945 342.7813 23.3981 Q342.1563 24.8513 342.1563 26.8981 Q342.1563 28.9138 342.7813 30.3981 Q343.4063 31.8669 344.5625 32.6481 Q345.7188 33.4294 347.3125 33.4294 Z" /><path fill="rgb(110,118,129)" d="M372.8594 35.6013 Q370.4688 35.6013 368.75 34.5544 Q367.0469 33.4919 366.1406 31.5388 Q365.25 29.5856 365.25 27.0075 Q365.25 24.3513 366.1406 22.3825 Q367.0469 20.4138 368.7031 19.3356 Q370.375 18.2575 372.7656 18.2575 Q375.3281 18.2575 376.9844 19.4138 Q378.6563 20.57 379.4063 22.6169 Q380.1563 24.6638 379.9688 27.3513 L367.7813 27.3513 Q367.8125 29.4294 368.4375 30.82 Q369.0625 32.2106 370.1875 32.8981 Q371.3281 33.5856 372.8594 33.5856 Q374.6563 33.5856 375.7969 32.7575 Q376.9531 31.9294 377.3438 30.5544 L379.8438 30.5544 Q379.5469 32.1481 378.5625 33.2888 Q377.5938 34.4294 376.125 35.0231 Q374.6563 35.6013 372.8594 35.6013 ZM367.8125 25.8825 L367.5156 25.4919 L377.7344 25.4919 L377.4375 25.945 Q377.4688 23.9294 376.8906 22.695 Q376.3125 21.4606 375.2344 20.8669 Q374.1719 20.2731 372.7656 20.2731 Q371.2969 20.2731 370.2031 20.9138 Q369.125 21.5544 368.5 22.7888 Q367.875 24.0231 367.8125 25.8825 Z" /><path fill="rgb(110,118,129)" d="M384.4375 35.32 L384.4375 18.5231 L386.8906 18.5231 L386.9844 22.0075 L387.1875 22.0075 Q387.9219 20.1481 389.4844 19.2106 Q391.0625 18.2575 392.9375 18.2575 Q394.8594 18.2575 396.3281 19.195 Q397.8125 20.1169 398.4531 22.2888 L398.7031 22.2888 Q399.4375 20.2731 401.0781 19.2731 Q402.7344 18.2575 404.7813 18.2575 Q406.4844 18.2575 407.8125 18.9763 Q409.1406 19.6794 409.9063 21.2575 Q410.6719 22.8356 410.6719 25.4294 L410.6719 35.32 L408.1094 35.32 L408.1094 25.945 Q408.1094 24.0544 407.6406 22.8356 Q407.1875 21.6169 406.2656 21.0388 Q405.3594 20.445 403.8906 20.445 Q402.3906 20.445 401.25 21.2106 Q400.1094 21.9763 399.4844 23.2731 Q398.8594 24.57 398.8594 26.2263 L398.8594 35.32 L396.2344 35.32 L396.2344 25.945 Q396.2344 24.0544 395.7813 22.8356 Q395.3438 21.6169 394.4219 21.0388 Q393.5156 20.445 392.0781 20.445 Q390.5469 20.445 389.4063 21.2106 Q388.2656 21.9763 387.625 23.2731 Q386.9844 24.57 386.9844 26.2263 L386.9844 35.32 Z" /><path fill="rgb(110,118,129)" d="M423.0469 35.6013 Q421.5938 35.6013 420.3906 35.1481 Q419.2031 34.6794 418.375 33.8356 Q417.5625 32.9763 417.1563 31.8669 L416.9844 31.8669 L416.8594 35.32 L414.4375 35.32 L414.4375 11.9919 L417.0313 11.9919 L417.0313 22.0075 L417.1563 22.0075 Q417.7344 20.3044 419.2969 19.2888 Q420.8594 18.2575 423.0469 18.2575 Q424.5781 18.2575 425.8594 18.8513 Q427.1406 19.445 428.0625 20.57 Q428.9844 21.695 429.4844 23.3044 Q429.9844 24.9138 429.9844 26.9294 Q429.9844 29.6638 429.1094 31.6169 Q428.25 33.5544 426.6875 34.5856 Q425.125 35.6013 423.0469 35.6013 ZM422.1406 33.4606 Q423.7813 33.4606 424.9219 32.695 Q426.0781 31.9294 426.7188 30.4606 Q427.3594 28.9763 427.3594 26.9294 Q427.3594 25.3981 426.9844 24.2106 Q426.625 23.0075 425.9688 22.1638 Q425.3125 21.3044 424.3438 20.8825 Q423.3906 20.445 422.2031 20.445 Q420.5469 20.445 419.3906 21.195 Q418.2344 21.945 417.625 23.2106 Q417.0313 24.4763 417.0313 25.9138 L417.0313 27.9606 Q417.0313 29.4294 417.625 30.6794 Q418.2344 31.9294 419.3906 32.695 Q420.5469 33.4606 422.1406 33.4606 Z" /><path fill="rgb(110,118,129)" d="M441.8594 35.6013 Q439.4688 35.6013 437.75 34.5544 Q436.0469 33.4919 435.1406 31.5388 Q434.25 29.5856 434.25 27.0075 Q434.25 24.3513 435.1406 22.3825 Q436.0469 20.4138 437.7031 19.3356 Q439.375 18.2575 441.7656 18.2575 Q444.3281 18.2575 445.9844 19.4138 Q447.6563 20.57 448.4063 22.6169 Q449.1563 24.6638 448.9688 27.3513 L436.7813 27.3513 Q436.8125 29.4294 437.4375 30.82 Q438.0625 32.2106 439.1875 32.8981 Q440.3281 33.5856 441.8594 33.5856 Q443.6563 33.5856 444.7969 32.7575 Q445.9531 31.9294 446.3438 30.5544 L448.8438 30.5544 Q448.5469 32.1481 447.5625 33.2888 Q446.5938 34.4294 445.125 35.0231 Q443.6563 35.6013 441.8594 35.6013 ZM436.8125 25.8825 L436.5156 25.4919 L446.7344 25.4919 L446.4375 25.945 Q446.4688 23.9294 445.8906 22.695 Q445.3125 21.4606 444.2344 20.8669 Q443.1719 20.2731 441.7656 20.2731 Q440.2969 20.2731 439.2031 20.9138 Q438.125 21.5544 437.5 22.7888 Q436.875 24.0231 436.8125 25.8825 Z" /><path fill="rgb(110,118,129)" d="M458.4844 35.6013 Q456.9375 35.6013 455.6406 35.0075 Q454.3594 34.3981 453.4219 33.2731 Q452.5 32.1481 452 30.5544 Q451.5 28.945 451.5 26.8981 Q451.5 24.1794 452.375 22.2419 Q453.2656 20.3044 454.8281 19.2731 Q456.4063 18.2263 458.4844 18.2263 Q459.9219 18.2263 461.1094 18.695 Q462.3125 19.1638 463.1406 19.9919 Q463.9844 20.82 464.375 21.9763 L464.5 21.9763 L464.5 11.9919 L467.0938 11.9919 L467.0938 35.32 L464.625 35.32 L464.5313 31.8356 L464.375 31.8356 Q463.7656 33.5231 462.2031 34.57 Q460.6563 35.6013 458.4844 35.6013 ZM459.3125 33.4294 Q460.9688 33.4294 462.125 32.6481 Q463.2813 31.8669 463.8906 30.6169 Q464.5 29.3669 464.5 27.9294 L464.5 25.8825 Q464.5 24.4138 463.875 23.1481 Q463.25 21.8825 462.1094 21.1325 Q460.9688 20.3825 459.3438 20.3825 Q457.75 20.3825 456.5781 21.1638 Q455.4063 21.945 454.7813 23.3981 Q454.1563 24.8513 454.1563 26.8981 Q454.1563 28.9138 454.7813 30.3981 Q455.4063 31.8669 456.5625 32.6481 Q457.7188 33.4294 459.3125 33.4294 Z" /><path fill="rgb(110,118,129)" d="M477.4844 35.6013 Q475.9375 35.6013 474.6406 35.0075 Q473.3594 34.3981 472.4219 33.2731 Q471.5 32.1481 471 30.5544 Q470.5 28.945 470.5 26.8981 Q470.5 24.1794 471.375 22.2419 Q472.2656 20.3044 473.8281 19.2731 Q475.4063 18.2263 477.4844 18.2263 Q478.9219 18.2263 480.1094 18.695 Q481.3125 19.1638 482.1406 19.9919 Q482.9844 20.82 483.375 21.9763 L483.5 21.9763 L483.5 11.9919 L486.0938 11.9919 L486.0938 35.32 L483.625 35.32 L483.5313 31.8356 L483.375 31.8356 Q482.7656 33.5231 481.2031 34.57 Q479.6563 35.6013 477.4844 35.6013 ZM478.3125 33.4294 Q479.9688 33.4294 481.125 32.6481 Q482.2813 31.8669 482.8906 30.6169 Q483.5 29.3669 483.5 27.9294 L483.5 25.8825 Q483.5 24.4138 482.875 23.1481 Q482.25 21.8825 481.1094 21.1325 Q479.9688 20.3825 478.3438 20.3825 Q476.75 20.3825 475.5781 21.1638 Q474.4063 21.945 473.7813 23.3981 Q473.1563 24.8513 473.1563 26.8981 Q473.1563 28.9138 473.7813 30.3981 Q474.4063 31.8669 475.5625 32.6481 Q476.7188 33.4294 478.3125 33.4294 Z" /><path fill="rgb(110,118,129)" d="M497.8594 35.6013 Q495.4688 35.6013 493.75 34.5544 Q492.0469 33.4919 491.1406 31.5388 Q490.25 29.5856 490.25 27.0075 Q490.25 24.3513 491.1406 22.3825 Q492.0469 20.4138 493.7031 19.3356 Q495.375 18.2575 497.7656 18.2575 Q500.3281 18.2575 501.9844 19.4138 Q503.6563 20.57 504.4063 22.6169 Q505.1563 24.6638 504.9688 27.3513 L492.7813 27.3513 Q492.8125 29.4294 493.4375 30.82 Q494.0625 32.2106 495.1875 32.8981 Q496.3281 33.5856 497.8594 33.5856 Q499.6563 33.5856 500.7969 32.7575 Q501.9531 31.9294 502.3438 30.5544 L504.8438 30.5544 Q504.5469 32.1481 503.5625 33.2888 Q502.5938 34.4294 501.125 35.0231 Q499.6563 35.6013 497.8594 35.6013 ZM492.8125 25.8825 L492.5156 25.4919 L502.7344 25.4919 L502.4375 25.945 Q502.4688 23.9294 501.8906 22.695 Q501.3125 21.4606 500.2344 20.8669 Q499.1719 20.2731 497.7656 20.2731 Q496.2969 20.2731 495.2031 20.9138 Q494.125 21.5544 493.5 22.7888 Q492.875 24.0231 492.8125 25.8825 Z" /><path fill="rgb(110,118,129)" d="M514.4844 35.6013 Q512.9375 35.6013 511.6406 35.0075 Q510.3594 34.3981 509.4219 33.2731 Q508.5 32.1481 508 30.5544 Q507.5 28.945 507.5 26.8981 Q507.5 24.1794 508.375 22.2419 Q509.2656 20.3044 510.8281 19.2731 Q512.4063 18.2263 514.4844 18.2263 Q515.9219 18.2263 517.1094 18.695 Q518.3125 19.1638 519.1406 19.9919 Q519.9844 20.82 520.375 21.9763 L520.5 21.9763 L520.5 11.9919 L523.0938 11.9919 L523.0938 35.32 L520.625 35.32 L520.5313 31.8356 L520.375 31.8356 Q519.7656 33.5231 518.2031 34.57 Q516.6563 35.6013 514.4844 35.6013 ZM515.3125 33.4294 Q516.9688 33.4294 518.125 32.6481 Q519.2813 31.8669 519.8906 30.6169 Q520.5 29.3669 520.5 27.9294 L520.5 25.8825 Q520.5 24.4138 519.875 23.1481 Q519.25 21.8825 518.1094 21.1325 Q516.9688 20.3825 515.3438 20.3825 Q513.75 20.3825 512.5781 21.1638 Q511.4063 21.945 510.7813 23.3981 Q510.1563 24.8513 510.1563 26.8981 Q510.1563 28.9138 510.7813 30.3981 Q511.4063 31.8669 512.5625 32.6481 Q513.7188 33.4294 515.3125 33.4294 Z" /><path fill="rgb(110,118,129)" d="M541.1563 35.6325 Q539.5938 35.6325 538.3438 35.2575 Q537.0938 34.8669 536.1875 34.1794 Q535.2969 33.4919 534.8125 32.5231 Q534.3438 31.5388 534.3125 30.3669 L536.875 30.3669 Q536.9375 31.4763 537.5 32.2263 Q538.0625 32.9763 539.0313 33.3356 Q540.0156 33.695 541.2188 33.695 Q543.1719 33.695 544.2031 32.9606 Q545.25 32.2106 545.25 30.8669 Q545.25 29.8513 544.7969 29.2888 Q544.3594 28.7263 543.4219 28.4138 Q542.5 28.0856 541 27.8669 Q538.9219 27.57 537.5469 27.07 Q536.1719 26.5544 535.4688 25.6169 Q534.7656 24.6638 534.7656 23.1325 Q534.7656 21.6638 535.5625 20.5544 Q536.3594 19.445 537.7969 18.82 Q539.2344 18.195 541.1563 18.195 Q543.1094 18.195 544.5156 18.82 Q545.9219 19.445 546.7188 20.5856 Q547.5313 21.7263 547.5625 23.2888 L545.0313 23.2888 Q544.9688 22.1638 544.4688 21.4763 Q543.9688 20.7888 543.125 20.4919 Q542.2813 20.1794 541.125 20.1794 Q539.3438 20.1794 538.3438 20.9294 Q537.3594 21.6638 537.3594 22.8669 Q537.3594 23.8044 537.8281 24.3669 Q538.3125 24.9138 539.3125 25.2263 Q540.3281 25.5231 541.8594 25.7575 Q543.75 26.0075 545.1094 26.5231 Q546.4688 27.0388 547.1719 28.0075 Q547.875 28.9763 547.875 30.6481 Q547.875 32.2419 547.0469 33.3513 Q546.2188 34.4606 544.6875 35.0544 Q543.1719 35.6325 541.1563 35.6325 Z" /><path fill="rgb(110,118,129)" d="M550.7969 40.6638 L550.7969 38.5231 L552.4844 38.5231 Q553.25 38.5231 553.7969 38.2888 Q554.3438 38.07 554.7344 37.6169 Q555.1406 37.1794 555.4063 36.4763 L556.5156 33.6169 L556.5156 34.7106 L549.6406 18.5231 L552.4844 18.5231 L555.9688 27.6794 L557.4844 31.6794 L557.6406 31.6794 L559.0156 27.6794 L562.3125 18.5231 L565.0938 18.5231 L557.8281 37.1169 Q557.3594 38.3981 556.6875 39.1794 Q556.0156 39.9606 555.0781 40.3044 Q554.1563 40.6638 552.875 40.6638 Z" /><path fill="rgb(110,118,129)" d="M574.1563 35.6325 Q572.5938 35.6325 571.3438 35.2575 Q570.0938 34.8669 569.1875 34.1794 Q568.2969 33.4919 567.8125 32.5231 Q567.3438 31.5388 567.3125 30.3669 L569.875 30.3669 Q569.9375 31.4763 570.5 32.2263 Q571.0625 32.9763 572.0313 33.3356 Q573.0156 33.695 574.2188 33.695 Q576.1719 33.695 577.2031 32.9606 Q578.25 32.2106 578.25 30.8669 Q578.25 29.8513 577.7969 29.2888 Q577.3594 28.7263 576.4219 28.4138 Q575.5 28.0856 574 27.8669 Q571.9219 27.57 570.5469 27.07 Q569.1719 26.5544 568.4688 25.6169 Q567.7656 24.6638 567.7656 23.1325 Q567.7656 21.6638 568.5625 20.5544 Q569.3594 19.445 570.7969 18.82 Q572.2344 18.195 574.1563 18.195 Q576.1094 18.195 577.5156 18.82 Q578.9219 19.445 579.7188 20.5856 Q580.5313 21.7263 580.5625 23.2888 L578.0313 23.2888 Q577.9688 22.1638 577.4688 21.4763 Q576.9688 20.7888 576.125 20.4919 Q575.2813 20.1794 574.125 20.1794 Q572.3438 20.1794 571.3438 20.9294 Q570.3594 21.6638 570.3594 22.8669 Q570.3594 23.8044 570.8281 24.3669 Q571.3125 24.9138 572.3125 25.2263 Q573.3281 25.5231 574.8594 25.7575 Q576.75 26.0075 578.1094 26.5231 Q579.4688 27.0388 580.1719 28.0075 Q580.875 28.9763 580.875 30.6481 Q580.875 32.2419 580.0469 33.3513 Q579.2188 34.4606 577.6875 35.0544 Q576.1719 35.6325 574.1563 35.6325 Z" /><path fill="rgb(110,118,129)" d="M589.5156 35.32 Q587.7656 35.32 586.8438 34.4763 Q585.9375 33.6169 585.9375 31.7106 L585.9375 20.6638 L582.6719 20.6638 L582.6719 18.5231 L585.9375 18.5231 L585.9375 13.4919 L588.5 13.1481 L588.5 18.5231 L592.4063 18.5231 L592.4063 20.6638 L588.5313 20.6638 L588.5313 31.2888 Q588.5313 32.2419 588.9688 32.6794 Q589.4219 33.1169 590.2813 33.1169 L592.4688 33.1169 L592.4688 35.32 Z" /><path fill="rgb(110,118,129)" d="M601.8594 35.6013 Q599.4688 35.6013 597.75 34.5544 Q596.0469 33.4919 595.1406 31.5388 Q594.25 29.5856 594.25 27.0075 Q594.25 24.3513 595.1406 22.3825 Q596.0469 20.4138 597.7031 19.3356 Q599.375 18.2575 601.7656 18.2575 Q604.3281 18.2575 605.9844 19.4138 Q607.6563 20.57 608.4063 22.6169 Q609.1563 24.6638 608.9688 27.3513 L596.7813 27.3513 Q596.8125 29.4294 597.4375 30.82 Q598.0625 32.2106 599.1875 32.8981 Q600.3281 33.5856 601.8594 33.5856 Q603.6563 33.5856 604.7969 32.7575 Q605.9531 31.9294 606.3438 30.5544 L608.8438 30.5544 Q608.5469 32.1481 607.5625 33.2888 Q606.5938 34.4294 605.125 35.0231 Q603.6563 35.6013 601.8594 35.6013 ZM596.8125 25.8825 L596.5156 25.4919 L606.7344 25.4919 L606.4375 25.945 Q606.4688 23.9294 605.8906 22.695 Q605.3125 21.4606 604.2344 20.8669 Q603.1719 20.2731 601.7656 20.2731 Q600.2969 20.2731 599.2031 20.9138 Q598.125 21.5544 597.5 22.7888 Q596.875 24.0231 596.8125 25.8825 Z" /><path fill="rgb(110,118,129)" d="M612.4375 35.32 L612.4375 18.5231 L614.8906 18.5231 L614.9844 22.0075 L615.1875 22.0075 Q615.9219 20.1481 617.4844 19.2106 Q619.0625 18.2575 620.9375 18.2575 Q622.8594 18.2575 624.3281 19.195 Q625.8125 20.1169 626.4531 22.2888 L626.7031 22.2888 Q627.4375 20.2731 629.0781 19.2731 Q630.7344 18.2575 632.7813 18.2575 Q634.4844 18.2575 635.8125 18.9763 Q637.1406 19.6794 637.9063 21.2575 Q638.6719 22.8356 638.6719 25.4294 L638.6719 35.32 L636.1094 35.32 L636.1094 25.945 Q636.1094 24.0544 635.6406 22.8356 Q635.1875 21.6169 634.2656 21.0388 Q633.3594 20.445 631.8906 20.445 Q630.3906 20.445 629.25 21.2106 Q628.1094 21.9763 627.4844 23.2731 Q626.8594 24.57 626.8594 26.2263 L626.8594 35.32 L624.2344 35.32 L624.2344 25.945 Q624.2344 24.0544 623.7813 22.8356 Q623.3438 21.6169 622.4219 21.0388 Q621.5156 20.445 620.0781 20.445 Q618.5469 20.445 617.4063 21.2106 Q616.2656 21.9763 615.625 23.2731 Q614.9844 24.57 614.9844 26.2263 L614.9844 35.32 Z" /><path fill="rgb(110,118,129)" d="M649.1563 35.6325 Q647.5938 35.6325 646.3438 35.2575 Q645.0938 34.8669 644.1875 34.1794 Q643.2969 33.4919 642.8125 32.5231 Q642.3438 31.5388 642.3125 30.3669 L644.875 30.3669 Q644.9375 31.4763 645.5 32.2263 Q646.0625 32.9763 647.0313 33.3356 Q648.0156 33.695 649.2188 33.695 Q651.1719 33.695 652.2031 32.9606 Q653.25 32.2106 653.25 30.8669 Q653.25 29.8513 652.7969 29.2888 Q652.3594 28.7263 651.4219 28.4138 Q650.5 28.0856 649 27.8669 Q646.9219 27.57 645.5469 27.07 Q644.1719 26.5544 643.4688 25.6169 Q642.7656 24.6638 642.7656 23.1325 Q642.7656 21.6638 643.5625 20.5544 Q644.3594 19.445 645.7969 18.82 Q647.2344 18.195 649.1563 18.195 Q651.1094 18.195 652.5156 18.82 Q653.9219 19.445 654.7188 20.5856 Q655.5313 21.7263 655.5625 23.2888 L653.0313 23.2888 Q652.9688 22.1638 652.4688 21.4763 Q651.9688 20.7888 651.125 20.4919 Q650.2813 20.1794 649.125 20.1794 Q647.3438 20.1794 646.3438 20.9294 Q645.3594 21.6638 645.3594 22.8669 Q645.3594 23.8044 645.8281 24.3669 Q646.3125 24.9138 647.3125 25.2263 Q648.3281 25.5231 649.8594 25.7575 Q651.75 26.0075 653.1094 26.5231 Q654.4688 27.0388 655.1719 28.0075 Q655.875 28.9763 655.875 30.6481 Q655.875 32.2419 655.0469 33.3513 Q654.2188 34.4606 652.6875 35.0544 Q651.1719 35.6325 649.1563 35.6325 Z" /><path fill="rgb(110,118,129)" d="M3.2344 81.32 L3.2344 66.6013 L0.4219 66.6013 L0.4219 64.5231 L3.2344 64.5231 L3.2344 61.7419 Q3.2344 59.8513 4.2813 58.9294 Q5.3438 57.9919 7.2344 57.9919 L9.5313 57.9919 L9.5313 60.07 L7.7813 60.07 Q6.625 60.07 6.2031 60.6013 Q5.7969 61.1325 5.7969 62.0544 L5.7969 64.5231 L9.25 64.5231 L9.25 66.6013 L5.7969 66.6013 L5.7969 81.32 Z" /><path fill="rgb(110,118,129)" d="M11.4375 81.32 L11.4375 64.5231 L13.7344 64.5231 L13.8906 67.6169 L14.0313 67.6169 Q14.5625 66.0231 15.9375 65.1638 Q17.3125 64.2888 19.0156 64.2888 Q19.2969 64.2888 19.5469 64.32 Q19.8125 64.3356 20.0469 64.3669 L20.0469 66.82 Q19.8125 66.7888 19.5469 66.7731 Q19.2969 66.7575 19.0156 66.7575 Q17.5469 66.7575 16.4531 67.3044 Q15.375 67.8513 14.75 68.8669 Q14.125 69.8669 13.9844 71.3044 L13.9844 81.32 Z" /><path fill="rgb(110,118,129)" d="M28.4844 81.6013 Q26.9375 81.6013 25.6406 81.0075 Q24.3594 80.3981 23.4219 79.2731 Q22.5 78.1481 22 76.5544 Q21.5 74.945 21.5 72.8981 Q21.5 70.1794 22.375 68.2419 Q23.2656 66.3044 24.8281 65.2731 Q26.4063 64.2263 28.4844 64.2263 Q29.9219 64.2263 31.1094 64.695 Q32.3125 65.1638 33.1406 65.9919 Q33.9844 66.82 34.375 67.9763 L34.5313 67.9763 L34.625 64.5231 L37.0938 64.5231 L37.0938 81.32 L34.625 81.32 L34.5313 77.8356 L34.375 77.8356 Q33.7656 79.5231 32.2031 80.57 Q30.6563 81.6013 28.4844 81.6013 ZM29.3125 79.4294 Q30.9688 79.4294 32.125 78.6481 Q33.2813 77.8669 33.8906 76.6169 Q34.5 75.3669 34.5 73.9294 L34.5 71.8825 Q34.5 70.4138 33.875 69.1481 Q33.25 67.8825 32.1094 67.1325 Q30.9688 66.3825 29.3438 66.3825 Q27.75 66.3825 26.5781 67.1638 Q25.4063 67.945 24.7813 69.3981 Q24.1563 70.8513 24.1563 72.8981 Q24.1563 74.9138 24.7813 76.3981 Q25.4063 77.8669 26.5625 78.6481 Q27.7188 79.4294 29.3125 79.4294 Z" /><path fill="rgb(110,118,129)" d="M42.4375 81.32 L42.4375 64.5231 L44.8906 64.5231 L44.9844 68.0075 L45.1875 68.0075 Q45.9219 66.1481 47.4844 65.2106 Q49.0625 64.2575 50.9375 64.2575 Q52.8594 64.2575 54.3281 65.195 Q55.8125 66.1169 56.4531 68.2888 L56.7031 68.2888 Q57.4375 66.2731 59.0781 65.2731 Q60.7344 64.2575 62.7813 64.2575 Q64.4844 64.2575 65.8125 64.9763 Q67.1406 65.6794 67.9063 67.2575 Q68.6719 68.8356 68.6719 71.4294 L68.6719 81.32 L66.1094 81.32 L66.1094 71.945 Q66.1094 70.0544 65.6406 68.8356 Q65.1875 67.6169 64.2656 67.0388 Q63.3594 66.445 61.8906 66.445 Q60.3906 66.445 59.25 67.2106 Q58.1094 67.9763 57.4844 69.2731 Q56.8594 70.57 56.8594 72.2263 L56.8594 81.32 L54.2344 81.32 L54.2344 71.945 Q54.2344 70.0544 53.7813 68.8356 Q53.3438 67.6169 52.4219 67.0388 Q51.5156 66.445 50.0781 66.445 Q48.5469 66.445 47.4063 67.2106 Q46.2656 67.9763 45.625 69.2731 Q44.9844 70.57 44.9844 72.2263 L44.9844 81.32 Z" /><path fill="rgb(110,118,129)" d="M79.8594 81.6013 Q77.4688 81.6013 75.75 80.5544 Q74.0469 79.4919 73.1406 77.5388 Q72.25 75.5856 72.25 73.0075 Q72.25 70.3513 73.1406 68.3825 Q74.0469 66.4138 75.7031 65.3356 Q77.375 64.2575 79.7656 64.2575 Q82.3281 64.2575 83.9844 65.4138 Q85.6563 66.57 86.4063 68.6169 Q87.1563 70.6638 86.9688 73.3513 L74.7813 73.3513 Q74.8125 75.4294 75.4375 76.82 Q76.0625 78.2106 77.1875 78.8981 Q78.3281 79.5856 79.8594 79.5856 Q81.6563 79.5856 82.7969 78.7575 Q83.9531 77.9294 84.3438 76.5544 L86.8438 76.5544 Q86.5469 78.1481 85.5625 79.2888 Q84.5938 80.4294 83.125 81.0231 Q81.6563 81.6013 79.8594 81.6013 ZM74.8125 71.8825 L74.5156 71.4919 L84.7344 71.4919 L84.4375 71.945 Q84.4688 69.9294 83.8906 68.695 Q83.3125 67.4606 82.2344 66.8669 Q81.1719 66.2731 79.7656 66.2731 Q78.2969 66.2731 77.2031 66.9138 Q76.125 67.5544 75.5 68.7888 Q74.875 70.0231 74.8125 71.8825 Z" /><path fill="rgb(110,118,129)" d="M92.6406 81.32 L88.2813 64.5231 L90.875 64.5231 L93.375 74.4763 L94.4063 79.0231 L94.5938 79.0231 L95.5156 74.4763 L97.7969 64.5231 L100.9219 64.5231 L103.3281 74.4763 L104.3125 79.0544 L104.4844 79.0544 L105.4688 74.4763 L107.9375 64.5231 L110.4375 64.5231 L106.1094 81.32 L102.6875 81.32 L100.3594 71.8825 L99.3906 67.4294 L99.2344 67.4294 L98.3438 71.8825 L96.1563 81.32 Z" /><path fill="rgb(110,118,129)" d="M120.5313 81.6013 Q118.7188 81.6013 117.2188 81.0075 Q115.7344 80.3981 114.6563 79.2419 Q113.5938 78.0856 113 76.5075 Q112.4063 74.9138 112.4063 72.9606 Q112.4063 70.3825 113.3906 68.4294 Q114.3906 66.4763 116.2344 65.3669 Q118.0781 64.2575 120.5313 64.2575 Q122.3594 64.2575 123.8438 64.8513 Q125.3438 65.445 126.3906 66.6013 Q127.4531 67.7575 128.0156 69.3513 Q128.5938 70.945 128.5938 72.9294 Q128.5938 75.4919 127.6094 77.445 Q126.6406 79.3981 124.8125 80.5075 Q123 81.6013 120.5313 81.6013 ZM120.5313 79.3669 Q122.1719 79.3669 123.375 78.6169 Q124.5938 77.8669 125.2813 76.4138 Q125.9688 74.945 125.9688 72.9294 Q125.9688 71.4294 125.5781 70.2419 Q125.2031 69.0388 124.5 68.195 Q123.7969 67.3356 122.7969 66.8981 Q121.8125 66.445 120.5313 66.445 Q118.9063 66.445 117.6719 67.2263 Q116.4375 68.0075 115.75 69.445 Q115.0625 70.8825 115.0625 72.9606 Q115.0625 74.445 115.4219 75.6481 Q115.7969 76.8356 116.5156 77.6794 Q117.2344 78.5075 118.25 78.945 Q119.2813 79.3669 120.5313 79.3669 Z" /><path fill="rgb(110,118,129)" d="M132.4375 81.32 L132.4375 64.5231 L134.7344 64.5231 L134.8906 67.6169 L135.0313 67.6169 Q135.5625 66.0231 136.9375 65.1638 Q138.3125 64.2888 140.0156 64.2888 Q140.2969 64.2888 140.5469 64.32 Q140.8125 64.3356 141.0469 64.3669 L141.0469 66.82 Q140.8125 66.7888 140.5469 66.7731 Q140.2969 66.7575 140.0156 66.7575 Q138.5469 66.7575 137.4531 67.3044 Q136.375 67.8513 135.75 68.8669 Q135.125 69.8669 134.9844 71.3044 L134.9844 81.32 Z" /><path fill="rgb(110,118,129)" d="M143.4375 81.32 L143.4375 57.9919 L146.0625 57.9919 L146.0625 73.1013 L147.5625 71.4919 L154.4688 64.5231 L157.7344 64.5231 L151.1719 71.0231 L158.0313 81.32 L154.9844 81.32 L150.4063 74.445 L149.3906 72.7731 L146.0625 76.0075 L146.0625 81.32 Z" /></g></g><g transform="matrix(1 0 0 1 840 0)"><image href="https://avatars.githubusercontent.com/u/848102?s=200" width="200" height="200" /></g></g><g transform="matrix(1 0 0 1 80 456)"><g><g><g><svg width="32" height="32" viewBox="0 0 16 16" fill="#6e7681"><path d="M2 5.5a3.5 3.5 0 1 1 5.898 2.549 5.508 5.508 0 0 1 3.034 4.084.75.75 0 1 1-1.482.235 4 4 0 0 0-7.9 0 .75.75 0 0 1-1.482-.236A5.507 5.507 0 0 1 3.102 8.05 3.493 3.493 0 0 1 2 5.5ZM11 4a3.001 3.001 0 0 1 2.22 5.018 5.01 5.01 0 0 1 2.56 3.012.749.749 0 0 1-.885.954.752.752 0 0 1-.549-.514 3.507 3.507 0 0 0-2.522-2.372.75.75 0 0 1-.574-.73v-.352a.75.75 0 0 1 .416-.672A1.5 1.5 0 0 0 11 5.5.75.75 0 0 1 11 4Zm-5.5-.5a2 2 0 1 0-.001 3.999A2 2 0 0 0 5.5 3.5Z"></path></svg></g><g transform="matrix(1 0 0 1 50 0)"><path fill="rgb(0,0,0)" d="M9.5 28.6325 Q7.6875 28.6325 6.1875 28.1794 Q4.7031 27.7106 3.625 26.8669 Q2.5625 26.0231 2 24.8513 Q1.4375 23.6794 1.4375 22.2419 Q1.4375 20.8044 2.0313 19.6325 Q2.625 18.4606 3.7031 17.6325 Q4.7969 16.8044 6.375 16.4763 L6.375 16.3513 Q5.1875 16.0075 4.2344 15.2575 Q3.2969 14.4919 2.7656 13.4138 Q2.2344 12.32 2.2344 11.07 Q2.2344 9.1794 3.125 7.82 Q4.0313 6.4606 5.6719 5.7262 Q7.3281 4.9919 9.5 4.9919 Q11.7813 4.9919 13.3906 5.7419 Q15.0156 6.4919 15.8906 7.8513 Q16.7656 9.2106 16.7656 11.07 Q16.7656 12.32 16.2344 13.4138 Q15.7188 14.4919 14.7813 15.2575 Q13.8594 16.0075 12.6406 16.3513 L12.6406 16.4763 Q14.2031 16.8044 15.3125 17.6325 Q16.4219 18.4606 16.9844 19.6325 Q17.5625 20.8044 17.5625 22.2419 Q17.5625 24.1638 16.5313 25.6013 Q15.5156 27.0388 13.7031 27.8356 Q11.9063 28.6325 9.5 28.6325 ZM9.5 26.3669 Q11.1406 26.3669 12.3281 25.82 Q13.5313 25.2731 14.1875 24.2731 Q14.8438 23.2575 14.8438 21.9138 Q14.8438 20.7106 14.3125 19.7106 Q13.7969 18.695 12.625 18.0856 Q11.4531 17.4763 9.5 17.4763 Q7.5781 17.4763 6.3906 18.0856 Q5.2188 18.695 4.6875 19.7106 Q4.1563 20.7106 4.1563 21.9138 Q4.1563 23.2575 4.8125 24.2731 Q5.4688 25.2731 6.6875 25.82 Q7.9063 26.3669 9.5 26.3669 ZM9.5 15.3981 Q11.2344 15.3981 12.2656 14.8044 Q13.3125 14.2106 13.7656 13.2731 Q14.2344 12.32 14.2344 11.2575 Q14.2344 10.2106 13.7813 9.2888 Q13.3438 8.3513 12.2969 7.7575 Q11.2656 7.1638 9.5 7.1638 Q7.75 7.1638 6.7031 7.7575 Q5.6563 8.3513 5.2031 9.2888 Q4.7656 10.2106 4.7656 11.2575 Q4.7656 12.07 5.0156 12.8044 Q5.2813 13.5388 5.8438 14.1325 Q6.4063 14.7263 7.2969 15.07 Q8.1875 15.3981 9.5 15.3981 Z" /><path fill="rgb(0,0,0)" d="M27.7969 28.6013 Q25.5625 28.6013 23.875 27.7731 Q22.2031 26.945 21.25 25.4606 Q20.3125 23.9606 20.2188 21.9763 L22.7813 21.9763 Q22.8438 23.2888 23.4844 24.2888 Q24.125 25.2731 25.2344 25.82 Q26.3594 26.3669 27.7969 26.3669 Q30.2031 26.3669 31.625 25.1169 Q33.0469 23.8669 33.0469 21.7575 Q33.0469 20.32 32.4531 19.3513 Q31.8594 18.3669 30.7969 17.8981 Q29.75 17.4138 28.3125 17.4138 L26.0469 17.4138 L26.0469 15.3981 L27.8906 15.3981 Q29.5 15.3981 30.6094 14.8669 Q31.7344 14.3356 32.3125 13.3981 Q32.8906 12.445 32.8906 11.195 Q32.8906 9.9138 32.3125 9.0231 Q31.7344 8.1325 30.6563 7.6481 Q29.5938 7.1638 28.1875 7.1638 Q26.75 7.1638 25.6563 7.7106 Q24.5625 8.2575 23.9375 9.2419 Q23.3125 10.2106 23.2188 11.5231 L20.6563 11.5231 Q20.7656 9.57 21.7188 8.0856 Q22.6875 6.5856 24.3594 5.7731 Q26.0469 4.9606 28.25 4.9606 Q30.4531 4.9606 32.0781 5.7106 Q33.7188 6.4606 34.6094 7.8044 Q35.5156 9.1481 35.5156 10.9763 Q35.5156 12.2888 35 13.3513 Q34.4844 14.3981 33.5938 15.1325 Q32.7031 15.8669 31.5469 16.2263 L31.5469 16.3825 Q32.8594 16.6794 33.7969 17.4606 Q34.75 18.2419 35.2188 19.3825 Q35.7031 20.5075 35.7031 21.945 Q35.7031 23.9606 34.7031 25.4763 Q33.7188 26.9763 31.9375 27.7888 Q30.1719 28.6013 27.7969 28.6013 Z" /></g></g><g transform="matrix(1 0 0 1 50 44)"><path fill="rgb(110,118,129)" d="M9.7031 21.4588 Q7.75 21.4588 6.1719 20.8338 Q4.6094 20.2088 3.4688 19.0369 Q2.3281 17.8494 1.7188 16.1931 Q1.125 14.5369 1.125 12.5056 Q1.125 10.4431 1.7344 8.7869 Q2.3594 7.1306 3.4844 5.9744 Q4.6094 4.8025 6.1719 4.1775 Q7.75 3.5525 9.7031 3.5525 Q11.8125 3.5525 13.4688 4.2869 Q15.1406 5.0212 16.1875 6.365 Q17.25 7.7088 17.5469 9.5213 L15.4531 9.5213 Q15.2188 8.3025 14.4375 7.365 Q13.6563 6.4275 12.4531 5.8962 Q11.25 5.3494 9.7031 5.3494 Q7.7031 5.3494 6.2656 6.2244 Q4.8281 7.0838 4.0469 8.6775 Q3.2656 10.2713 3.2656 12.5056 Q3.2656 14.1619 3.7188 15.49 Q4.1719 16.8181 5 17.7556 Q5.8281 18.6775 7.0156 19.1775 Q8.2031 19.6619 9.7031 19.6619 Q11.25 19.6619 12.4688 19.1306 Q13.6875 18.5994 14.4531 17.6463 Q15.2344 16.6775 15.4531 15.3806 L17.5469 15.3806 Q17.2969 17.2244 16.2344 18.5994 Q15.1875 19.9744 13.5 20.7244 Q11.8281 21.4588 9.7031 21.4588 Z" /><path fill="rgb(110,118,129)" d="M25.1563 21.4588 Q23.7813 21.4588 22.6563 21.0056 Q21.5469 20.5369 20.7344 19.6775 Q19.9375 18.8181 19.5 17.6306 Q19.0625 16.4431 19.0625 14.9744 Q19.0625 13.0369 19.7969 11.5681 Q20.5469 10.0994 21.9219 9.2713 Q23.2969 8.4431 25.1563 8.4431 Q26.5156 8.4431 27.625 8.8963 Q28.75 9.3338 29.5469 10.2088 Q30.3438 11.0681 30.7656 12.2713 Q31.2031 13.4588 31.2031 14.9588 Q31.2031 16.865 30.4688 18.3338 Q29.7344 19.8025 28.3594 20.6306 Q27 21.4588 25.1563 21.4588 ZM25.1563 19.7713 Q26.375 19.7713 27.2813 19.2088 Q28.2031 18.6463 28.7188 17.5525 Q29.2344 16.4588 29.2344 14.9588 Q29.2344 13.8181 28.9375 12.9275 Q28.6563 12.0213 28.125 11.3963 Q27.5938 10.7556 26.8438 10.4275 Q26.1094 10.0838 25.1563 10.0838 Q23.9219 10.0838 23 10.6775 Q22.0781 11.2556 21.5625 12.3338 Q21.0469 13.4119 21.0469 14.9744 Q21.0469 16.0838 21.3125 16.99 Q21.5938 17.8806 22.1406 18.5056 Q22.6875 19.1306 23.4531 19.4588 Q24.2188 19.7713 25.1563 19.7713 Z" /><path fill="rgb(110,118,129)" d="M33.8281 21.24 L33.8281 8.6463 L35.6719 8.6463 L35.75 11.2556 L35.8906 11.2556 Q36.4688 9.865 37.6563 9.1619 Q38.8594 8.4431 40.2813 8.4431 Q41.2656 8.4431 42.0938 8.74 Q42.9219 9.0213 43.5313 9.6775 Q44.1406 10.3181 44.4688 11.3494 Q44.8125 12.365 44.8125 13.8181 L44.8125 21.24 L42.875 21.24 L42.875 14.2088 Q42.875 12.7869 42.5156 11.8806 Q42.1719 10.9744 41.4688 10.5369 Q40.7656 10.0838 39.6563 10.0838 Q38.4844 10.0838 37.5938 10.6619 Q36.7031 11.2244 36.2188 12.2088 Q35.75 13.1775 35.75 14.4275 L35.75 21.24 Z" /><path fill="rgb(110,118,129)" d="M52.6406 21.24 Q51.3125 21.24 50.625 20.615 Q49.9531 19.9744 49.9531 18.5213 L49.9531 10.2556 L47.5 10.2556 L47.5 8.6463 L49.9531 8.6463 L49.9531 4.865 L51.875 4.615 L51.875 8.6463 L54.7969 8.6463 L54.7969 10.2556 L51.8906 10.2556 L51.8906 18.2088 Q51.8906 18.9431 52.2188 19.2713 Q52.5625 19.5838 53.2188 19.5838 L54.8438 19.5838 L54.8438 21.24 Z" /><path fill="rgb(110,118,129)" d="M56.8281 21.24 L56.8281 8.6463 L58.5469 8.6463 L58.6719 10.9744 L58.7656 10.9744 Q59.1719 9.7713 60.2031 9.1306 Q61.2344 8.4744 62.5156 8.4744 Q62.7344 8.4744 62.9219 8.49 Q63.1094 8.49 63.2813 8.5213 L63.2813 10.365 Q63.1094 10.3494 62.9219 10.3338 Q62.7344 10.3181 62.5156 10.3181 Q61.4063 10.3181 60.5938 10.7244 Q59.7813 11.1306 59.3125 11.8963 Q58.8438 12.6463 58.75 13.7244 L58.75 21.24 Z" /><path fill="rgb(110,118,129)" d="M65.8281 21.24 L65.8281 8.6463 L67.7656 8.6463 L67.7656 21.24 ZM66.8281 6.8963 Q66.2656 6.8963 65.9219 6.5994 Q65.5938 6.3025 65.5938 5.8025 Q65.5938 5.3025 65.9219 5.0212 Q66.2656 4.7244 66.8281 4.7244 Q67.3594 4.7244 67.6875 5.0212 Q68.0313 5.3025 68.0313 5.8025 Q68.0313 6.3025 67.6875 6.5994 Q67.3594 6.8963 66.8281 6.8963 Z" /><path fill="rgb(110,118,129)" d="M78.2813 21.4588 Q77.2031 21.4588 76.2969 21.115 Q75.4063 20.7556 74.7813 20.1306 Q74.1719 19.49 73.8594 18.6463 L73.75 18.6463 L73.6406 21.24 L71.8281 21.24 L71.8281 3.74 L73.7656 3.74 L73.7656 11.2556 L73.8594 11.2556 Q74.2969 9.99 75.4688 9.2244 Q76.6406 8.4431 78.2813 8.4431 Q79.4375 8.4431 80.3906 8.8963 Q81.3594 9.3338 82.0469 10.1775 Q82.75 11.0213 83.1094 12.24 Q83.4844 13.4431 83.4844 14.9588 Q83.4844 16.99 82.8281 18.4588 Q82.1875 19.9275 81.0156 20.6931 Q79.8438 21.4588 78.2813 21.4588 ZM77.6094 19.8494 Q78.8281 19.8494 79.6875 19.2713 Q80.5625 18.6931 81.0313 17.5994 Q81.5156 16.49 81.5156 14.9588 Q81.5156 13.8025 81.2344 12.9119 Q80.9688 12.0056 80.4688 11.365 Q79.9844 10.7244 79.2656 10.4119 Q78.5469 10.0838 77.6563 10.0838 Q76.4063 10.0838 75.5469 10.6463 Q74.6875 11.2088 74.2188 12.1619 Q73.7656 13.0994 73.7656 14.1775 L73.7656 15.7244 Q73.7656 16.8181 74.2188 17.7556 Q74.6875 18.6931 75.5469 19.2713 Q76.4063 19.8494 77.6094 19.8494 Z" /><path fill="rgb(110,118,129)" d="M90.1719 21.4588 Q88.75 21.4588 87.7188 20.8963 Q86.6875 20.3338 86.1406 19.1931 Q85.6094 18.0525 85.6094 16.365 L85.6094 8.6463 L87.5469 8.6463 L87.5469 15.8806 Q87.5469 17.1306 87.875 18.0056 Q88.2188 18.8806 88.9531 19.3494 Q89.6875 19.8025 90.8438 19.8025 Q91.9688 19.8025 92.8281 19.2556 Q93.7031 18.6931 94.1719 17.6931 Q94.6563 16.6775 94.6563 15.365 L94.6563 8.6463 L96.5938 8.6463 L96.5938 21.24 L94.75 21.24 L94.6563 18.5525 L94.5156 18.5525 Q94.0313 19.8963 92.8594 20.6775 Q91.6875 21.4588 90.1719 21.4588 Z" /><path fill="rgb(110,118,129)" d="M104.6406 21.24 Q103.3125 21.24 102.625 20.615 Q101.9531 19.9744 101.9531 18.5213 L101.9531 10.2556 L99.5 10.2556 L99.5 8.6463 L101.9531 8.6463 L101.9531 4.865 L103.875 4.615 L103.875 8.6463 L106.7969 8.6463 L106.7969 10.2556 L103.8906 10.2556 L103.8906 18.2088 Q103.8906 18.9431 104.2188 19.2713 Q104.5625 19.5838 105.2188 19.5838 L106.8438 19.5838 L106.8438 21.24 Z" /><path fill="rgb(110,118,129)" d="M114.1563 21.4588 Q112.7813 21.4588 111.6563 21.0056 Q110.5469 20.5369 109.7344 19.6775 Q108.9375 18.8181 108.5 17.6306 Q108.0625 16.4431 108.0625 14.9744 Q108.0625 13.0369 108.7969 11.5681 Q109.5469 10.0994 110.9219 9.2713 Q112.2969 8.4431 114.1563 8.4431 Q115.5156 8.4431 116.625 8.8963 Q117.75 9.3338 118.5469 10.2088 Q119.3438 11.0681 119.7656 12.2713 Q120.2031 13.4588 120.2031 14.9588 Q120.2031 16.865 119.4688 18.3338 Q118.7344 19.8025 117.3594 20.6306 Q116 21.4588 114.1563 21.4588 ZM114.1563 19.7713 Q115.375 19.7713 116.2813 19.2088 Q117.2031 18.6463 117.7188 17.5525 Q118.2344 16.4588 118.2344 14.9588 Q118.2344 13.8181 117.9375 12.9275 Q117.6563 12.0213 117.125 11.3963 Q116.5938 10.7556 115.8438 10.4275 Q115.1094 10.0838 114.1563 10.0838 Q112.9219 10.0838 112 10.6775 Q111.0781 11.2556 110.5625 12.3338 Q110.0469 13.4119 110.0469 14.9744 Q110.0469 16.0838 110.3125 16.99 Q110.5938 17.8806 111.1406 18.5056 Q111.6875 19.1306 112.4531 19.4588 Q113.2188 19.7713 114.1563 19.7713 Z" /><path fill="rgb(110,118,129)" d="M122.8281 21.24 L122.8281 8.6463 L124.5469 8.6463 L124.6719 10.9744 L124.7656 10.9744 Q125.1719 9.7713 126.2031 9.1306 Q127.2344 8.4744 128.5156 8.4744 Q128.7344 8.4744 128.9219 8.49 Q129.1094 8.49 129.2813 8.5213 L129.2813 10.365 Q129.1094 10.3494 128.9219 10.3338 Q128.7344 10.3181 128.5156 10.3181 Q127.4063 10.3181 126.5938 10.7244 Q125.7813 11.1306 125.3125 11.8963 Q124.8438 12.6463 124.75 13.7244 L124.75 21.24 Z" /><path fill="rgb(110,118,129)" d="M136.125 21.4744 Q134.9375 21.4744 134 21.1931 Q133.0781 20.8963 132.4063 20.3806 Q131.7344 19.865 131.375 19.1463 Q131.0156 18.4119 130.9844 17.5213 L132.9063 17.5213 Q132.9531 18.365 133.375 18.9275 Q133.7969 19.49 134.5156 19.7556 Q135.25 20.0213 136.1719 20.0213 Q137.625 20.0213 138.4063 19.4744 Q139.1875 18.9119 139.1875 17.8963 Q139.1875 17.1306 138.8438 16.7244 Q138.5156 16.3025 137.8125 16.0681 Q137.125 15.8181 136 15.6463 Q134.4375 15.4275 133.4063 15.0525 Q132.375 14.6619 131.8438 13.9588 Q131.3125 13.2556 131.3125 12.0994 Q131.3125 10.99 131.9063 10.1619 Q132.5156 9.3338 133.5938 8.865 Q134.6875 8.3963 136.125 8.3963 Q137.5781 8.3963 138.6406 8.865 Q139.7031 9.3338 140.2969 10.1931 Q140.8906 11.0369 140.9219 12.2088 L139.0313 12.2088 Q138.9688 11.3806 138.5938 10.865 Q138.2344 10.3494 137.5938 10.115 Q136.9531 9.8806 136.0938 9.8806 Q134.75 9.8806 134 10.4431 Q133.2656 10.99 133.2656 11.8963 Q133.2656 12.5994 133.625 13.0213 Q133.9844 13.4431 134.7344 13.6775 Q135.5 13.8963 136.6406 14.0681 Q138.0625 14.2556 139.0781 14.6463 Q140.1094 15.0213 140.625 15.7556 Q141.1563 16.49 141.1563 17.74 Q141.1563 18.9431 140.5313 19.7713 Q139.9063 20.5994 138.7656 21.0369 Q137.625 21.4744 136.125 21.4744 Z" /></g></g><g transform="matrix(1 0 0 1 238 0)"><g><g><svg width="32" height="32" viewBox="0 0 16 16" fill="#6e7681"><path d="M8 9.5a1.5 1.5 0 1 0 0-3 1.5 1.5 0 0 0 0 3Z"></path><path d="M8 0a8 8 0 1 1 0 16A8 8 0 0 1 8 0ZM1.5 8a6.5 6.5 0 1 0 13 0 6.5 6.5 0 0 0-13 0Z"></path></svg></g><g transform="matrix(1 0 0 1 50 0)"><path fill="rgb(0,0,0)" d="M9.25 28.6013 Q7.0781 28.6013 5.4219 27.7888 Q3.7813 26.9763 2.8281 25.5231 Q1.8906 24.07 1.7656 22.1481 L4.3594 22.1481 Q4.4844 23.3981 5.125 24.3356 Q5.7656 25.2731 6.8281 25.8044 Q7.9063 26.3356 9.3125 26.3356 Q11.0469 26.3356 12.2188 25.6481 Q13.4063 24.9606 14.0313 23.7419 Q14.6563 22.5231 14.6563 20.9606 Q14.6563 19.2575 14 18.0856 Q13.3438 16.8981 12.1719 16.2575 Q11.0156 15.6169 9.4375 15.6169 Q7.75 15.6169 6.4844 16.3669 Q5.2188 17.1169 4.7031 18.3356 L2.0781 18.3356 L3.0469 5.2419 L16.7656 5.2419 L16.7656 7.5544 L5.2813 7.5544 L4.6094 15.8669 L4.7344 15.9294 Q5.4688 14.8513 6.8906 14.1638 Q8.3125 13.4763 10.0469 13.4763 Q11.6875 13.4763 13.0313 14.0075 Q14.375 14.5231 15.3281 15.5075 Q16.2813 16.4763 16.8125 17.8356 Q17.3438 19.195 17.3438 20.8669 Q17.3438 23.1638 16.3281 24.9138 Q15.3281 26.6638 13.5 27.6325 Q11.6875 28.6013 9.25 28.6013 Z" /><path fill="rgb(0,0,0)" d="M27.7969 28.6013 Q25.5625 28.6013 23.875 27.7731 Q22.2031 26.945 21.25 25.4606 Q20.3125 23.9606 20.2188 21.9763 L22.7813 21.9763 Q22.8438 23.2888 23.4844 24.2888 Q24.125 25.2731 25.2344 25.82 Q26.3594 26.3669 27.7969 26.3669 Q30.2031 26.3669 31.625 25.1169 Q33.0469 23.8669 33.0469 21.7575 Q33.0469 20.32 32.4531 19.3513 Q31.8594 18.3669 30.7969 17.8981 Q29.75 17.4138 28.3125 17.4138 L26.0469 17.4138 L26.0469 15.3981 L27.8906 15.3981 Q29.5 15.3981 30.6094 14.8669 Q31.7344 14.3356 32.3125 13.3981 Q32.8906 12.445 32.8906 11.195 Q32.8906 9.9138 32.3125 9.0231 Q31.7344 8.1325 30.6563 7.6481 Q29.5938 7.1638 28.1875 7.1638 Q26.75 7.1638 25.6563 7.7106 Q24.5625 8.2575 23.9375 9.2419 Q23.3125 10.2106 23.2188 11.5231 L20.6563 11.5231 Q20.7656 9.57 21.7188 8.0856 Q22.6875 6.5856 24.3594 5.7731 Q26.0469 4.9606 28.25 4.9606 Q30.4531 4.9606 32.0781 5.7106 Q33.7188 6.4606 34.6094 7.8044 Q35.5156 9.1481 35.5156 10.9763 Q35.5156 12.2888 35 13.3513 Q34.4844 14.3981 33.5938 15.1325 Q32.7031 15.8669 31.5469 16.2263 L31.5469 16.3825 Q32.8594 16.6794 33.7969 17.4606 Q34.75 18.2419 35.2188 19.3825 Q35.7031 20.5075 35.7031 21.945 Q35.7031 23.9606 34.7031 25.4763 Q33.7188 26.9763 31.9375 27.7888 Q30.1719 28.6013 27.7969 28.6013 Z" /></g></g><g transform="matrix(1 0 0 1 50 44)"><path fill="rgb(110,118,129)" d="M2.0156 21.24 L2.0156 3.74 L4.0625 3.74 L4.0625 21.24 Z" /><path fill="rgb(110,118,129)" d="M12.125 21.4744 Q10.9375 21.4744 10 21.1931 Q9.0781 20.8963 8.4063 20.3806 Q7.7344 19.865 7.375 19.1463 Q7.0156 18.4119 6.9844 17.5213 L8.9063 17.5213 Q8.9531 18.365 9.375 18.9275 Q9.7969 19.49 10.5156 19.7556 Q11.25 20.0213 12.1719 20.0213 Q13.625 20.0213 14.4063 19.4744 Q15.1875 18.9119 15.1875 17.8963 Q15.1875 17.1306 14.8438 16.7244 Q14.5156 16.3025 13.8125 16.0681 Q13.125 15.8181 12 15.6463 Q10.4375 15.4275 9.4063 15.0525 Q8.375 14.6619 7.8438 13.9588 Q7.3125 13.2556 7.3125 12.0994 Q7.3125 10.99 7.9063 10.1619 Q8.5156 9.3338 9.5938 8.865 Q10.6875 8.3963 12.125 8.3963 Q13.5781 8.3963 14.6406 8.865 Q15.7031 9.3338 16.2969 10.1931 Q16.8906 11.0369 16.9219 12.2088 L15.0313 12.2088 Q14.9688 11.3806 14.5938 10.865 Q14.2344 10.3494 13.5938 10.115 Q12.9531 9.8806 12.0938 9.8806 Q10.75 9.8806 10 10.4431 Q9.2656 10.99 9.2656 11.8963 Q9.2656 12.5994 9.625 13.0213 Q9.9844 13.4431 10.7344 13.6775 Q11.5 13.8963 12.6406 14.0681 Q14.0625 14.2556 15.0781 14.6463 Q16.1094 15.0213 16.625 15.7556 Q17.1563 16.49 17.1563 17.74 Q17.1563 18.9431 16.5313 19.7713 Q15.9063 20.5994 14.7656 21.0369 Q13.625 21.4744 12.125 21.4744 Z" /><path fill="rgb(110,118,129)" d="M24.125 21.4744 Q22.9375 21.4744 22 21.1931 Q21.0781 20.8963 20.4063 20.3806 Q19.7344 19.865 19.375 19.1463 Q19.0156 18.4119 18.9844 17.5213 L20.9063 17.5213 Q20.9531 18.365 21.375 18.9275 Q21.7969 19.49 22.5156 19.7556 Q23.25 20.0213 24.1719 20.0213 Q25.625 20.0213 26.4063 19.4744 Q27.1875 18.9119 27.1875 17.8963 Q27.1875 17.1306 26.8438 16.7244 Q26.5156 16.3025 25.8125 16.0681 Q25.125 15.8181 24 15.6463 Q22.4375 15.4275 21.4063 15.0525 Q20.375 14.6619 19.8438 13.9588 Q19.3125 13.2556 19.3125 12.0994 Q19.3125 10.99 19.9063 10.1619 Q20.5156 9.3338 21.5938 8.865 Q22.6875 8.3963 24.125 8.3963 Q25.5781 8.3963 26.6406 8.865 Q27.7031 9.3338 28.2969 10.1931 Q28.8906 11.0369 28.9219 12.2088 L27.0313 12.2088 Q26.9688 11.3806 26.5938 10.865 Q26.2344 10.3494 25.5938 10.115 Q24.9531 9.8806 24.0938 9.8806 Q22.75 9.8806 22 10.4431 Q21.2656 10.99 21.2656 11.8963 Q21.2656 12.5994 21.625 13.0213 Q21.9844 13.4431 22.7344 13.6775 Q23.5 13.8963 24.6406 14.0681 Q26.0625 14.2556 27.0781 14.6463 Q28.1094 15.0213 28.625 15.7556 Q29.1563 16.49 29.1563 17.74 Q29.1563 18.9431 28.5313 19.7713 Q27.9063 20.5994 26.7656 21.0369 Q25.625 21.4744 24.125 21.4744 Z" /><path fill="rgb(110,118,129)" d="M36.1719 21.4588 Q34.75 21.4588 33.7188 20.8963 Q32.6875 20.3338 32.1406 19.1931 Q31.6094 18.0525 31.6094 16.365 L31.6094 8.6463 L33.5469 8.6463 L33.5469 15.8806 Q33.5469 17.1306 33.875 18.0056 Q34.2188 18.8806 34.9531 19.3494 Q35.6875 19.8025 36.8438 19.8025 Q37.9688 19.8025 38.8281 19.2556 Q39.7031 18.6931 40.1719 17.6931 Q40.6563 16.6775 40.6563 15.365 L40.6563 8.6463 L42.5938 8.6463 L42.5938 21.24 L40.75 21.24 L40.6563 18.5525 L40.5156 18.5525 Q40.0313 19.8963 38.8594 20.6775 Q37.6875 21.4588 36.1719 21.4588 Z" /><path fill="rgb(110,118,129)" d="M51.6406 21.4588 Q49.8438 21.4588 48.5625 20.6619 Q47.2813 19.865 46.6094 18.4119 Q45.9375 16.9431 45.9375 15.0056 Q45.9375 13.0056 46.6094 11.5369 Q47.2813 10.0525 48.5313 9.2556 Q49.7813 8.4431 51.5781 8.4431 Q53.5 8.4431 54.7344 9.3181 Q55.9844 10.1775 56.5469 11.7244 Q57.125 13.2556 56.9688 15.2713 L47.8281 15.2713 Q47.8594 16.8181 48.3281 17.865 Q48.7969 18.9119 49.6406 19.4275 Q50.5 19.9431 51.6406 19.9431 Q52.9844 19.9431 53.8438 19.3181 Q54.7188 18.6931 55.0156 17.6619 L56.875 17.6619 Q56.6563 18.865 55.9219 19.7244 Q55.2031 20.5681 54.0938 21.0213 Q52.9844 21.4588 51.6406 21.4588 ZM47.8594 14.1619 L47.6406 13.865 L55.2969 13.865 L55.0781 14.2088 Q55.1094 12.6931 54.6719 11.7713 Q54.2344 10.8494 53.4219 10.4119 Q52.625 9.9588 51.5781 9.9588 Q50.4688 9.9588 49.6563 10.4431 Q48.8438 10.9275 48.375 11.8494 Q47.9063 12.7713 47.8594 14.1619 Z" /><path fill="rgb(110,118,129)" d="M64.125 21.4744 Q62.9375 21.4744 62 21.1931 Q61.0781 20.8963 60.4063 20.3806 Q59.7344 19.865 59.375 19.1463 Q59.0156 18.4119 58.9844 17.5213 L60.9063 17.5213 Q60.9531 18.365 61.375 18.9275 Q61.7969 19.49 62.5156 19.7556 Q63.25 20.0213 64.1719 20.0213 Q65.625 20.0213 66.4063 19.4744 Q67.1875 18.9119 67.1875 17.8963 Q67.1875 17.1306 66.8438 16.7244 Q66.5156 16.3025 65.8125 16.0681 Q65.125 15.8181 64 15.6463 Q62.4375 15.4275 61.4063 15.0525 Q60.375 14.6619 59.8438 13.9588 Q59.3125 13.2556 59.3125 12.0994 Q59.3125 10.99 59.9063 10.1619 Q60.5156 9.3338 61.5938 8.865 Q62.6875 8.3963 64.125 8.3963 Q65.5781 8.3963 66.6406 8.865 Q67.7031 9.3338 68.2969 10.1931 Q68.8906 11.0369 68.9219 12.2088 L67.0313 12.2088 Q66.9688 11.3806 66.5938 10.865 Q66.2344 10.3494 65.5938 10.115 Q64.9531 9.8806 64.0938 9.8806 Q62.75 9.8806 62 10.4431 Q61.2656 10.99 61.2656 11.8963 Q61.2656 12.5994 61.625 13.0213 Q61.9844 13.4431 62.7344 13.6775 Q63.5 13.8963 64.6406 14.0681 Q66.0625 14.2556 67.0781 14.6463 Q68.1094 15.0213 68.625 15.7556 Q69.1563 16.49 69.1563 17.74 Q69.1563 18.9431 68.5313 19.7713 Q67.9063 20.5994 66.7656 21.0369 Q65.625 21.4744 64.125 21.4744 Z" /></g></g><g transform="matrix(1 0 0 1 405 0)"><g><g><svg width="32" height="32" viewBox="0 0 16 16" fill="#6e7681"><path d="M1.75 1h8.5c.966 0 1.75.784 1.75 1.75v5.5A1.75 1.75 0 0 1 10.25 10H7.061l-2.574 2.573A1.458 1.458 0 0 1 2 11.543V10h-.25A1.75 1.75 0 0 1 0 8.25v-5.5C0 1.784.784 1 1.75 1ZM1.5 2.75v5.5c0 .138.112.25.25.25h1a.75.75 0 0 1 .75.75v2.19l2.72-2.72a.749.749 0 0 1 .53-.22h3.5a.25.25 0 0 0 .25-.25v-5.5a.25.25 0 0 0-.25-.25h-8.5a.25.25 0 0 0-.25.25Zm13 2a.25.25 0 0 0-.25-.25h-.5a.75.75 0 0 1 0-1.5h.5c.966 0 1.75.784 1.75 1.75v5.5A1.75 1.75 0 0 1 14.25 12H14v1.543a1.458 1.458 0 0 1-2.487 1.03L9.22 12.28a.749.749 0 0 1 .326-1.275.749.749 0 0 1 .734.215l2.22 2.22v-2.19a.75.75 0 0 1 .75-.75h1a.25.25 0 0 0 .25-.25Z"></path></svg></g><g transform="matrix(1 0 0 1 50 0)"><path fill="rgb(0,0,0)" d="M9.9531 28.57 Q7.9063 28.57 6.3438 27.8981 Q4.7969 27.2263 3.7656 25.8825 Q2.75 24.5388 2.25 22.5856 Q1.7656 20.6325 1.7656 18.1169 Q1.7656 14.6638 2.2813 12.1794 Q2.8125 9.695 3.875 8.1013 Q4.9531 6.4919 6.5625 5.7262 Q8.1875 4.9606 10.375 4.9606 Q11.9063 4.9606 13.2031 5.3825 Q14.5 5.7887 15.4688 6.57 Q16.4531 7.3356 17.0469 8.4294 Q17.6563 9.5075 17.7969 10.8513 L15.2031 10.8513 Q15.0469 9.8825 14.625 9.2106 Q14.2031 8.5388 13.5625 8.1013 Q12.9219 7.6481 12.0938 7.4294 Q11.2656 7.195 10.3438 7.195 Q8.4844 7.195 7.3125 7.9606 Q6.1406 8.7106 5.4844 10.0856 Q4.8281 11.4606 4.5469 13.3825 Q4.2813 15.2888 4.25 17.6638 L4.3906 17.6638 Q4.7656 16.4763 5.625 15.6013 Q6.5 14.7263 7.7813 14.2263 Q9.0625 13.7263 10.6563 13.7263 Q12.8281 13.7263 14.4531 14.6325 Q16.0938 15.5231 17 17.1638 Q17.9219 18.7888 17.9219 20.9606 Q17.9219 23.2575 16.9063 24.9919 Q15.9063 26.7263 14.1094 27.6481 Q12.3125 28.57 9.9531 28.57 ZM10.0469 26.3044 Q11.6094 26.3044 12.7813 25.6481 Q13.9531 24.9919 14.6094 23.7731 Q15.2656 22.5544 15.2656 20.9919 Q15.2656 19.3669 14.625 18.2106 Q13.9844 17.0544 12.8125 16.4138 Q11.6406 15.7731 10.0781 15.7731 Q8.4219 15.7731 7.2188 16.4919 Q6.0156 17.2106 5.375 18.4138 Q4.7344 19.6169 4.7344 21.1481 Q4.7344 22.7263 5.4063 23.8981 Q6.0781 25.0544 7.2813 25.6794 Q8.4844 26.3044 10.0469 26.3044 Z" /></g></g><g transform="matrix(1 0 0 1 50 44)"><path fill="rgb(110,118,129)" d="M2.0156 21.24 L2.0156 3.74 L8.875 3.74 Q11.375 3.74 13.125 4.8337 Q14.875 5.9275 15.7969 7.8963 Q16.7344 9.865 16.7344 12.5056 Q16.7344 14.4744 16.2031 16.0838 Q15.6719 17.6931 14.6563 18.8494 Q13.6563 19.99 12.2031 20.615 Q10.75 21.24 8.875 21.24 ZM4.0625 19.4431 L8.6406 19.4431 Q10.0156 19.4431 11.1094 19.0056 Q12.2188 18.5525 13 17.6619 Q13.7969 16.7713 14.2188 15.4744 Q14.6406 14.1619 14.6406 12.4588 Q14.6406 10.1463 13.875 8.615 Q13.125 7.0838 11.7813 6.3181 Q10.4375 5.5369 8.6406 5.5369 L4.0625 5.5369 Z" /><path fill="rgb(110,118,129)" d="M19.8281 21.24 L19.8281 8.6463 L21.7656 8.6463 L21.7656 21.24 ZM20.8281 6.8963 Q20.2656 6.8963 19.9219 6.5994 Q19.5938 6.3025 19.5938 5.8025 Q19.5938 5.3025 19.9219 5.0212 Q20.2656 4.7244 20.8281 4.7244 Q21.3594 4.7244 21.6875 5.0212 Q22.0313 5.3025 22.0313 5.8025 Q22.0313 6.3025 21.6875 6.5994 Q21.3594 6.8963 20.8281 6.8963 Z" /><path fill="rgb(110,118,129)" d="M29.125 21.4744 Q27.9375 21.4744 27 21.1931 Q26.0781 20.8963 25.4063 20.3806 Q24.7344 19.865 24.375 19.1463 Q24.0156 18.4119 23.9844 17.5213 L25.9063 17.5213 Q25.9531 18.365 26.375 18.9275 Q26.7969 19.49 27.5156 19.7556 Q28.25 20.0213 29.1719 20.0213 Q30.625 20.0213 31.4063 19.4744 Q32.1875 18.9119 32.1875 17.8963 Q32.1875 17.1306 31.8438 16.7244 Q31.5156 16.3025 30.8125 16.0681 Q30.125 15.8181 29 15.6463 Q27.4375 15.4275 26.4063 15.0525 Q25.375 14.6619 24.8438 13.9588 Q24.3125 13.2556 24.3125 12.0994 Q24.3125 10.99 24.9063 10.1619 Q25.5156 9.3338 26.5938 8.865 Q27.6875 8.3963 29.125 8.3963 Q30.5781 8.3963 31.6406 8.865 Q32.7031 9.3338 33.2969 10.1931 Q33.8906 11.0369 33.9219 12.2088 L32.0313 12.2088 Q31.9688 11.3806 31.5938 10.865 Q31.2344 10.3494 30.5938 10.115 Q29.9531 9.8806 29.0938 9.8806 Q27.75 9.8806 27 10.4431 Q26.2656 10.99 26.2656 11.8963 Q26.2656 12.5994 26.625 13.0213 Q26.9844 13.4431 27.7344 13.6775 Q28.5 13.8963 29.6406 14.0681 Q31.0625 14.2556 32.0781 14.6463 Q33.1094 15.0213 33.625 15.7556 Q34.1563 16.49 34.1563 17.74 Q34.1563 18.9431 33.5313 19.7713 Q32.9063 20.5994 31.7656 21.0369 Q30.625 21.4744 29.125 21.4744 Z" /><path fill="rgb(110,118,129)" d="M43.1094 21.4588 Q41.7344 21.4588 40.6094 20.99 Q39.5 20.5213 38.7031 19.6775 Q37.9219 18.8181 37.4844 17.6306 Q37.0625 16.4431 37.0625 14.9588 Q37.0625 13.49 37.4844 12.3025 Q37.9219 11.115 38.7344 10.2556 Q39.5469 9.3806 40.6719 8.9119 Q41.8125 8.4431 43.1719 8.4431 Q44.6406 8.4431 45.7813 8.9744 Q46.9375 9.5056 47.6563 10.4744 Q48.3906 11.4275 48.5313 12.6931 L46.625 12.6931 Q46.4375 11.8338 45.9375 11.2556 Q45.4375 10.6775 44.7031 10.3963 Q43.9844 10.0994 43.125 10.0994 Q42.1406 10.0994 41.375 10.4588 Q40.625 10.8025 40.0938 11.4588 Q39.5781 12.0994 39.2969 12.99 Q39.0313 13.865 39.0313 14.9744 Q39.0313 16.49 39.5469 17.5681 Q40.0625 18.6463 40.9688 19.2244 Q41.875 19.8025 43.1094 19.8025 Q44.0938 19.8025 44.8281 19.4431 Q45.5781 19.0838 46.0625 18.4744 Q46.5625 17.8494 46.7031 16.99 L48.5938 16.99 Q48.4531 18.3338 47.7031 19.3494 Q46.9688 20.3494 45.7813 20.9119 Q44.5938 21.4588 43.1094 21.4588 Z" /><path fill="rgb(110,118,129)" d="M55.1719 21.4588 Q53.75 21.4588 52.7188 20.8963 Q51.6875 20.3338 51.1406 19.1931 Q50.6094 18.0525 50.6094 16.365 L50.6094 8.6463 L52.5469 8.6463 L52.5469 15.8806 Q52.5469 17.1306 52.875 18.0056 Q53.2188 18.8806 53.9531 19.3494 Q54.6875 19.8025 55.8438 19.8025 Q56.9688 19.8025 57.8281 19.2556 Q58.7031 18.6931 59.1719 17.6931 Q59.6563 16.6775 59.6563 15.365 L59.6563 8.6463 L61.5938 8.6463 L61.5938 21.24 L59.75 21.24 L59.6563 18.5525 L59.5156 18.5525 Q59.0313 19.8963 57.8594 20.6775 Q56.6875 21.4588 55.1719 21.4588 Z" /><path fill="rgb(110,118,129)" d="M69.125 21.4744 Q67.9375 21.4744 67 21.1931 Q66.0781 20.8963 65.4063 20.3806 Q64.7344 19.865 64.375 19.1463 Q64.0156 18.4119 63.9844 17.5213 L65.9063 17.5213 Q65.9531 18.365 66.375 18.9275 Q66.7969 19.49 67.5156 19.7556 Q68.25 20.0213 69.1719 20.0213 Q70.625 20.0213 71.4063 19.4744 Q72.1875 18.9119 72.1875 17.8963 Q72.1875 17.1306 71.8438 16.7244 Q71.5156 16.3025 70.8125 16.0681 Q70.125 15.8181 69 15.6463 Q67.4375 15.4275 66.4063 15.0525 Q65.375 14.6619 64.8438 13.9588 Q64.3125 13.2556 64.3125 12.0994 Q64.3125 10.99 64.9063 10.1619 Q65.5156 9.3338 66.5938 8.865 Q67.6875 8.3963 69.125 8.3963 Q70.5781 8.3963 71.6406 8.865 Q72.7031 9.3338 73.2969 10.1931 Q73.8906 11.0369 73.9219 12.2088 L72.0313 12.2088 Q71.9688 11.3806 71.5938 10.865 Q71.2344 10.3494 70.5938 10.115 Q69.9531 9.8806 69.0938 9.8806 Q67.75 9.8806 67 10.4431 Q66.2656 10.99 66.2656 11.8963 Q66.2656 12.5994 66.625 13.0213 Q66.9844 13.4431 67.7344 13.6775 Q68.5 13.8963 69.6406 14.0681 Q71.0625 14.2556 72.0781 14.6463 Q73.1094 15.0213 73.625 15.7556 Q74.1563 16.49 74.1563 17.74 Q74.1563 18.9431 73.5313 19.7713 Q72.9063 20.5994 71.7656 21.0369 Q70.625 21.4744 69.125 21.4744 Z" /><path fill="rgb(110,118,129)" d="M82.125 21.4744 Q80.9375 21.4744 80 21.1931 Q79.0781 20.8963 78.4063 20.3806 Q77.7344 19.865 77.375 19.1463 Q77.0156 18.4119 76.9844 17.5213 L78.9063 17.5213 Q78.9531 18.365 79.375 18.9275 Q79.7969 19.49 80.5156 19.7556 Q81.25 20.0213 82.1719 20.0213 Q83.625 20.0213 84.4063 19.4744 Q85.1875 18.9119 85.1875 17.8963 Q85.1875 17.1306 84.8438 16.7244 Q84.5156 16.3025 83.8125 16.0681 Q83.125 15.8181 82 15.6463 Q80.4375 15.4275 79.4063 15.0525 Q78.375 14.6619 77.8438 13.9588 Q77.3125 13.2556 77.3125 12.0994 Q77.3125 10.99 77.9063 10.1619 Q78.5156 9.3338 79.5938 8.865 Q80.6875 8.3963 82.125 8.3963 Q83.5781 8.3963 84.6406 8.865 Q85.7031 9.3338 86.2969 10.1931 Q86.8906 11.0369 86.9219 12.2088 L85.0313 12.2088 Q84.9688 11.3806 84.5938 10.865 Q84.2344 10.3494 83.5938 10.115 Q82.9531 9.8806 82.0938 9.8806 Q80.75 9.8806 80 10.4431 Q79.2656 10.99 79.2656 11.8963 Q79.2656 12.5994 79.625 13.0213 Q79.9844 13.4431 80.7344 13.6775 Q81.5 13.8963 82.6406 14.0681 Q84.0625 14.2556 85.0781 14.6463 Q86.1094 15.0213 86.625 15.7556 Q87.1563 16.49 87.1563 17.74 Q87.1563 18.9431 86.5313 19.7713 Q85.9063 20.5994 84.7656 21.0369 Q83.625 21.4744 82.125 21.4744 Z" /><path fill="rgb(110,118,129)" d="M89.8281 21.24 L89.8281 8.6463 L91.7656 8.6463 L91.7656 21.24 ZM90.8281 6.8963 Q90.2656 6.8963 89.9219 6.5994 Q89.5938 6.3025 89.5938 5.8025 Q89.5938 5.3025 89.9219 5.0212 Q90.2656 4.7244 90.8281 4.7244 Q91.3594 4.7244 91.6875 5.0212 Q92.0313 5.3025 92.0313 5.8025 Q92.0313 6.3025 91.6875 6.5994 Q91.3594 6.8963 90.8281 6.8963 Z" /><path fill="rgb(110,118,129)" d="M101.1563 21.4588 Q99.7813 21.4588 98.6563 21.0056 Q97.5469 20.5369 96.7344 19.6775 Q95.9375 18.8181 95.5 17.6306 Q95.0625 16.4431 95.0625 14.9744 Q95.0625 13.0369 95.7969 11.5681 Q96.5469 10.0994 97.9219 9.2713 Q99.2969 8.4431 101.1563 8.4431 Q102.5156 8.4431 103.625 8.8963 Q104.75 9.3338 105.5469 10.2088 Q106.3438 11.0681 106.7656 12.2713 Q107.2031 13.4588 107.2031 14.9588 Q107.2031 16.865 106.4688 18.3338 Q105.7344 19.8025 104.3594 20.6306 Q103 21.4588 101.1563 21.4588 ZM101.1563 19.7713 Q102.375 19.7713 103.2813 19.2088 Q104.2031 18.6463 104.7188 17.5525 Q105.2344 16.4588 105.2344 14.9588 Q105.2344 13.8181 104.9375 12.9275 Q104.6563 12.0213 104.125 11.3963 Q103.5938 10.7556 102.8438 10.4275 Q102.1094 10.0838 101.1563 10.0838 Q99.9219 10.0838 99 10.6775 Q98.0781 11.2556 97.5625 12.3338 Q97.0469 13.4119 97.0469 14.9744 Q97.0469 16.0838 97.3125 16.99 Q97.5938 17.8806 98.1406 18.5056 Q98.6875 19.1306 99.4531 19.4588 Q100.2188 19.7713 101.1563 19.7713 Z" /><path fill="rgb(110,118,129)" d="M109.8281 21.24 L109.8281 8.6463 L111.6719 8.6463 L111.75 11.2556 L111.8906 11.2556 Q112.4688 9.865 113.6563 9.1619 Q114.8594 8.4431 116.2813 8.4431 Q117.2656 8.4431 118.0938 8.74 Q118.9219 9.0213 119.5313 9.6775 Q120.1406 10.3181 120.4688 11.3494 Q120.8125 12.365 120.8125 13.8181 L120.8125 21.24 L118.875 21.24 L118.875 14.2088 Q118.875 12.7869 118.5156 11.8806 Q118.1719 10.9744 117.4688 10.5369 Q116.7656 10.0838 115.6563 10.0838 Q114.4844 10.0838 113.5938 10.6619 Q112.7031 11.2244 112.2188 12.2088 Q111.75 13.1775 111.75 14.4275 L111.75 21.24 Z" /><path fill="rgb(110,118,129)" d="M128.125 21.4744 Q126.9375 21.4744 126 21.1931 Q125.0781 20.8963 124.4063 20.3806 Q123.7344 19.865 123.375 19.1463 Q123.0156 18.4119 122.9844 17.5213 L124.9063 17.5213 Q124.9531 18.365 125.375 18.9275 Q125.7969 19.49 126.5156 19.7556 Q127.25 20.0213 128.1719 20.0213 Q129.625 20.0213 130.4063 19.4744 Q131.1875 18.9119 131.1875 17.8963 Q131.1875 17.1306 130.8438 16.7244 Q130.5156 16.3025 129.8125 16.0681 Q129.125 15.8181 128 15.6463 Q126.4375 15.4275 125.4063 15.0525 Q124.375 14.6619 123.8438 13.9588 Q123.3125 13.2556 123.3125 12.0994 Q123.3125 10.99 123.9063 10.1619 Q124.5156 9.3338 125.5938 8.865 Q126.6875 8.3963 128.125 8.3963 Q129.5781 8.3963 130.6406 8.865 Q131.7031 9.3338 132.2969 10.1931 Q132.8906 11.0369 132.9219 12.2088 L131.0313 12.2088 Q130.9688 11.3806 130.5938 10.865 Q130.2344 10.3494 129.5938 10.115 Q128.9531 9.8806 128.0938 9.8806 Q126.75 9.8806 126 10.4431 Q125.2656 10.99 125.2656 11.8963 Q125.2656 12.5994 125.625 13.0213 Q125.9844 13.4431 126.7344 13.6775 Q127.5 13.8963 128.6406 14.0681 Q130.0625 14.2556 131.0781 14.6463 Q132.1094 15.0213 132.625 15.7556 Q133.1563 16.49 133.1563 17.74 Q133.1563 18.9431 132.5313 19.7713 Q131.9063 20.5994 130.7656 21.0369 Q129.625 21.4744 128.125 21.4744 Z" /></g></g><g transform="matrix(1 0 0 1 636 0)"><g><g><svg width="32" height="32" viewBox="0 0 16 16" fill="#6e7681"><path d="M8 .25a.75.75 0 0 1 .673.418l1.882 3.815 4.21.612a.75.75 0 0 1 .416 1.279l-3.046 2.97.719 4.192a.751.751 0 0 1-1.088.791L8 12.347l-3.766 1.98a.75.75 0 0 1-1.088-.79l.72-4.194L.818 6.374a.75.75 0 0 1 .416-1.28l4.21-.611L7.327.668A.75.75 0 0 1 8 .25Zm0 2.445L6.615 5.5a.75.75 0 0 1-.564.41l-3.097.45 2.24 2.184a.75.75 0 0 1 .216.664l-.528 3.084 2.769-1.456a.75.75 0 0 1 .698 0l2.77 1.456-.53-3.084a.75.75 0 0 1 .216-.664l2.24-2.183-3.096-.45a.75.75 0 0 1-.564-.41L8 2.694Z"></path></svg></g><g transform="matrix(1 0 0 1 50 0)"><path fill="rgb(0,0,0)" d="M9.5 28.6325 Q7.6875 28.6325 6.1875 28.1794 Q4.7031 27.7106 3.625 26.8669 Q2.5625 26.0231 2 24.8513 Q1.4375 23.6794 1.4375 22.2419 Q1.4375 20.8044 2.0313 19.6325 Q2.625 18.4606 3.7031 17.6325 Q4.7969 16.8044 6.375 16.4763 L6.375 16.3513 Q5.1875 16.0075 4.2344 15.2575 Q3.2969 14.4919 2.7656 13.4138 Q2.2344 12.32 2.2344 11.07 Q2.2344 9.1794 3.125 7.82 Q4.0313 6.4606 5.6719 5.7262 Q7.3281 4.9919 9.5 4.9919 Q11.7813 4.9919 13.3906 5.7419 Q15.0156 6.4919 15.8906 7.8513 Q16.7656 9.2106 16.7656 11.07 Q16.7656 12.32 16.2344 13.4138 Q15.7188 14.4919 14.7813 15.2575 Q13.8594 16.0075 12.6406 16.3513 L12.6406 16.4763 Q14.2031 16.8044 15.3125 17.6325 Q16.4219 18.4606 16.9844 19.6325 Q17.5625 20.8044 17.5625 22.2419 Q17.5625 24.1638 16.5313 25.6013 Q15.5156 27.0388 13.7031 27.8356 Q11.9063 28.6325 9.5 28.6325 ZM9.5 26.3669 Q11.1406 26.3669 12.3281 25.82 Q13.5313 25.2731 14.1875 24.2731 Q14.8438 23.2575 14.8438 21.9138 Q14.8438 20.7106 14.3125 19.7106 Q13.7969 18.695 12.625 18.0856 Q11.4531 17.4763 9.5 17.4763 Q7.5781 17.4763 6.3906 18.0856 Q5.2188 18.695 4.6875 19.7106 Q4.1563 20.7106 4.1563 21.9138 Q4.1563 23.2575 4.8125 24.2731 Q5.4688 25.2731 6.6875 25.82 Q7.9063 26.3669 9.5 26.3669 ZM9.5 15.3981 Q11.2344 15.3981 12.2656 14.8044 Q13.3125 14.2106 13.7656 13.2731 Q14.2344 12.32 14.2344 11.2575 Q14.2344 10.2106 13.7813 9.2888 Q13.3438 8.3513 12.2969 7.7575 Q11.2656 7.1638 9.5 7.1638 Q7.75 7.1638 6.7031 7.7575 Q5.6563 8.3513 5.2031 9.2888 Q4.7656 10.2106 4.7656 11.2575 Q4.7656 12.07 5.0156 12.8044 Q5.2813 13.5388 5.8438 14.1325 Q6.4063 14.7263 7.2969 15.07 Q8.1875 15.3981 9.5 15.3981 Z" /><path fill="rgb(0,0,0)" d="M21.4375 28.32 L21.4375 4.9919 L24.0625 4.9919 L24.0625 20.1013 L25.5625 18.4919 L32.4688 11.5231 L35.7344 11.5231 L29.1719 18.0231 L36.0313 28.32 L32.9844 28.32 L28.4063 21.445 L27.3906 19.7731 L24.0625 23.0075 L24.0625 28.32 Z" /></g></g><g transform="matrix(1 0 0 1 50 44)"><path fill="rgb(110,118,129)" d="M7.8281 21.4588 Q5.5469 21.4588 4.0469 20.74 Q2.5469 20.0213 1.7969 18.74 Q1.0625 17.4431 1.0313 15.7869 L3.1406 15.7869 Q3.1719 17.0213 3.6875 17.9275 Q4.2031 18.8338 5.2188 19.3181 Q6.2344 19.8025 7.8438 19.8025 Q9.2188 19.8025 10.2188 19.4744 Q11.2344 19.1306 11.7969 18.4431 Q12.3594 17.74 12.3594 16.6619 Q12.3594 15.8181 12.0938 15.2556 Q11.8281 14.6931 11.25 14.3181 Q10.6875 13.9275 9.75 13.6463 Q8.8281 13.365 7.4844 13.1463 Q6 12.865 4.8594 12.5056 Q3.7188 12.1463 2.9531 11.615 Q2.2031 11.0681 1.8125 10.2713 Q1.4375 9.4744 1.4375 8.3806 Q1.4375 6.9119 2.1719 5.8181 Q2.9219 4.7244 4.3125 4.1462 Q5.7188 3.5525 7.6875 3.5525 Q9.6719 3.5525 11.0469 4.1931 Q12.4375 4.8181 13.1563 5.9587 Q13.8906 7.0838 13.9219 8.615 L11.8281 8.615 Q11.7813 7.4588 11.25 6.6931 Q10.7344 5.9275 9.7969 5.5525 Q8.8594 5.1619 7.5781 5.1619 Q6.3125 5.1619 5.4063 5.5212 Q4.5156 5.8806 4.0313 6.5369 Q3.5469 7.1775 3.5469 8.115 Q3.5469 9.115 4.0156 9.6931 Q4.4844 10.2713 5.5625 10.6306 Q6.6406 10.99 8.5 11.3025 Q9.6719 11.49 10.75 11.8025 Q11.8281 12.115 12.6719 12.6775 Q13.5156 13.2244 14 14.1463 Q14.5 15.0681 14.5 16.5369 Q14.5 18.0056 13.7188 19.115 Q12.9531 20.2088 11.4688 20.8338 Q9.9844 21.4588 7.8281 21.4588 Z" /><path fill="rgb(110,118,129)" d="M20.6406 21.24 Q19.3125 21.24 18.625 20.615 Q17.9531 19.9744 17.9531 18.5213 L17.9531 10.2556 L15.5 10.2556 L15.5 8.6463 L17.9531 8.6463 L17.9531 4.865 L19.875 4.615 L19.875 8.6463 L22.7969 8.6463 L22.7969 10.2556 L19.8906 10.2556 L19.8906 18.2088 Q19.8906 18.9431 20.2188 19.2713 Q20.5625 19.5838 21.2188 19.5838 L22.8438 19.5838 L22.8438 21.24 Z" /><path fill="rgb(110,118,129)" d="M29.3594 21.4588 Q28.2031 21.4588 27.2344 21.0056 Q26.2656 20.5369 25.5625 19.7088 Q24.875 18.865 24.5 17.6619 Q24.125 16.4588 24.125 14.9275 Q24.125 12.8806 24.7813 11.4431 Q25.4531 9.99 26.625 9.2088 Q27.7969 8.4275 29.3594 8.4275 Q30.4375 8.4275 31.3281 8.7713 Q32.2344 9.115 32.8594 9.74 Q33.4844 10.365 33.7813 11.2244 L33.8906 11.2244 L33.9688 8.6463 L35.8125 8.6463 L35.8125 21.24 L33.9688 21.24 L33.8906 18.6306 L33.7813 18.6306 Q33.3125 19.8963 32.1406 20.6775 Q30.9844 21.4588 29.3594 21.4588 ZM29.9844 19.8181 Q31.2344 19.8181 32.0938 19.24 Q32.9531 18.6463 33.4063 17.7088 Q33.875 16.7713 33.875 15.6931 L33.875 14.1619 Q33.875 13.0525 33.4063 12.115 Q32.9375 11.1619 32.0781 10.5994 Q31.2344 10.0369 30.0156 10.0369 Q28.8125 10.0369 27.9375 10.6306 Q27.0625 11.2088 26.5938 12.3025 Q26.125 13.3963 26.125 14.9275 Q26.125 16.4431 26.5938 17.5525 Q27.0625 18.6463 27.9219 19.24 Q28.7813 19.8181 29.9844 19.8181 Z" /><path fill="rgb(110,118,129)" d="M39.8281 21.24 L39.8281 8.6463 L41.5469 8.6463 L41.6719 10.9744 L41.7656 10.9744 Q42.1719 9.7713 43.2031 9.1306 Q44.2344 8.4744 45.5156 8.4744 Q45.7344 8.4744 45.9219 8.49 Q46.1094 8.49 46.2813 8.5213 L46.2813 10.365 Q46.1094 10.3494 45.9219 10.3338 Q45.7344 10.3181 45.5156 10.3181 Q44.4063 10.3181 43.5938 10.7244 Q42.7813 11.1306 42.3125 11.8963 Q41.8438 12.6463 41.75 13.7244 L41.75 21.24 Z" /><path fill="rgb(110,118,129)" d="M53.125 21.4744 Q51.9375 21.4744 51 21.1931 Q50.0781 20.8963 49.4063 20.3806 Q48.7344 19.865 48.375 19.1463 Q48.0156 18.4119 47.9844 17.5213 L49.9063 17.5213 Q49.9531 18.365 50.375 18.9275 Q50.7969 19.49 51.5156 19.7556 Q52.25 20.0213 53.1719 20.0213 Q54.625 20.0213 55.4063 19.4744 Q56.1875 18.9119 56.1875 17.8963 Q56.1875 17.1306 55.8438 16.7244 Q55.5156 16.3025 54.8125 16.0681 Q54.125 15.8181 53 15.6463 Q51.4375 15.4275 50.4063 15.0525 Q49.375 14.6619 48.8438 13.9588 Q48.3125 13.2556 48.3125 12.0994 Q48.3125 10.99 48.9063 10.1619 Q49.5156 9.3338 50.5938 8.865 Q51.6875 8.3963 53.125 8.3963 Q54.5781 8.3963 55.6406 8.865 Q56.7031 9.3338 57.2969 10.1931 Q57.8906 11.0369 57.9219 12.2088 L56.0313 12.2088 Q55.9688 11.3806 55.5938 10.865 Q55.2344 10.3494 54.5938 10.115 Q53.9531 9.8806 53.0938 9.8806 Q51.75 9.8806 51 10.4431 Q50.2656 10.99 50.2656 11.8963 Q50.2656 12.5994 50.625 13.0213 Q50.9844 13.4431 51.7344 13.6775 Q52.5 13.8963 53.6406 14.0681 Q55.0625 14.2556 56.0781 14.6463 Q57.1094 15.0213 57.625 15.7556 Q58.1563 16.49 58.1563 17.74 Q58.1563 18.9431 57.5313 19.7713 Q56.9063 20.5994 55.7656 21.0369 Q54.625 21.4744 53.125 21.4744 Z" /></g></g><g transform="matrix(1 0 0 1 791 0)"><g><g><svg width="32" height="32" viewBox="0 0 16 16" fill="#6e7681"><path d="M5 5.372v.878c0 .414.336.75.75.75h4.5a.75.75 0 0 0 .75-.75v-.878a2.25 2.25 0 1 1 1.5 0v.878a2.25 2.25 0 0 1-2.25 2.25h-1.5v2.128a2.251 2.251 0 1 1-1.5 0V8.5h-1.5A2.25 2.25 0 0 1 3.5 6.25v-.878a2.25 2.25 0 1 1 1.5 0ZM5 3.25a.75.75 0 1 0-1.5 0 .75.75 0 0 0 1.5 0Zm6.75.75a.75.75 0 1 0 0-1.5.75.75 0 0 0 0 1.5Zm-3 8.75a.75.75 0 1 0-1.5 0 .75.75 0 0 0 1.5 0Z"></path></svg></g><g transform="matrix(1 0 0 1 50 0)"><path fill="rgb(0,0,0)" d="M9.5313 4.9606 Q11.5781 4.9606 13.125 5.6325 Q14.6875 6.3044 15.7031 7.6481 Q16.7344 8.9919 17.25 10.945 Q17.7656 12.8981 17.7656 15.4294 Q17.7656 18.8825 17.2188 21.3669 Q16.6719 23.8356 15.5938 25.445 Q14.5313 27.0388 12.9063 27.8044 Q11.2969 28.57 9.125 28.57 Q7.5781 28.57 6.2813 28.1638 Q4.9844 27.7419 4.0156 26.9763 Q3.0469 26.2106 2.4375 25.1325 Q1.8281 24.0388 1.7031 22.695 L4.2813 22.695 Q4.4531 23.6481 4.8594 24.32 Q5.2813 24.9919 5.9375 25.445 Q6.5938 25.8825 7.4063 26.1169 Q8.2188 26.3356 9.1563 26.3356 Q11.0156 26.3356 12.1719 25.5856 Q13.3438 24.8356 14 23.4606 Q14.6563 22.0856 14.9219 20.1638 Q15.2031 18.2419 15.2344 15.8669 L15.1094 15.8669 Q14.7188 17.0231 13.8438 17.9294 Q12.9844 18.82 11.7188 19.32 Q10.4688 19.8044 8.8281 19.8044 Q6.6563 19.8044 5.0156 18.9138 Q3.3906 18.0231 2.4688 16.3981 Q1.5625 14.7575 1.5625 12.57 Q1.5625 10.2419 2.5625 8.5388 Q3.5781 6.82 5.3906 5.8981 Q7.2031 4.9606 9.5313 4.9606 ZM9.4375 7.2263 Q7.9063 7.2263 6.7188 7.8825 Q5.5313 8.5388 4.875 9.7419 Q4.2188 10.945 4.2188 12.5388 Q4.2188 14.1481 4.8594 15.32 Q5.5 16.4763 6.6875 17.1169 Q7.875 17.7575 9.4063 17.7575 Q11.0781 17.7575 12.2656 17.0388 Q13.4688 16.32 14.1094 15.1013 Q14.75 13.8825 14.75 12.3825 Q14.75 10.7888 14.0781 9.6325 Q13.4063 8.4763 12.2188 7.8513 Q11.0469 7.2263 9.4375 7.2263 Z" /><path fill="rgb(0,0,0)" d="M28.25 28.6013 Q26.0781 28.6013 24.4219 27.7888 Q22.7813 26.9763 21.8281 25.5231 Q20.8906 24.07 20.7656 22.1481 L23.3594 22.1481 Q23.4844 23.3981 24.125 24.3356 Q24.7656 25.2731 25.8281 25.8044 Q26.9063 26.3356 28.3125 26.3356 Q30.0469 26.3356 31.2188 25.6481 Q32.4063 24.9606 33.0313 23.7419 Q33.6563 22.5231 33.6563 20.9606 Q33.6563 19.2575 33 18.0856 Q32.3438 16.8981 31.1719 16.2575 Q30.0156 15.6169 28.4375 15.6169 Q26.75 15.6169 25.4844 16.3669 Q24.2188 17.1169 23.7031 18.3356 L21.0781 18.3356 L22.0469 5.2419 L35.7656 5.2419 L35.7656 7.5544 L24.2813 7.5544 L23.6094 15.8669 L23.7344 15.9294 Q24.4688 14.8513 25.8906 14.1638 Q27.3125 13.4763 29.0469 13.4763 Q30.6875 13.4763 32.0313 14.0075 Q33.375 14.5231 34.3281 15.5075 Q35.2813 16.4763 35.8125 17.8356 Q36.3438 19.195 36.3438 20.8669 Q36.3438 23.1638 35.3281 24.9138 Q34.3281 26.6638 32.5 27.6325 Q30.6875 28.6013 28.25 28.6013 Z" /><path fill="rgb(0,0,0)" d="M48.8281 28.6013 Q46.9375 28.6013 45.4219 27.8513 Q43.9219 27.1013 42.8594 25.6169 Q41.8125 24.1325 41.25 21.9294 Q40.7031 19.7106 40.7031 16.8044 Q40.7031 12.7731 41.7188 10.1638 Q42.75 7.5544 44.5625 6.2731 Q46.3906 4.9919 48.8281 4.9919 Q50.75 4.9919 52.2344 5.7419 Q53.7188 6.4919 54.7656 7.9919 Q55.8281 9.4763 56.3906 11.6794 Q56.9531 13.8825 56.9531 16.8044 Q56.9531 20.8356 55.9375 23.445 Q54.9375 26.0544 53.0938 27.3356 Q51.25 28.6013 48.8281 28.6013 ZM48.8281 26.3981 Q50.2344 26.3981 51.2656 25.7731 Q52.3125 25.1481 52.9688 23.9606 Q53.625 22.7575 53.9531 20.945 Q54.2969 19.1325 54.2969 16.8044 Q54.2969 14.4606 53.9531 12.6794 Q53.625 10.8825 52.9688 9.6638 Q52.3125 8.445 51.2656 7.8356 Q50.2344 7.2263 48.8281 7.2263 Q47.4219 7.2263 46.375 7.8356 Q45.3438 8.445 44.6875 9.6638 Q44.0313 10.8825 43.7031 12.6794 Q43.3906 14.4606 43.3906 16.8044 Q43.3906 19.1325 43.7031 20.945 Q44.0313 22.7575 44.6875 23.9606 Q45.3438 25.1481 46.375 25.7731 Q47.4219 26.3981 48.8281 26.3981 Z" /></g></g><g transform="matrix(1 0 0 1 50 44)"><path fill="rgb(110,118,129)" d="M2.0156 21.24 L2.0156 3.74 L13.9844 3.74 L13.9844 5.5369 L3.6406 5.5369 L4.0625 5.1306 L4.0625 21.24 ZM3.3906 13.4588 L3.3906 11.7556 L13.0313 11.7556 L13.0313 13.4588 Z" /><path fill="rgb(110,118,129)" d="M21.1563 21.4588 Q19.7813 21.4588 18.6563 21.0056 Q17.5469 20.5369 16.7344 19.6775 Q15.9375 18.8181 15.5 17.6306 Q15.0625 16.4431 15.0625 14.9744 Q15.0625 13.0369 15.7969 11.5681 Q16.5469 10.0994 17.9219 9.2713 Q19.2969 8.4431 21.1563 8.4431 Q22.5156 8.4431 23.625 8.8963 Q24.75 9.3338 25.5469 10.2088 Q26.3438 11.0681 26.7656 12.2713 Q27.2031 13.4588 27.2031 14.9588 Q27.2031 16.865 26.4688 18.3338 Q25.7344 19.8025 24.3594 20.6306 Q23 21.4588 21.1563 21.4588 ZM21.1563 19.7713 Q22.375 19.7713 23.2813 19.2088 Q24.2031 18.6463 24.7188 17.5525 Q25.2344 16.4588 25.2344 14.9588 Q25.2344 13.8181 24.9375 12.9275 Q24.6563 12.0213 24.125 11.3963 Q23.5938 10.7556 22.8438 10.4275 Q22.1094 10.0838 21.1563 10.0838 Q19.9219 10.0838 19 10.6775 Q18.0781 11.2556 17.5625 12.3338 Q17.0469 13.4119 17.0469 14.9744 Q17.0469 16.0838 17.3125 16.99 Q17.5938 17.8806 18.1406 18.5056 Q18.6875 19.1306 19.4531 19.4588 Q20.2188 19.7713 21.1563 19.7713 Z" /><path fill="rgb(110,118,129)" d="M29.8281 21.24 L29.8281 8.6463 L31.5469 8.6463 L31.6719 10.9744 L31.7656 10.9744 Q32.1719 9.7713 33.2031 9.1306 Q34.2344 8.4744 35.5156 8.4744 Q35.7344 8.4744 35.9219 8.49 Q36.1094 8.49 36.2813 8.5213 L36.2813 10.365 Q36.1094 10.3494 35.9219 10.3338 Q35.7344 10.3181 35.5156 10.3181 Q34.4063 10.3181 33.5938 10.7244 Q32.7813 11.1306 32.3125 11.8963 Q31.8438 12.6463 31.75 13.7244 L31.75 21.24 Z" /><path fill="rgb(110,118,129)" d="M38.8281 21.24 L38.8281 3.74 L40.7969 3.74 L40.7969 15.0681 L41.9219 13.865 L47.1094 8.6463 L49.5469 8.6463 L44.625 13.5056 L49.7656 21.24 L47.4844 21.24 L44.0625 16.0838 L43.2813 14.8338 L40.7969 17.2556 L40.7969 21.24 Z" /><path fill="rgb(110,118,129)" d="M56.125 21.4744 Q54.9375 21.4744 54 21.1931 Q53.0781 20.8963 52.4063 20.3806 Q51.7344 19.865 51.375 19.1463 Q51.0156 18.4119 50.9844 17.5213 L52.9063 17.5213 Q52.9531 18.365 53.375 18.9275 Q53.7969 19.49 54.5156 19.7556 Q55.25 20.0213 56.1719 20.0213 Q57.625 20.0213 58.4063 19.4744 Q59.1875 18.9119 59.1875 17.8963 Q59.1875 17.1306 58.8438 16.7244 Q58.5156 16.3025 57.8125 16.0681 Q57.125 15.8181 56 15.6463 Q54.4375 15.4275 53.4063 15.0525 Q52.375 14.6619 51.8438 13.9588 Q51.3125 13.2556 51.3125 12.0994 Q51.3125 10.99 51.9063 10.1619 Q52.5156 9.3338 53.5938 8.865 Q54.6875 8.3963 56.125 8.3963 Q57.5781 8.3963 58.6406 8.865 Q59.7031 9.3338 60.2969 10.1931 Q60.8906 11.0369 60.9219 12.2088 L59.0313 12.2088 Q58.9688 11.3806 58.5938 10.865 Q58.2344 10.3494 57.5938 10.115 Q56.9531 9.8806 56.0938 9.8806 Q54.75 9.8806 54 10.4431 Q53.2656 10.99 53.2656 11.8963 Q53.2656 12.5994 53.625 13.0213 Q53.9844 13.4431 54.7344 13.6775 Q55.5 13.8963 56.6406 14.0681 Q58.0625 14.2556 59.0781 14.6463 Q60.1094 15.0213 60.625 15.7556 Q61.1563 16.49 61.1563 17.74 Q61.1563 18.9431 60.5313 19.7713 Q59.9063 20.5994 58.7656 21.0369 Q57.625 21.4744 56.125 21.4744 Z" /></g></g><g transform="matrix(1 0 0 1 950 11)"><g transform="matrix(1 0 0 1 44 0)"><svg viewBox="0 0 16 16" width="46" height="46" fill="#8492af"><path d="M8 0c4.42 0 8 3.58 8 8a8.013 8.013 0 0 1-5.45 7.59c-.4.08-.55-.17-.55-.38 0-.27.01-1.13.01-2.2 0-.75-.25-1.23-.54-1.48 1.78-.2 3.65-.88 3.65-3.95 0-.88-.31-1.59-.82-2.15.08-.2.36-1.02-.08-2.12 0 0-.67-.22-2.2.82-.64-.18-1.32-.27-2-.27-.68 0-1.36.09-2 .27-1.53-1.03-2.2-.82-2.2-.82-.44 1.1-.16 1.92-.08 2.12-.51.56-.82 1.28-.82 2.15 0 3.06 1.86 3.75 3.64 3.95-.23.2-.44.55-.51 1.07-.46.21-1.61.55-2.33-.66-.15-.24-.6-.83-1.23-.82-.67.01-.27.38.01.53.34.19.73.9.82 1.13.16.45.68 1.31 2.69.94 0 .67.01 1.3.01 1.49 0 .21-.15.45-.55.38A7.995 7.995 0 0 1 0 8c0-4.42 3.58-8 8-8Z"></path></svg></g></g></g><g transform="matrix(1 0 0 1 0 576)"><g><path d="M0 0 H734 V24 H0 Z" fill="rgb(243,75,125)" /></g><g transform="matrix(1 0 0 1 734 0)"><path d="M0 0 H210 V24 H0 Z" fill="rgb(227,76,37)" /></g><g transform="matrix(1 0 0 1 944 0)"><path d="M0 0 H107 V24 H0 Z" fill="rgb(53,114,165)" /></g><g transform="matrix(1 0 0 1 1051 0)"><path d="M0 0 H61 V24 H0 Z" fill="rgb(61,97,24)" /></g><g transform="matrix(1 0 0 1 1112 0)"><path d="M0 0 H39 V24 H0 Z" fill="rgb(176,114,25)" /></g><g transform="matrix(1 0 0 1 1151 0)"><path d="M0 0 H25 V24 H0 Z" fill="rgb(236,222,190)" /></g><g transform="matrix(1 0 0 1 1176 0)"><path d="M0 0 H16 V24 H0 Z" fill="rgb(85,85,85)" /></g><g transform="matrix(1 0 0 1 1192 0)"><path d="M0 0 H8 V24 H0 Z" fill="rgb(240,224,90)" /></g></g></g></svg>