<svg xmlns="http://www.w3.org/2000/svg" viewBox="0 0 1200 630"><g><path d="M0 0 H1200 V630 H0 Z" fill="url(#decal-70d00e10ccecb64e)" /><g filter="url(#decal-81c4773b4367c9b)"><path d="M0 0 H1200 V630 H0 Z" fill="rgb(0,0,0)" /></g><g opacity="0.65" transform="matrix(1 0 0 1 80 80)"><path fill="rgb(255,255,255)" d="M8.4219 11.3652 L6.5156 19.6934 L10.3438 19.6934 ZM5.9688 7.6934 L10.8906 7.6934 L16.4063 27.6934 L12.375 27.6934 L11.1094 22.6934 L5.7188 22.6934 L4.4844 27.6934 L0.4531 27.6934 Z" /><path fill="rgb(255,255,255)" d="M31.7344 17.6934 Q31.0781 16.6934 30.1875 16.1934 Q29.3125 15.6934 28.2656 15.6934 Q26.9844 15.6934 26.0313 16.1777 Q25.0938 16.6465 24.5781 17.5684 Q24.25 18.1309 24.1094 18.9277 Q23.9844 19.709 23.9844 21.334 L23.9844 27.6934 L19.9844 27.6934 L19.9844 12.6934 L23.9844 12.6934 L23.9844 15.209 Q24.5781 14.0059 25.7813 13.3496 Q27 12.6934 28.625 12.6934 Q29.4531 12.6934 30.2344 12.959 Q31.0313 13.209 31.7344 13.6934 Z" /><path fill="rgb(255,255,255)" d="M42.4375 8.6934 L42.4375 12.6934 L47.6719 12.6934 L47.6719 15.6934 L42.4375 15.6934 L42.4375 22.8184 Q42.4375 23.8184 42.9375 24.2559 Q43.4375 24.6934 44.5938 24.6934 L47.6719 24.6934 L47.6719 27.6934 L44.3125 27.6934 Q40.8594 27.6934 39.6406 26.6152 Q38.4219 25.5371 38.4219 22.6309 L38.4219 15.6934 L34.5156 15.6934 L34.5156 12.6934 L38.4219 12.6934 L38.4219 8.6934 Z" /><path fill="rgb(255,255,255)" d="M53.0156 12.6934 L60.9531 12.6934 L60.9531 24.6934 L65.9219 24.6934 L65.9219 27.6934 L51.9531 27.6934 L51.9531 24.6934 L56.9531 24.6934 L56.9531 15.6934 L53.0156 15.6934 ZM56.9531 4.6934 L60.9531 4.6934 L60.9531 9.6934 L56.9531 9.6934 Z" /><path fill="rgb(255,255,255)" d="M81.5 26.6934 Q80.4844 27.1934 79.3281 27.4434 Q78.1719 27.6934 76.8281 27.6934 Q73.2813 27.6934 71.2813 25.709 Q69.2969 23.7246 69.2969 20.209 Q69.2969 16.6777 71.2969 14.6934 Q73.3125 12.6934 76.8594 12.6934 Q78.0781 12.6934 79.2188 12.9434 Q80.3594 13.1777 81.5 13.6934 L81.5 16.6934 Q80.625 16.209 79.5781 15.959 Q78.5313 15.6934 77.4219 15.6934 Q75.4688 15.6934 74.4063 16.8652 Q73.3594 18.0371 73.3594 20.209 Q73.3594 22.3652 74.4063 23.5371 Q75.4688 24.6934 77.4219 24.6934 Q78.5781 24.6934 79.5781 24.4434 Q80.5938 24.1934 81.5 23.6934 Z" /><path fill="rgb(255,255,255)" d="M89.2969 21.4121 L89.2969 9.6934 L85.2344 9.6934 L85.2344 6.6934 L93.2969 6.6934 L93.2969 21.4121 Q93.2969 23.209 93.8594 23.959 Q94.4219 24.6934 95.7656 24.6934 L98.9531 24.6934 L98.9531 27.6934 L94.6406 27.6934 Q91.7813 27.6934 90.5313 26.2402 Q89.2969 24.7871 89.2969 21.4121 Z" /><path fill="rgb(255,255,255)" d="M116.0625 26.6934 Q114.6719 27.1934 113.2188 27.4434 Q111.7656 27.6934 110.1563 27.6934 Q106.3281 27.6934 104.2969 25.7715 Q102.2656 23.8496 102.2656 20.2402 Q102.2656 16.7559 104.2188 14.7246 Q106.1719 12.6934 109.5469 12.6934 Q112.9531 12.6934 114.8281 14.6309 Q116.7031 16.5527 116.7031 20.0684 L116.7031 21.6934 L106.3281 21.6934 Q106.3438 23.209 107.3906 23.959 Q108.4531 24.6934 110.5469 24.6934 Q111.9219 24.6934 113.25 24.459 Q114.5938 24.209 116.0625 23.6934 ZM112.6719 18.6934 Q112.6406 17.209 111.8594 16.459 Q111.0781 15.6934 109.5469 15.6934 Q108.1719 15.6934 107.3438 16.4746 Q106.5313 17.2559 106.375 18.6934 Z" /></g><g transform="matrix(1 0 0 1 80 170)"><path fill="rgb(255,255,255)" d="M8.0938 69.2109 L8.0938 63.6641 L23.1406 63.6641 Q28.8281 63.6641 31.7969 61.4453 Q34.7656 59.2266 34.7656 54.9609 L34.7656 54.8828 Q34.7656 51.9922 33.3906 50.0703 Q32.0313 48.1328 29.2969 47.1797 Q26.5781 46.2109 22.5313 46.2109 L8.0938 46.2109 L8.0938 40.8047 L20.75 40.8047 Q26.375 40.8047 29.3438 38.6641 Q32.3125 36.5078 32.3125 32.4609 L32.3125 32.3828 Q32.3125 28.6797 29.8125 26.7266 Q27.3125 24.7734 22.7188 24.7734 L8.0938 24.7734 L8.0938 19.2109 L24.1563 19.2109 Q28.5156 19.2109 31.7813 20.7734 Q35.0469 22.3359 36.875 25.1484 Q38.7031 27.9609 38.7031 31.7266 L38.7031 31.7891 Q38.7031 34.3984 37.5 36.7578 Q36.3125 39.1016 34.2344 40.7266 Q32.1719 42.3359 29.5313 42.7266 L29.5313 42.8672 Q33.1875 43.2891 35.8281 44.9453 Q38.4688 46.6016 39.875 49.2109 Q41.2813 51.8203 41.2813 55.1484 L41.2813 55.1953 Q41.2813 59.6016 39.2188 62.7266 Q37.1563 65.8516 33.3281 67.5391 Q29.5 69.2109 24.0781 69.2109 ZM4.9219 69.2109 L4.9219 19.2109 L11.25 19.2109 L11.25 69.2109 Z" /><path fill="rgb(255,255,255)" d="M59.4531 69.7109 Q55.4531 69.7109 52.6094 68.1016 Q49.7813 66.4766 48.2813 63.4922 Q46.7969 60.5078 46.7969 56.4609 L46.7969 33.2109 L52.9219 33.2109 L52.9219 55.3203 Q52.9219 59.6953 55 62.0234 Q57.0938 64.3359 61.3125 64.3359 Q63.5 64.3359 65.2344 63.6172 Q66.9844 62.8828 68.25 61.5703 Q69.5156 60.2422 70.1719 58.3672 Q70.8438 56.4922 70.8438 54.2266 L70.8438 33.2109 L76.9688 33.2109 L76.9688 69.2109 L70.8438 69.2109 L70.8438 63.8516 L70.7031 63.8516 Q69.7188 65.5391 68.1563 66.8516 Q66.5938 68.1641 64.4063 68.9453 Q62.2344 69.7109 59.4531 69.7109 Z" /><path fill="rgb(255,255,255)" d="M85.3594 69.2109 L85.3594 33.2109 L91.4844 33.2109 L91.4844 69.2109 ZM88.4219 26.8359 Q86.8438 26.8359 85.7188 25.7266 Q84.5938 24.6016 84.5938 23.0234 Q84.5938 21.4141 85.7188 20.3203 Q86.8438 19.2109 88.4219 19.2109 Q90.0313 19.2109 91.1406 20.3203 Q92.25 21.4141 92.25 23.0234 Q92.25 24.6016 91.1406 25.7266 Q90.0313 26.8359 88.4219 26.8359 Z" /><path fill="rgb(255,255,255)" d="M100.2969 69.2109 L100.2969 19.2109 L106.4063 19.2109 L106.4063 69.2109 Z" /><path fill="rgb(255,255,255)" d="M128.7188 69.7109 Q124.0469 69.7109 120.5469 67.4453 Q117.0469 65.1641 115.1094 61.0078 Q113.1875 56.8359 113.1875 51.2109 L113.1875 51.1797 Q113.1875 45.5547 115.125 41.4141 Q117.0781 37.2578 120.5625 34.9922 Q124.0469 32.7109 128.6094 32.7109 Q131.2188 32.7109 133.4531 33.5391 Q135.6875 34.3516 137.4375 35.8672 Q139.2031 37.3672 140.3281 39.4453 L140.4688 39.4453 L140.4688 19.2109 L146.5781 19.2109 L146.5781 69.2109 L140.4688 69.2109 L140.4688 62.9141 L140.3281 62.9141 Q139.2031 65.0234 137.4688 66.5391 Q135.75 68.0391 133.5469 68.8828 Q131.3594 69.7109 128.7188 69.7109 ZM129.9219 64.3359 Q133.0156 64.3359 135.4063 62.7109 Q137.7969 61.0703 139.1406 58.1172 Q140.5 55.1484 140.5 51.2109 L140.5 51.1797 Q140.5 47.2266 139.125 44.2891 Q137.75 41.3359 135.375 39.7109 Q133.0156 38.0859 129.9219 38.0859 Q126.6875 38.0859 124.3281 39.6953 Q121.9688 41.2891 120.7031 44.2109 Q119.4375 47.1328 119.4375 51.1797 L119.4375 51.2109 Q119.4375 55.2578 120.7031 58.2109 Q121.9688 61.1641 124.3281 62.7578 Q126.6875 64.3359 129.9219 64.3359 Z" /><path fill="rgb(255,255,255)" d="M154.3594 69.2109 L154.3594 33.2109 L160.4844 33.2109 L160.4844 69.2109 ZM157.4219 26.8359 Q155.8438 26.8359 154.7188 25.7266 Q153.5938 24.6016 153.5938 23.0234 Q153.5938 21.4141 154.7188 20.3203 Q155.8438 19.2109 157.4219 19.2109 Q159.0313 19.2109 160.1406 20.3203 Q161.25 21.4141 161.25 23.0234 Q161.25 24.6016 160.1406 25.7266 Q159.0313 26.8359 157.4219 26.8359 Z" /><path fill="rgb(255,255,255)" d="M168.9688 69.2109 L168.9688 33.2109 L175.0938 33.2109 L175.0938 38.5703 L175.2344 38.5703 Q176.7031 36.0234 179.5156 34.3672 Q182.3281 32.7109 186.4844 32.7109 Q192.5 32.7109 195.8125 36.2734 Q199.1406 39.8359 199.1406 45.9609 L199.1406 69.2109 L193.0156 69.2109 L193.0156 47.0859 Q193.0156 42.7266 190.9219 40.4141 Q188.8438 38.0859 184.625 38.0859 Q181.7344 38.0859 179.5938 39.3359 Q177.4531 40.5859 176.2656 42.8672 Q175.0938 45.1328 175.0938 48.1953 L175.0938 69.2109 Z" /><path fill="rgb(255,255,255)" d="M222.4375 81.5859 Q217.9375 81.5859 214.5781 80.3047 Q211.2344 79.0234 209.1719 76.8359 Q207.1094 74.6484 206.5156 71.9609 L206.4531 71.9609 L212.5938 71.9609 L212.7344 72.2578 Q213.625 74.0859 216.125 75.1484 Q218.6406 76.2109 222.375 76.2109 Q227.1875 76.2109 229.8281 73.7891 Q232.4688 71.3672 232.4688 67.2109 L232.4688 62.6484 L232.3281 62.6484 Q231.2344 64.6641 229.5 66.1172 Q227.7813 67.5703 225.5469 68.3984 Q223.3281 69.2109 220.6875 69.2109 Q216.0781 69.2109 212.5781 66.9453 Q209.0781 64.6797 207.125 60.5703 Q205.1875 56.4609 205.1875 50.9297 L205.1875 50.8984 Q205.1875 45.3672 207.1719 41.2891 Q209.1563 37.2109 212.6719 34.9609 Q216.1875 32.7109 220.8281 32.7109 Q223.4219 32.7109 225.5938 33.5859 Q227.7813 34.4453 229.4844 35.9766 Q231.2031 37.4922 232.3281 39.5078 L232.4688 39.5078 L232.4688 33.2109 L238.5781 33.2109 L238.5781 67.8828 Q238.5781 72.0547 236.6094 75.1172 Q234.6406 78.1797 231.0156 79.8828 Q227.4063 81.5859 222.4375 81.5859 ZM222.0156 63.8359 Q225.1563 63.8359 227.4844 62.2422 Q229.8281 60.6328 231.1406 57.7266 Q232.4688 54.8203 232.4688 50.9297 L232.4688 50.8984 Q232.4688 47.0078 231.1406 44.1328 Q229.8281 41.2578 227.4688 39.6797 Q225.1094 38.0859 222.0156 38.0859 Q218.7813 38.0859 216.3906 39.6641 Q214 41.2266 212.7188 44.1016 Q211.4375 46.9766 211.4375 50.8984 L211.4375 50.9297 Q211.4375 54.9297 212.7188 57.8203 Q214 60.7109 216.3906 62.2734 Q218.7813 63.8359 222.0156 63.8359 Z" /><path fill="rgb(255,255,255)" d="M272.6563 69.7109 Q269.0469 69.7109 266.2969 68.3359 Q263.5625 66.9609 262.0313 64.4609 Q260.5 61.9609 260.5 58.6484 L260.5 58.5859 Q260.5 55.4609 262.0625 53.1797 Q263.625 50.8828 266.5938 49.5547 Q269.5625 48.2109 273.75 48.2109 L287.2813 48.2109 L287.2813 52.8984 L274.4531 52.8984 Q270.7969 52.8984 268.7656 54.4609 Q266.75 56.0234 266.75 58.6016 L266.75 58.6641 Q266.75 61.3203 268.7344 62.8828 Q270.7344 64.4297 274.0313 64.4297 Q276.9219 64.4297 279.2188 63.2578 Q281.5156 62.0859 282.875 60.0547 Q284.2344 58.0078 284.2344 55.4609 L284.2344 45.0234 Q284.2344 41.8047 282.1406 39.9453 Q280.0469 38.0859 276.2188 38.0859 Q272.7031 38.0859 270.5313 39.6016 Q268.375 41.1016 267.8438 43.5391 L267.7813 43.5391 L261.875 43.5391 L261.9063 43.1641 Q262.1875 40.2578 263.9531 37.8828 Q265.7344 35.5078 268.8594 34.1172 Q272 32.7109 276.2813 32.7109 Q280.6094 32.7109 283.75 34.1641 Q286.9063 35.6016 288.625 38.2422 Q290.3438 40.8672 290.3438 44.4609 L290.3438 69.2109 L284.2344 69.2109 L284.2344 63.1484 L284.0938 63.1484 Q283.0313 65.1328 281.2656 66.6172 Q279.5156 68.0859 277.3125 68.8984 Q275.125 69.7109 272.6563 69.7109 Z" /><path fill="rgb(255,255,255)" d="M311.9688 69.2109 L311.9688 33.2109 L318.0938 33.2109 L318.0938 39.5391 L318.2344 39.5391 Q319.1406 36.3984 321.3906 34.5547 Q323.6406 32.7109 326.7344 32.7109 Q327.5469 32.7109 328.1875 32.8047 Q328.8438 32.8828 329.2031 32.9609 L329.2031 38.8516 Q328.8438 38.7109 327.9531 38.6172 Q327.0625 38.5078 325.9375 38.5078 Q323.5781 38.5078 321.7969 39.5391 Q320.0313 40.5703 319.0625 42.5078 Q318.0938 44.4453 318.0938 47.1641 L318.0938 69.2109 Z" /><path fill="rgb(255,255,255)" d="M348.0156 69.7109 Q342.7813 69.7109 339 67.4609 Q335.2188 65.1953 333.2031 61.0703 Q331.1875 56.9297 331.1875 51.3359 L331.1875 51.3047 Q331.1875 45.7891 333.2188 41.6016 Q335.2656 37.3984 338.9531 35.0547 Q342.6406 32.7109 347.6406 32.7109 Q352.625 32.7109 356.2188 34.8984 Q359.8281 37.0703 361.7656 40.9922 Q363.7031 44.9141 363.7031 50.0859 L363.7031 52.2109 L334.2344 52.2109 L334.2344 47.4766 L360.6719 47.4766 L357.5781 51.8672 L357.5781 49.6797 Q357.5781 45.7422 356.2969 43.1797 Q355.0156 40.6016 352.7656 39.3516 Q350.5156 38.0859 347.5938 38.0859 Q344.6875 38.0859 342.3594 39.4609 Q340.0469 40.8359 338.7031 43.5391 Q337.375 46.2422 337.375 50.1797 L337.375 52.4609 Q337.375 56.2109 338.6875 58.8672 Q340 61.5078 342.4219 62.9297 Q344.8594 64.3359 348.1563 64.3359 Q350.4844 64.3359 352.3125 63.6016 Q354.1406 62.8672 355.3594 61.5859 Q356.5938 60.3047 357.125 58.6484 L357.2344 58.6484 L363.25 58.6484 L363.1719 59.0078 Q362.7188 61.2266 361.4375 63.1797 Q360.1563 65.1172 358.1406 66.6016 Q356.1406 68.0703 353.5781 68.8984 Q351.0156 69.7109 348.0156 69.7109 Z" /><path fill="rgb(255,255,255)" d="M380.6563 69.7109 Q377.0469 69.7109 374.2969 68.3359 Q371.5625 66.9609 370.0313 64.4609 Q368.5 61.9609 368.5 58.6484 L368.5 58.5859 Q368.5 55.4609 370.0625 53.1797 Q371.625 50.8828 374.5938 49.5547 Q377.5625 48.2109 381.75 48.2109 L395.2813 48.2109 L395.2813 52.8984 L382.4531 52.8984 Q378.7969 52.8984 376.7656 54.4609 Q374.75 56.0234 374.75 58.6016 L374.75 58.6641 Q374.75 61.3203 376.7344 62.8828 Q378.7344 64.4297 382.0313 64.4297 Q384.9219 64.4297 387.2188 63.2578 Q389.5156 62.0859 390.875 60.0547 Q392.2344 58.0078 392.2344 55.4609 L392.2344 45.0234 Q392.2344 41.8047 390.1406 39.9453 Q388.0469 38.0859 384.2188 38.0859 Q380.7031 38.0859 378.5313 39.6016 Q376.375 41.1016 375.8438 43.5391 L375.7813 43.5391 L369.875 43.5391 L369.9063 43.1641 Q370.1875 40.2578 371.9531 37.8828 Q373.7344 35.5078 376.8594 34.1172 Q380 32.7109 384.2813 32.7109 Q388.6094 32.7109 391.75 34.1641 Q394.9063 35.6016 396.625 38.2422 Q398.3438 40.8672 398.3438 44.4609 L398.3438 69.2109 L392.2344 69.2109 L392.2344 63.1484 L392.0938 63.1484 Q391.0313 65.1328 389.2656 66.6172 Q387.5156 68.0859 385.3125 68.8984 Q383.125 69.7109 380.6563 69.7109 Z" /><path fill="rgb(255,255,255)" d="M406.2969 69.2109 L406.2969 19.2109 L412.4063 19.2109 L412.4063 69.2109 Z" /><path fill="rgb(255,255,255)" d="M421.1875 51.2109 L421.1875 45.5547 L443.6875 45.5547 L443.6875 51.2109 Z" /><path fill="rgb(255,255,255)" d="M462.8594 69.7109 Q457.8281 69.7109 455.3281 67.3828 Q452.8438 65.0391 452.8438 59.9141 L452.8438 38.2266 L447.5 38.2266 L447.5 33.2109 L452.8438 33.2109 L452.8438 22.7109 L459.1719 22.7109 L459.1719 33.2109 L466.125 33.2109 L466.125 38.2266 L459.1719 38.2266 L459.1719 59.7891 Q459.1719 62.6328 460.4375 63.6484 Q461.7031 64.6484 464.1563 64.6484 Q464.7188 64.6484 465.2188 64.6484 Q465.7344 64.6484 466.125 64.6172 L466.125 69.4609 Q465.5625 69.5391 464.6563 69.6172 Q463.7656 69.7109 462.8594 69.7109 Z" /><path fill="rgb(255,255,255)" d="M473.3594 69.2109 L473.3594 33.2109 L479.4844 33.2109 L479.4844 69.2109 ZM476.4219 26.8359 Q474.8438 26.8359 473.7188 25.7266 Q472.5938 24.6016 472.5938 23.0234 Q472.5938 21.4141 473.7188 20.3203 Q474.8438 19.2109 476.4219 19.2109 Q478.0313 19.2109 479.1406 20.3203 Q480.25 21.4141 480.25 23.0234 Q480.25 24.6016 479.1406 25.7266 Q478.0313 26.8359 476.4219 26.8359 Z" /><path fill="rgb(255,255,255)" d="M487.9688 69.2109 L487.9688 33.2109 L494.0938 33.2109 L494.0938 38.7109 L494.2344 38.7109 Q495.4688 36.0234 498.0938 34.3672 Q500.7344 32.7109 504.25 32.7109 Q506.75 32.7109 508.7656 33.5391 Q510.7969 34.3516 512.2656 35.8984 Q513.75 37.4453 514.5156 39.6641 L514.6563 39.6641 Q515.6719 37.4766 517.375 35.9297 Q519.0938 34.3828 521.3125 33.5547 Q523.5469 32.7109 526.125 32.7109 Q529.7344 32.7109 532.4063 34.1797 Q535.0781 35.6328 536.5469 38.2734 Q538.0313 40.9141 538.0313 44.4922 L538.0313 69.2109 L531.9219 69.2109 L531.9219 45.9141 Q531.9219 43.4453 531.0156 41.6953 Q530.125 39.9453 528.4375 39.0234 Q526.75 38.0859 524.3281 38.0859 Q521.9063 38.0859 520.0313 39.1797 Q518.1719 40.2578 517.1094 42.1641 Q516.0625 44.0703 516.0625 46.4922 L516.0625 69.2109 L509.9531 69.2109 L509.9531 45.2734 Q509.9531 43.1016 509.0156 41.4922 Q508.0781 39.8672 506.4063 38.9766 Q504.75 38.0859 502.4531 38.0859 Q500.0313 38.0859 498.1406 39.2422 Q496.2656 40.3984 495.1719 42.3516 Q494.0938 44.3047 494.0938 46.8047 L494.0938 69.2109 Z" /><path fill="rgb(255,255,255)" d="M561.0156 69.7109 Q555.7813 69.7109 552 67.4609 Q548.2188 65.1953 546.2031 61.0703 Q544.1875 56.9297 544.1875 51.3359 L544.1875 51.3047 Q544.1875 45.7891 546.2188 41.6016 Q548.2656 37.3984 551.9531 35.0547 Q555.6406 32.7109 560.6406 32.7109 Q565.625 32.7109 569.2188 34.8984 Q572.8281 37.0703 574.7656 40.9922 Q576.7031 44.9141 576.7031 50.0859 L576.7031 52.2109 L547.2344 52.2109 L547.2344 47.4766 L573.6719 47.4766 L570.5781 51.8672 L570.5781 49.6797 Q570.5781 45.7422 569.2969 43.1797 Q568.0156 40.6016 565.7656 39.3516 Q563.5156 38.0859 560.5938 38.0859 Q557.6875 38.0859 555.3594 39.4609 Q553.0469 40.8359 551.7031 43.5391 Q550.375 46.2422 550.375 50.1797 L550.375 52.4609 Q550.375 56.2109 551.6875 58.8672 Q553 61.5078 555.4219 62.9297 Q557.8594 64.3359 561.1563 64.3359 Q563.4844 64.3359 565.3125 63.6016 Q567.1406 62.8672 568.3594 61.5859 Q569.5938 60.3047 570.125 58.6484 L570.2344 58.6484 L576.25 58.6484 L576.1719 59.0078 Q575.7188 61.2266 574.4375 63.1797 Q573.1563 65.1172 571.1406 66.6016 Q569.1406 68.0703 566.5781 68.8984 Q564.0156 69.7109 561.0156 69.7109 Z" /><path fill="rgb(255,255,255)" d="M612.125 69.7109 Q606.9531 69.7109 603.1406 67.4453 Q599.3281 65.1641 597.25 61.0078 Q595.1875 56.8359 595.1875 51.1797 L595.1875 51.1484 Q595.1875 45.5234 597.2969 41.3828 Q599.4063 37.2266 603.2031 34.9766 Q607 32.7109 612.0625 32.7109 Q616.625 32.7109 619.8906 34.4766 Q623.1719 36.2266 625.0469 39.0078 Q626.9219 41.7891 627.3125 44.8828 L627.3438 44.8828 L621.375 44.8828 L621.2969 44.6172 Q620.6406 42.0234 618.3594 40.0547 Q616.0938 38.0859 612.0625 38.0859 Q608.8906 38.0859 606.5 39.6953 Q604.1094 41.3047 602.7656 44.2578 Q601.4375 47.1953 601.4375 51.2109 L601.4375 51.2422 Q601.4375 55.3516 602.7813 58.2734 Q604.1406 61.1953 606.5469 62.7734 Q608.9688 64.3359 612.125 64.3359 Q615.8906 64.3359 618.2188 62.4453 Q620.5625 60.5547 621.3438 57.5391 L621.4063 57.5391 L627.4219 57.5391 L627.3906 57.7891 Q626.8906 61.1484 624.8281 63.8516 Q622.7813 66.5391 619.5313 68.1328 Q616.2813 69.7109 612.125 69.7109 Z" /><path fill="rgb(255,255,255)" d="M649.125 69.7109 Q644.0625 69.7109 640.25 67.4609 Q636.4375 65.1953 634.3125 61.0391 Q632.1875 56.8672 632.1875 51.2109 L632.1875 51.1484 Q632.1875 45.4453 634.3125 41.3359 Q636.4375 37.2109 640.25 34.9609 Q644.0625 32.7109 649.0938 32.7109 Q654.1563 32.7109 657.9688 34.9609 Q661.7813 37.2109 663.9063 41.3359 Q666.0313 45.4453 666.0313 51.1484 L666.0313 51.2109 Q666.0313 56.8984 663.9063 61.0547 Q661.7813 65.1953 657.9844 67.4609 Q654.1875 69.7109 649.125 69.7109 ZM649.1563 64.3359 Q652.3906 64.3359 654.7656 62.7891 Q657.1406 61.2266 658.4531 58.2891 Q659.7813 55.3516 659.7813 51.2109 L659.7813 51.1484 Q659.7813 46.9922 658.4531 44.0703 Q657.1406 41.1484 654.7344 39.6172 Q652.3281 38.0859 649.0938 38.0859 Q645.9219 38.0859 643.5156 39.6328 Q641.1094 41.1797 639.7656 44.0859 Q638.4375 46.9922 638.4375 51.1484 L638.4375 51.2109 Q638.4375 55.3516 639.7656 58.2891 Q641.1094 61.2266 643.5156 62.7891 Q645.9219 64.3359 649.1563 64.3359 Z" /><path fill="rgb(255,255,255)" d="M672.2969 69.2109 L672.2969 19.2109 L678.4063 19.2109 L678.4063 69.2109 Z" /><path fill="rgb(255,255,255)" d="M686.2969 69.2109 L686.2969 19.2109 L692.4063 19.2109 L692.4063 69.2109 Z" /><path fill="rgb(255,255,255)" d="M711.6563 69.7109 Q708.0469 69.7109 705.2969 68.3359 Q702.5625 66.9609 701.0313 64.4609 Q699.5 61.9609 699.5 58.6484 L699.5 58.5859 Q699.5 55.4609 701.0625 53.1797 Q702.625 50.8828 705.5938 49.5547 Q708.5625 48.2109 712.75 48.2109 L726.2813 48.2109 L726.2813 52.8984 L713.4531 52.8984 Q709.7969 52.8984 707.7656 54.4609 Q705.75 56.0234 705.75 58.6016 L705.75 58.6641 Q705.75 61.3203 707.7344 62.8828 Q709.7344 64.4297 713.0313 64.4297 Q715.9219 64.4297 718.2188 63.2578 Q720.5156 62.0859 721.875 60.0547 Q723.2344 58.0078 723.2344 55.4609 L723.2344 45.0234 Q723.2344 41.8047 721.1406 39.9453 Q719.0469 38.0859 715.2188 38.0859 Q711.7031 38.0859 709.5313 39.6016 Q707.375 41.1016 706.8438 43.5391 L706.7813 43.5391 L700.875 43.5391 L700.9063 43.1641 Q701.1875 40.2578 702.9531 37.8828 Q704.7344 35.5078 707.8594 34.1172 Q711 32.7109 715.2813 32.7109 Q719.6094 32.7109 722.75 34.1641 Q725.9063 35.6016 727.625 38.2422 Q729.3438 40.8672 729.3438 44.4609 L729.3438 69.2109 L723.2344 69.2109 L723.2344 63.1484 L723.0938 63.1484 Q722.0313 65.1328 720.2656 66.6172 Q718.5156 68.0859 716.3125 68.8984 Q714.125 69.7109 711.6563 69.7109 Z" /><path fill="rgb(255,255,255)" d="M755.1563 69.7109 Q752.5469 69.7109 750.3281 68.8828 Q748.125 68.0391 746.4063 66.5391 Q744.7031 65.0234 743.5469 62.9141 L743.4063 62.9141 L743.4063 69.2109 L737.2969 69.2109 L737.2969 19.2109 L743.4063 19.2109 L743.4063 39.4453 L743.5469 39.4453 Q744.7031 37.3672 746.4375 35.8672 Q748.1875 34.3516 750.4375 33.5391 Q752.6875 32.7109 755.25 32.7109 Q759.8594 32.7109 763.3125 34.9922 Q766.7813 37.2578 768.7344 41.4141 Q770.6875 45.5547 770.6875 51.1797 L770.6875 51.2109 Q770.6875 56.8359 768.75 61.0078 Q766.8281 65.1641 763.3281 67.4453 Q759.8281 69.7109 755.1563 69.7109 ZM753.9531 64.3359 Q757.1875 64.3359 759.5469 62.7578 Q761.9063 61.1641 763.1719 58.2109 Q764.4375 55.2578 764.4375 51.2109 L764.4375 51.1797 Q764.4375 47.1328 763.1719 44.2109 Q761.9063 41.2891 759.5469 39.6953 Q757.1875 38.0859 753.9531 38.0859 Q750.8594 38.0859 748.4844 39.7109 Q746.1094 41.3359 744.7344 44.2891 Q743.375 47.2266 743.375 51.1797 L743.375 51.2109 Q743.375 55.1484 744.7188 58.1172 Q746.0781 61.0703 748.4688 62.7109 Q750.8594 64.3359 753.9531 64.3359 Z" /><path fill="rgb(255,255,255)" d="M792.125 69.7109 Q787.0625 69.7109 783.25 67.4609 Q779.4375 65.1953 777.3125 61.0391 Q775.1875 56.8672 775.1875 51.2109 L775.1875 51.1484 Q775.1875 45.4453 777.3125 41.3359 Q779.4375 37.2109 783.25 34.9609 Q787.0625 32.7109 792.0938 32.7109 Q797.1563 32.7109 800.9688 34.9609 Q804.7813 37.2109 806.9063 41.3359 Q809.0313 45.4453 809.0313 51.1484 L809.0313 51.2109 Q809.0313 56.8984 806.9063 61.0547 Q804.7813 65.1953 800.9844 67.4609 Q797.1875 69.7109 792.125 69.7109 ZM792.1563 64.3359 Q795.3906 64.3359 797.7656 62.7891 Q800.1406 61.2266 801.4531 58.2891 Q802.7813 55.3516 802.7813 51.2109 L802.7813 51.1484 Q802.7813 46.9922 801.4531 44.0703 Q800.1406 41.1484 797.7344 39.6172 Q795.3281 38.0859 792.0938 38.0859 Q788.9219 38.0859 786.5156 39.6328 Q784.1094 41.1797 782.7656 44.0859 Q781.4375 46.9922 781.4375 51.1484 L781.4375 51.2109 Q781.4375 55.3516 782.7656 58.2891 Q784.1094 61.2266 786.5156 62.7891 Q788.9219 64.3359 792.1563 64.3359 Z" /><path fill="rgb(255,255,255)" d="M814.9688 69.2109 L814.9688 33.2109 L821.0938 33.2109 L821.0938 39.5391 L821.2344 39.5391 Q822.1406 36.3984 824.3906 34.5547 Q826.6406 32.7109 829.7344 32.7109 Q830.5469 32.7109 831.1875 32.8047 Q831.8438 32.8828 832.2031 32.9609 L832.2031 38.8516 Q831.8438 38.7109 830.9531 38.6172 Q830.0625 38.5078 828.9375 38.5078 Q826.5781 38.5078 824.7969 39.5391 Q823.0313 40.5703 822.0625 42.5078 Q821.0938 44.4453 821.0938 47.1641 L821.0938 69.2109 Z" /><path fill="rgb(255,255,255)" d="M847.6562 69.7109 Q844.0469 69.7109 841.2969 68.3359 Q838.5625 66.9609 837.0313 64.4609 Q835.5 61.9609 835.5 58.6484 L835.5 58.5859 Q835.5 55.4609 837.0625 53.1797 Q838.625 50.8828 841.5938 49.5547 Q844.5625 48.2109 848.75 48.2109 L862.2812 48.2109 L862.2812 52.8984 L849.4531 52.8984 Q845.7969 52.8984 843.7656 54.4609 Q841.75 56.0234 841.75 58.6016 L841.75 58.6641 Q841.75 61.3203 843.7344 62.8828 Q845.7344 64.4297 849.0312 64.4297 Q851.9219 64.4297 854.2188 63.2578 Q856.5156 62.0859 857.875 60.0547 Q859.2344 58.0078 859.2344 55.4609 L859.2344 45.0234 Q859.2344 41.8047 857.1406 39.9453 Q855.0469 38.0859 851.2188 38.0859 Q847.7031 38.0859 845.5312 39.6016 Q843.375 41.1016 842.8438 43.5391 L842.7812 43.5391 L836.875 43.5391 L836.9063 43.1641 Q837.1875 40.2578 838.9531 37.8828 Q840.7344 35.5078 843.8594 34.1172 Q847 32.7109 851.2812 32.7109 Q855.6094 32.7109 858.75 34.1641 Q861.9062 35.6016 863.625 38.2422 Q865.3438 40.8672 865.3438 44.4609 L865.3438 69.2109 L859.2344 69.2109 L859.2344 63.1484 L859.0938 63.1484 Q858.0312 65.1328 856.2656 66.6172 Q854.5156 68.0859 852.3125 68.8984 Q850.125 69.7109 847.6562 69.7109 Z" /><path fill="rgb(255,255,255)" d="M884.8594 69.7109 Q879.8281 69.7109 877.3281 67.3828 Q874.8438 65.0391 874.8438 59.9141 L874.8438 38.2266 L869.5 38.2266 L869.5 33.2109 L874.8438 33.2109 L874.8438 22.7109 L881.1719 22.7109 L881.1719 33.2109 L888.125 33.2109 L888.125 38.2266 L881.1719 38.2266 L881.1719 59.7891 Q881.1719 62.6328 882.4375 63.6484 Q883.7031 64.6484 886.1562 64.6484 Q886.7188 64.6484 887.2188 64.6484 Q887.7344 64.6484 888.125 64.6172 L888.125 69.4609 Q887.5625 69.5391 886.6562 69.6172 Q885.7656 69.7109 884.8594 69.7109 Z" /><path fill="rgb(255,255,255)" d="M895.3594 69.2109 L895.3594 33.2109 L901.4844 33.2109 L901.4844 69.2109 ZM898.4219 26.8359 Q896.8438 26.8359 895.7188 25.7266 Q894.5938 24.6016 894.5938 23.0234 Q894.5938 21.4141 895.7188 20.3203 Q896.8438 19.2109 898.4219 19.2109 Q900.0312 19.2109 901.1406 20.3203 Q902.25 21.4141 902.25 23.0234 Q902.25 24.6016 901.1406 25.7266 Q900.0312 26.8359 898.4219 26.8359 Z" /><path fill="rgb(255,255,255)" d="M919.2812 69.2109 L905.8125 33.2109 L912.25 33.2109 L922.3281 62.8047 L922.4688 62.8047 L932.5938 33.2109 L938.9688 33.2109 L925.5312 69.2109 Z" /><path fill="rgb(255,255,255)" d="M958.0156 69.7109 Q952.7812 69.7109 949 67.4609 Q945.2188 65.1953 943.2031 61.0703 Q941.1875 56.9297 941.1875 51.3359 L941.1875 51.3047 Q941.1875 45.7891 943.2188 41.6016 Q945.2656 37.3984 948.9531 35.0547 Q952.6406 32.7109 957.6406 32.7109 Q962.625 32.7109 966.2188 34.8984 Q969.8281 37.0703 971.7656 40.9922 Q973.7031 44.9141 973.7031 50.0859 L973.7031 52.2109 L944.2344 52.2109 L944.2344 47.4766 L970.6719 47.4766 L967.5781 51.8672 L967.5781 49.6797 Q967.5781 45.7422 966.2969 43.1797 Q965.0156 40.6016 962.7656 39.3516 Q960.5156 38.0859 957.5938 38.0859 Q954.6875 38.0859 952.3594 39.4609 Q950.0469 40.8359 948.7031 43.5391 Q947.375 46.2422 947.375 50.1797 L947.375 52.4609 Q947.375 56.2109 948.6875 58.8672 Q950 61.5078 952.4219 62.9297 Q954.8594 64.3359 958.1562 64.3359 Q960.4844 64.3359 962.3125 63.6016 Q964.1406 62.8672 965.3594 61.5859 Q966.5938 60.3047 967.125 58.6484 L967.2344 58.6484 L973.25 58.6484 L973.1719 59.0078 Q972.7188 61.2266 971.4375 63.1797 Q970.1562 65.1172 968.1406 66.6016 Q966.1406 68.0703 963.5781 68.8984 Q961.0156 69.7109 958.0156 69.7109 Z" /><path fill="rgb(255,255,255)" d="M19.0156 153.7109 Q13.7813 153.7109 10 151.4609 Q6.2188 149.1953 4.2031 145.0703 Q2.1875 140.9297 2.1875 135.3359 L2.1875 135.3047 Q2.1875 129.7891 4.2188 125.6016 Q6.2656 121.3984 9.9531 119.0547 Q13.6406 116.7109 18.6406 116.7109 Q23.625 116.7109 27.2188 118.8984 Q30.8281 121.0703 32.7656 124.9922 Q34.7031 128.9141 34.7031 134.0859 L34.7031 136.2109 L5.2344 136.2109 L5.2344 131.4766 L31.6719 131.4766 L28.5781 135.8672 L28.5781 133.6797 Q28.5781 129.7422 27.2969 127.1797 Q26.0156 124.6016 23.7656 123.3516 Q21.5156 122.0859 18.5938 122.0859 Q15.6875 122.0859 13.3594 123.4609 Q11.0469 124.8359 9.7031 127.5391 Q8.375 130.2422 8.375 134.1797 L8.375 136.4609 Q8.375 140.2109 9.6875 142.8672 Q11 145.5078 13.4219 146.9297 Q15.8594 148.3359 19.1563 148.3359 Q21.4844 148.3359 23.3125 147.6016 Q25.1406 146.8672 26.3594 145.5859 Q27.5938 144.3047 28.125 142.6484 L28.2344 142.6484 L34.25 142.6484 L34.1719 143.0078 Q33.7188 145.2266 32.4375 147.1797 Q31.1563 149.1172 29.1406 150.6016 Q27.1406 152.0703 24.5781 152.8984 Q22.0156 153.7109 19.0156 153.7109 Z" /><path fill="rgb(255,255,255)" d="M54.7188 153.7109 Q50.0469 153.7109 46.5469 151.4453 Q43.0469 149.1641 41.1094 145.0078 Q39.1875 140.8359 39.1875 135.2109 L39.1875 135.1797 Q39.1875 129.5547 41.125 125.4141 Q43.0781 121.2578 46.5625 118.9922 Q50.0469 116.7109 54.6094 116.7109 Q57.2188 116.7109 59.4531 117.5391 Q61.6875 118.3516 63.4375 119.8672 Q65.2031 121.3672 66.3281 123.4453 L66.4688 123.4453 L66.4688 103.2109 L72.5781 103.2109 L72.5781 153.2109 L66.4688 153.2109 L66.4688 146.9141 L66.3281 146.9141 Q65.2031 149.0234 63.4688 150.5391 Q61.75 152.0391 59.5469 152.8828 Q57.3594 153.7109 54.7188 153.7109 ZM55.9219 148.3359 Q59.0156 148.3359 61.4063 146.7109 Q63.7969 145.0703 65.1406 142.1172 Q66.5 139.1484 66.5 135.2109 L66.5 135.1797 Q66.5 131.2266 65.125 128.2891 Q63.75 125.3359 61.375 123.7109 Q59.0156 122.0859 55.9219 122.0859 Q52.6875 122.0859 50.3281 123.6953 Q47.9688 125.2891 46.7031 128.2109 Q45.4375 131.1328 45.4375 135.1797 L45.4375 135.2109 Q45.4375 139.2578 46.7031 142.2109 Q47.9688 145.1641 50.3281 146.7578 Q52.6875 148.3359 55.9219 148.3359 Z" /><path fill="rgb(255,255,255)" d="M80.3594 153.2109 L80.3594 117.2109 L86.4844 117.2109 L86.4844 153.2109 ZM83.4219 110.8359 Q81.8438 110.8359 80.7188 109.7266 Q79.5938 108.6016 79.5938 107.0234 Q79.5938 105.4141 80.7188 104.3203 Q81.8438 103.2109 83.4219 103.2109 Q85.0313 103.2109 86.1406 104.3203 Q87.25 105.4141 87.25 107.0234 Q87.25 108.6016 86.1406 109.7266 Q85.0313 110.8359 83.4219 110.8359 Z" /><path fill="rgb(255,255,255)" d="M106.8594 153.7109 Q101.8281 153.7109 99.3281 151.3828 Q96.8438 149.0391 96.8438 143.9141 L96.8438 122.2266 L91.5 122.2266 L91.5 117.2109 L96.8438 117.2109 L96.8438 106.7109 L103.1719 106.7109 L103.1719 117.2109 L110.125 117.2109 L110.125 122.2266 L103.1719 122.2266 L103.1719 143.7891 Q103.1719 146.6328 104.4375 147.6484 Q105.7031 148.6484 108.1563 148.6484 Q108.7188 148.6484 109.2188 148.6484 Q109.7344 148.6484 110.125 148.6172 L110.125 153.4609 Q109.5625 153.5391 108.6563 153.6172 Q107.7656 153.7109 106.8594 153.7109 Z" /><path fill="rgb(255,255,255)" d="M131.125 153.7109 Q126.0625 153.7109 122.25 151.4609 Q118.4375 149.1953 116.3125 145.0391 Q114.1875 140.8672 114.1875 135.2109 L114.1875 135.1484 Q114.1875 129.4453 116.3125 125.3359 Q118.4375 121.2109 122.25 118.9609 Q126.0625 116.7109 131.0938 116.7109 Q136.1563 116.7109 139.9688 118.9609 Q143.7813 121.2109 145.9063 125.3359 Q148.0313 129.4453 148.0313 135.1484 L148.0313 135.2109 Q148.0313 140.8984 145.9063 145.0547 Q143.7813 149.1953 139.9844 151.4609 Q136.1875 153.7109 131.125 153.7109 ZM131.1563 148.3359 Q134.3906 148.3359 136.7656 146.7891 Q139.1406 145.2266 140.4531 142.2891 Q141.7813 139.3516 141.7813 135.2109 L141.7813 135.1484 Q141.7813 130.9922 140.4531 128.0703 Q139.1406 125.1484 136.7344 123.6172 Q134.3281 122.0859 131.0938 122.0859 Q127.9219 122.0859 125.5156 123.6328 Q123.1094 125.1797 121.7656 128.0859 Q120.4375 130.9922 120.4375 135.1484 L120.4375 135.2109 Q120.4375 139.3516 121.7656 142.2891 Q123.1094 145.2266 125.5156 146.7891 Q127.9219 148.3359 131.1563 148.3359 Z" /><path fill="rgb(255,255,255)" d="M153.9688 153.2109 L153.9688 117.2109 L160.0938 117.2109 L160.0938 123.5391 L160.2344 123.5391 Q161.1406 120.3984 163.3906 118.5547 Q165.6406 116.7109 168.7344 116.7109 Q169.5469 116.7109 170.1875 116.8047 Q170.8438 116.8828 171.2031 116.9609 L171.2031 122.8516 Q170.8438 122.7109 169.9531 122.6172 Q169.0625 122.5078 167.9375 122.5078 Q165.5781 122.5078 163.7969 123.5391 Q162.0313 124.5703 161.0625 126.5078 Q160.0938 128.4453 160.0938 131.1641 L160.0938 153.2109 Z" /><path fill="rgb(255,255,255)" d="M191.3594 153.2109 L191.3594 117.2109 L197.4844 117.2109 L197.4844 153.2109 ZM194.4219 110.8359 Q192.8438 110.8359 191.7188 109.7266 Q190.5938 108.6016 190.5938 107.0234 Q190.5938 105.4141 191.7188 104.3203 Q192.8438 103.2109 194.4219 103.2109 Q196.0313 103.2109 197.1406 104.3203 Q198.25 105.4141 198.25 107.0234 Q198.25 108.6016 197.1406 109.7266 Q196.0313 110.8359 194.4219 110.8359 Z" /><path fill="rgb(255,255,255)" d="M205.9688 153.2109 L205.9688 117.2109 L212.0938 117.2109 L212.0938 122.5703 L212.2344 122.5703 Q213.7031 120.0234 216.5156 118.3672 Q219.3281 116.7109 223.4844 116.7109 Q229.5 116.7109 232.8125 120.2734 Q236.1406 123.8359 236.1406 129.9609 L236.1406 153.2109 L230.0156 153.2109 L230.0156 131.0859 Q230.0156 126.7266 227.9219 124.4141 Q225.8438 122.0859 221.625 122.0859 Q218.7344 122.0859 216.5938 123.3359 Q214.4531 124.5859 213.2656 126.8672 Q212.0938 129.1328 212.0938 132.1953 L212.0938 153.2109 Z" /><path fill="rgb(255,255,255)" d="M259.9219 153.2109 L259.9219 103.2109 L278.9375 103.2109 Q283.8281 103.2109 287.4688 105.0547 Q291.1094 106.8828 293.1094 110.2109 Q295.1094 113.5391 295.1094 117.9922 L295.1094 118.0547 Q295.1094 123.2266 292.3906 126.9922 Q289.6719 130.7422 284.9219 132.2266 L296.6563 153.2109 L289.25 153.2109 L278.375 133.2109 Q278.2813 133.2109 278.1875 133.2109 Q278.0938 133.2109 278 133.2109 L266.25 133.2109 L266.25 153.2109 ZM266.25 127.6641 L278.375 127.6641 Q283.2656 127.6641 285.9219 125.2109 Q288.5781 122.7578 288.5781 118.2109 L288.5781 118.1484 Q288.5781 113.7578 285.7813 111.2891 Q282.9844 108.8047 278.0938 108.8047 L266.25 108.8047 Z" /><path fill="rgb(255,255,255)" d="M314.4531 153.7109 Q310.4531 153.7109 307.6094 152.1016 Q304.7813 150.4766 303.2813 147.4922 Q301.7969 144.5078 301.7969 140.4609 L301.7969 117.2109 L307.9219 117.2109 L307.9219 139.3203 Q307.9219 143.6953 310 146.0234 Q312.0938 148.3359 316.3125 148.3359 Q318.5 148.3359 320.2344 147.6172 Q321.9844 146.8828 323.25 145.5703 Q324.5156 144.2422 325.1719 142.3672 Q325.8438 140.4922 325.8438 138.2266 L325.8438 117.2109 L331.9688 117.2109 L331.9688 153.2109 L325.8438 153.2109 L325.8438 147.8516 L325.7031 147.8516 Q324.7188 149.5391 323.1563 150.8516 Q321.5938 152.1641 319.4063 152.9453 Q317.2344 153.7109 314.4531 153.7109 Z" /><path fill="rgb(255,255,255)" d="M352.9531 153.7109 Q348.6563 153.7109 345.5313 152.3516 Q342.4063 150.9766 340.5938 148.5547 Q338.7813 146.1172 338.3906 142.8672 L338.3594 142.8672 L344.4688 142.8672 L344.5469 143.1953 Q345.1094 145.7578 347.1719 147.2109 Q349.25 148.6484 352.9844 148.6484 Q355.4844 148.6484 357.2344 148.0234 Q359 147.3828 359.9375 146.2109 Q360.8906 145.0234 360.8906 143.4141 L360.8906 143.3828 Q360.8906 141.4766 359.6875 140.3203 Q358.5 139.1484 355.375 138.3984 L349.5781 137.0234 Q346.125 136.2266 343.8594 134.9141 Q341.5938 133.5859 340.4688 131.6797 Q339.3438 129.7578 339.3438 127.1953 L339.3438 127.1641 Q339.3438 124.1016 341.0469 121.7422 Q342.75 119.3672 345.7813 118.0391 Q348.8281 116.7109 352.7656 116.7109 Q356.7813 116.7109 359.75 118.1172 Q362.7188 119.5078 364.4219 121.8984 Q366.125 124.2891 366.3438 127.2891 L366.375 127.7266 L360.5469 127.7266 L360.5 127.4766 Q360.1563 124.8984 358.1719 123.3359 Q356.1875 121.7734 352.7656 121.7734 Q350.5625 121.7734 348.9375 122.4297 Q347.3281 123.0703 346.4531 124.2578 Q345.5938 125.4297 345.5938 127.0078 L345.5938 127.0391 Q345.5938 128.2266 346.1719 129.1953 Q346.7656 130.1641 348.0313 130.8828 Q349.2969 131.6016 351.2969 132.0859 L357.0938 133.4609 Q360.7813 134.3047 362.9844 135.6172 Q365.1875 136.9141 366.1719 138.7422 Q367.1563 140.5703 367.1563 143.0859 L367.1563 143.1172 Q367.1563 146.2266 365.2969 148.6172 Q363.4531 151.0078 360.2344 152.3672 Q357.0313 153.7109 352.9531 153.7109 Z" /><path fill="rgb(255,255,255)" d="M384.8594 153.7109 Q379.8281 153.7109 377.3281 151.3828 Q374.8438 149.0391 374.8438 143.9141 L374.8438 122.2266 L369.5 122.2266 L369.5 117.2109 L374.8438 117.2109 L374.8438 106.7109 L381.1719 106.7109 L381.1719 117.2109 L388.125 117.2109 L388.125 122.2266 L381.1719 122.2266 L381.1719 143.7891 Q381.1719 146.6328 382.4375 147.6484 Q383.7031 148.6484 386.1563 148.6484 Q386.7188 148.6484 387.2188 148.6484 Q387.7344 148.6484 388.125 148.6172 L388.125 153.4609 Q387.5625 153.5391 386.6563 153.6172 Q385.7656 153.7109 384.8594 153.7109 Z" /></g><g transform="matrix(1 0 0 1 80 392)"></g><g transform="matrix(1 0 0 1 80 486)"><g><g clip-path="url(#decal-99c748de6a015ef7)"><image href="https://avatars.githubusercontent.com/u/218499289?s=200" width="64" height="64" /></g></g><g transform="matrix(1 0 0 1 80 0)"><g><path fill="rgb(255,255,255)" d="M1.9219 27.582 L1.9219 7.582 L4.7656 7.582 L11.5938 24.457 L11.6719 24.457 L18.5156 7.582 L21.3594 7.582 L21.3594 27.582 L19.0625 27.582 L19.0625 12.2227 L17.9375 12.2227 L20.6094 8.1445 L12.6719 27.582 L10.5938 27.582 L2.6719 8.1445 L5.3281 12.2227 L4.2188 12.2227 L4.2188 27.582 Z" /><path fill="rgb(255,255,255)" d="M30.3906 27.582 Q28.3594 27.582 26.8906 26.6758 Q25.4219 25.7539 24.625 24.082 Q23.8438 22.3945 23.8438 20.1289 L23.8438 20.1133 Q23.8438 17.8789 24.6406 16.1914 Q25.4375 14.4883 26.875 13.5352 Q28.3125 12.582 30.25 12.582 Q32.1875 12.582 33.5781 13.4727 Q34.9844 14.3633 35.7344 15.9727 Q36.5 17.582 36.5 19.707 L36.5 20.582 L25.0313 20.582 L25.0313 18.6602 L35.3125 18.6602 L34.1094 20.4414 L34.1094 19.5352 Q34.1094 17.9102 33.6094 16.8633 Q33.125 15.8008 32.25 15.2852 Q31.375 14.7539 30.2344 14.7539 Q29.0938 14.7539 28.1875 15.3164 Q27.2969 15.8633 26.7656 16.9727 Q26.25 18.0664 26.25 19.6602 L26.25 20.5977 Q26.25 22.0977 26.7656 23.1914 Q27.2813 24.2695 28.2188 24.8477 Q29.1719 25.4102 30.4531 25.4102 Q31.3594 25.4102 32.0625 25.1289 Q32.7813 24.832 33.25 24.3164 Q33.7344 23.8008 33.9375 23.1445 L33.9844 23.1445 L36.3125 23.1445 L36.2969 23.2852 Q36.1094 24.1758 35.6094 24.9727 Q35.1094 25.7539 34.3281 26.3477 Q33.5625 26.9414 32.5625 27.2695 Q31.5625 27.582 30.3906 27.582 Z" /><path fill="rgb(255,255,255)" d="M38.5469 27.582 L38.5469 12.582 L40.9219 12.582 L40.9219 15.0039 L40.9844 15.0039 Q41.4531 13.9258 42.4844 13.2539 Q43.5156 12.582 44.875 12.582 Q45.8438 12.582 46.625 12.9102 Q47.4219 13.2383 47.9844 13.8789 Q48.5625 14.5039 48.875 15.4102 L48.9219 15.4102 Q49.3125 14.5195 49.9688 13.8945 Q50.6406 13.2539 51.5 12.9258 Q52.375 12.582 53.375 12.582 Q54.7813 12.582 55.8125 13.1758 Q56.8594 13.7695 57.4375 14.8633 Q58.0156 15.9414 58.0156 17.4102 L58.0156 27.582 L55.6406 27.582 L55.6406 17.9727 Q55.6406 16.957 55.2813 16.2383 Q54.9375 15.5195 54.2813 15.1445 Q53.625 14.7539 52.6875 14.7539 Q51.7344 14.7539 51.0156 15.207 Q50.2969 15.6445 49.875 16.4258 Q49.4688 17.207 49.4688 18.2227 L49.4688 27.582 L47.0938 27.582 L47.0938 17.707 Q47.0938 16.8164 46.7188 16.1602 Q46.3594 15.4883 45.7031 15.1289 Q45.0625 14.7539 44.1719 14.7539 Q43.2344 14.7539 42.5 15.2383 Q41.7656 15.707 41.3438 16.5195 Q40.9219 17.3164 40.9219 18.3477 L40.9219 27.582 Z" /><path fill="rgb(255,255,255)" d="M61.9219 27.582 L61.9219 7.582 L69.3125 7.582 Q71.2188 7.582 72.625 8.3164 Q74.0469 9.0508 74.8125 10.3789 Q75.5938 11.707 75.5938 13.4883 L75.5938 13.5195 Q75.5938 15.5977 74.5313 17.0977 Q73.4844 18.5977 71.6406 19.1914 L76.2031 27.582 L73.3125 27.582 L69.0938 19.582 Q69.0469 19.582 69.0156 19.582 Q68.9844 19.582 68.9375 19.582 L64.375 19.582 L64.375 27.582 ZM64.375 17.332 L69.0938 17.332 Q71 17.332 72.0313 16.3633 Q73.0625 15.3789 73.0625 13.582 L73.0625 13.5664 Q73.0625 11.8164 71.9688 10.832 Q70.8906 9.8477 68.9844 9.8477 L64.375 9.8477 Z" /><path fill="rgb(255,255,255)" d="M78.9219 27.582 L78.9219 7.582 L91.1406 7.582 L91.1406 9.8633 L81.375 9.8633 L81.375 16.332 L90.625 16.332 L90.625 18.582 L81.375 18.582 L81.375 25.2852 L91.1406 25.2852 L91.1406 27.582 Z" /><path fill="rgb(255,255,255)" d="M93.9219 27.582 L93.9219 7.582 L100.5469 7.582 Q103.4688 7.582 105.5469 8.7695 Q107.625 9.957 108.7344 12.1758 Q109.8594 14.3945 109.8594 17.5508 L109.8594 17.5664 Q109.8594 20.7227 108.75 22.9727 Q107.6406 25.207 105.5625 26.3945 Q103.4844 27.582 100.5469 27.582 ZM96.375 25.2852 L100.375 25.2852 Q102.625 25.2852 104.1719 24.3945 Q105.7344 23.5039 106.5313 21.7852 Q107.3438 20.0664 107.3438 17.5977 L107.3438 17.5664 Q107.3438 15.0977 106.5313 13.3789 Q105.7344 11.6445 104.1719 10.7539 Q102.625 9.8633 100.375 9.8633 L96.375 9.8633 Z" /></g><g opacity="0.65" transform="matrix(1 0 0 1 0 34)"><path fill="rgb(255,255,255)" d="M1.6406 24.0703 L1.6406 6.0703 L11.9063 6.0703 L11.9063 8.0703 L3.75 8.0703 L3.75 14.1172 L11.2344 14.1172 L11.2344 16.0703 L3.75 16.0703 L3.75 24.0703 Z" /><path fill="rgb(255,255,255)" d="M18.3438 24.0703 Q16.5938 24.0703 15.3281 23.2734 Q14.0781 22.4766 13.4063 21.0391 Q12.7344 19.5859 12.7344 17.6172 L12.7344 17.6016 Q12.7344 15.6641 13.4063 14.1953 Q14.0938 12.7266 15.3125 11.8984 Q16.5469 11.0703 18.2188 11.0703 Q19.875 11.0703 21.0781 11.8516 Q22.2813 12.6328 22.9219 14.0391 Q23.5625 15.4453 23.5625 17.3047 L23.5625 18.0703 L13.75 18.0703 L13.75 16.3984 L22.5625 16.3984 L21.5313 17.9453 L21.5313 17.1484 Q21.5313 15.7266 21.0938 14.8047 Q20.6719 13.8672 19.9219 13.4141 Q19.1719 12.9609 18.2031 12.9609 Q17.2344 12.9609 16.4531 13.4453 Q15.6875 13.9141 15.2344 14.8672 Q14.7969 15.8203 14.7969 17.2109 L14.7969 18.0078 Q14.7969 19.3203 15.2344 20.2578 Q15.6719 21.1953 16.4688 21.6953 Q17.2813 22.1797 18.3906 22.1797 Q19.1563 22.1797 19.7656 21.9297 Q20.375 21.6641 20.7813 21.2422 Q21.2031 20.8047 21.375 20.2422 L21.4063 20.2422 L23.4219 20.2422 L23.3906 20.3672 Q23.2344 21.1328 22.8125 21.8047 Q22.3906 22.4766 21.7188 22.9922 Q21.0469 23.5078 20.1875 23.7891 Q19.3438 24.0703 18.3438 24.0703 Z" /><path fill="rgb(255,255,255)" d="M31.3906 24.0703 Q30.5156 24.0703 29.7813 23.7734 Q29.0469 23.4766 28.4688 22.9609 Q27.9063 22.4297 27.5156 21.6797 L27.4688 21.6797 L27.4688 24.0703 L25.4375 24.0703 L25.4375 6.0703 L27.4688 6.0703 L27.4688 13.4453 L27.5156 13.4453 Q27.9063 12.7109 28.4844 12.1797 Q29.0625 11.6484 29.8125 11.3672 Q30.5625 11.0703 31.4219 11.0703 Q32.9531 11.0703 34.1094 11.8672 Q35.2656 12.6641 35.9063 14.1172 Q36.5625 15.5703 36.5625 17.5547 L36.5625 17.5703 Q36.5625 19.5547 35.9219 21.0078 Q35.2813 22.4609 34.1094 23.2734 Q32.9375 24.0703 31.3906 24.0703 ZM30.9844 22.1797 Q32.0625 22.1797 32.8438 21.6328 Q33.6406 21.0703 34.0625 20.0391 Q34.4844 18.9922 34.4844 17.5703 L34.4844 17.5547 Q34.4844 16.1328 34.0625 15.1172 Q33.6406 14.0859 32.8438 13.5234 Q32.0625 12.9609 30.9844 12.9609 Q29.9531 12.9609 29.1563 13.5391 Q28.375 14.1016 27.9063 15.1328 Q27.4531 16.1641 27.4531 17.5547 L27.4531 17.5703 Q27.4531 18.9609 27.9063 19.9922 Q28.3594 21.0234 29.1563 21.6016 Q29.9531 22.1797 30.9844 22.1797 Z" /><path fill="rgb(255,255,255)" d="M43.375 24.0703 L43.375 22.5391 L49.3281 16.0391 Q50.4688 14.7891 51.0781 13.9766 Q51.6875 13.1484 51.9063 12.5078 Q52.1406 11.8516 52.1406 11.1172 L52.1406 11.0859 Q52.1406 10.1797 51.7344 9.4922 Q51.3281 8.7891 50.6094 8.3984 Q49.9063 7.9922 48.9844 7.9922 Q47.9375 7.9922 47.0938 8.4609 Q46.2656 8.9297 45.7813 9.7109 Q45.3125 10.4766 45.3125 11.4453 L45.3125 11.4453 L43.2656 11.4453 L43.2656 11.3672 Q43.2656 9.8516 44.0313 8.6484 Q44.7969 7.4297 46.0781 6.7578 Q47.375 6.0703 48.9531 6.0703 Q50.4844 6.0703 51.6719 6.7266 Q52.875 7.3672 53.5625 8.4922 Q54.25 9.6016 54.25 10.9766 L54.25 11.0078 Q54.25 11.9766 53.9063 12.8828 Q53.5625 13.7891 52.7031 14.9297 Q51.8438 16.0547 50.2813 17.7266 L45.6406 22.7109 L46.2656 21.3516 L46.2656 22.7109 L45.6406 22.1016 L54.5313 22.1016 L54.5313 24.0703 Z" /><path fill="rgb(255,255,255)" d="M63.0625 24.0703 Q61.3281 24.0703 60.0156 23.4609 Q58.7188 22.8359 57.9531 21.7734 Q57.2031 20.6953 57.0938 19.3203 L57.0781 19.3203 L59.1094 19.3203 L59.125 19.4297 Q59.2188 20.2422 59.7188 20.8672 Q60.2344 21.4766 61.0781 21.8203 Q61.9375 22.1484 63.0625 22.1484 Q64.1875 22.1484 65.0156 21.7734 Q65.8594 21.3984 66.3281 20.7266 Q66.7969 20.0391 66.7969 19.1484 L66.7969 19.1328 Q66.7969 17.5859 65.75 16.7578 Q64.7188 15.9297 62.9375 15.9297 L60.8125 15.9297 L60.8125 14.0703 L62.8438 14.0703 Q63.8594 14.0703 64.625 13.6641 Q65.4063 13.2578 65.8281 12.5547 Q66.2656 11.8516 66.2656 10.9453 L66.2656 10.9297 Q66.2656 9.9922 65.8906 9.3359 Q65.5156 8.6797 64.7969 8.3359 Q64.0781 7.9766 63.0469 7.9766 Q62.0469 7.9766 61.2656 8.3359 Q60.4844 8.6953 60.0156 9.3672 Q59.5469 10.0391 59.4531 10.9609 L59.4531 10.9609 L57.4219 10.9609 L57.4375 10.8359 Q57.5781 9.4141 58.2969 8.3359 Q59.0313 7.2578 60.25 6.6641 Q61.4688 6.0703 63.0469 6.0703 Q64.6563 6.0703 65.8594 6.6641 Q67.0625 7.2422 67.7188 8.2734 Q68.3906 9.3047 68.3906 10.6797 L68.3906 10.6953 Q68.3906 11.8047 67.9219 12.6641 Q67.4688 13.5078 66.6563 14.0859 Q65.8594 14.6484 64.7969 14.8828 L64.7969 14.9453 Q66.6563 15.0859 67.7969 16.1953 Q68.9375 17.3047 68.9375 19.1016 L68.9375 19.1328 Q68.9375 20.5391 68.1719 21.6641 Q67.4219 22.7734 66.0938 23.4297 Q64.7656 24.0703 63.0625 24.0703 Z" /><path fill="rgb(255,255,255)" d="M70.5 27.0703 L71.5313 21.0703 L73.6719 21.0703 L71.9531 27.0703 Z" /><path fill="rgb(255,255,255)" d="M81.375 24.0703 L81.375 22.5391 L87.3281 16.0391 Q88.4688 14.7891 89.0781 13.9766 Q89.6875 13.1484 89.9063 12.5078 Q90.1406 11.8516 90.1406 11.1172 L90.1406 11.0859 Q90.1406 10.1797 89.7344 9.4922 Q89.3281 8.7891 88.6094 8.3984 Q87.9063 7.9922 86.9844 7.9922 Q85.9375 7.9922 85.0938 8.4609 Q84.2656 8.9297 83.7813 9.7109 Q83.3125 10.4766 83.3125 11.4453 L83.3125 11.4453 L81.2656 11.4453 L81.2656 11.3672 Q81.2656 9.8516 82.0313 8.6484 Q82.7969 7.4297 84.0781 6.7578 Q85.375 6.0703 86.9531 6.0703 Q88.4844 6.0703 89.6719 6.7266 Q90.875 7.3672 91.5625 8.4922 Q92.25 9.6016 92.25 10.9766 L92.25 11.0078 Q92.25 11.9766 91.9063 12.8828 Q91.5625 13.7891 90.7031 14.9297 Q89.8438 16.0547 88.2813 17.7266 L83.6406 22.7109 L84.2656 21.3516 L84.2656 22.7109 L83.6406 22.1016 L92.5313 22.1016 L92.5313 24.0703 Z" /><path fill="rgb(255,255,255)" d="M100.2656 24.0703 Q98.3281 24.0703 96.9375 22.9766 Q95.5469 21.8672 94.7969 19.8516 Q94.0625 17.8359 94.0625 15.0703 L94.0625 15.0547 Q94.0625 12.2891 94.7969 10.2734 Q95.5469 8.2578 96.9375 7.1641 Q98.3281 6.0703 100.2656 6.0703 Q102.2188 6.0703 103.6094 7.1641 Q105 8.2578 105.7344 10.2734 Q106.4844 12.2891 106.4844 15.0547 L106.4844 15.0703 Q106.4844 17.8359 105.7344 19.8516 Q105 21.8672 103.6094 22.9766 Q102.2188 24.0703 100.2656 24.0703 ZM100.2656 22.1484 Q101.5625 22.1484 102.4688 21.2891 Q103.3906 20.4141 103.875 18.8359 Q104.375 17.2422 104.375 15.0703 L104.375 15.0547 Q104.375 12.8672 103.875 11.2891 Q103.3906 9.7109 102.4688 8.8672 Q101.5625 8.0078 100.2656 8.0078 Q98.9844 8.0078 98.0625 8.8672 Q97.1563 9.7109 96.6719 11.2891 Q96.1875 12.8672 96.1875 15.0547 L96.1875 15.0703 Q96.1875 17.2422 96.6719 18.8359 Q97.1563 20.4141 98.0625 21.2891 Q98.9844 22.1484 100.2656 22.1484 Z" /><path fill="rgb(255,255,255)" d="M109.375 24.0703 L109.375 22.5391 L115.3281 16.0391 Q116.4688 14.7891 117.0781 13.9766 Q117.6875 13.1484 117.9063 12.5078 Q118.1406 11.8516 118.1406 11.1172 L118.1406 11.0859 Q118.1406 10.1797 117.7344 9.4922 Q117.3281 8.7891 116.6094 8.3984 Q115.9063 7.9922 114.9844 7.9922 Q113.9375 7.9922 113.0938 8.4609 Q112.2656 8.9297 111.7813 9.7109 Q111.3125 10.4766 111.3125 11.4453 L111.3125 11.4453 L109.2656 11.4453 L109.2656 11.3672 Q109.2656 9.8516 110.0313 8.6484 Q110.7969 7.4297 112.0781 6.7578 Q113.375 6.0703 114.9531 6.0703 Q116.4844 6.0703 117.6719 6.7266 Q118.875 7.3672 119.5625 8.4922 Q120.25 9.6016 120.25 10.9766 L120.25 11.0078 Q120.25 11.9766 119.9063 12.8828 Q119.5625 13.7891 118.7031 14.9297 Q117.8438 16.0547 116.2813 17.7266 L111.6406 22.7109 L112.2656 21.3516 L112.2656 22.7109 L111.6406 22.1016 L120.5313 22.1016 L120.5313 24.0703 Z" /><path fill="rgb(255,255,255)" d="M128.4844 24.0703 Q127.3125 24.0703 126.1719 23.6172 Q125.0469 23.1641 124.1094 22.1484 Q123.1875 21.1328 122.625 19.4766 Q122.0625 17.8047 122.0625 15.3828 L122.0625 15.3672 Q122.0625 12.4297 122.8438 10.3516 Q123.625 8.2578 125.0938 7.1641 Q126.5625 6.0703 128.625 6.0703 Q130.0781 6.0703 131.2188 6.5859 Q132.375 7.0859 133.1406 8.0234 Q133.9219 8.9453 134.2031 10.1797 L134.25 10.3359 L132.0938 10.3359 L132.0469 10.2109 Q131.8125 9.5234 131.3281 9.0391 Q130.8438 8.5391 130.1563 8.2734 Q129.4688 8.0078 128.6094 8.0078 Q127.0313 8.0078 126.0625 8.9453 Q125.0938 9.8828 124.625 11.4141 Q124.1719 12.9453 124.125 14.7578 Q124.1094 14.8828 124.1094 15.0078 Q124.1094 15.1172 124.1094 15.2422 L124.6094 18.0703 Q124.6094 19.1797 125.1094 20.1016 Q125.625 21.0234 126.5 21.5703 Q127.3906 22.1016 128.4688 22.1016 Q129.5469 22.1016 130.4219 21.5703 Q131.2969 21.0391 131.8125 20.1328 Q132.3281 19.2109 132.3281 18.0703 L132.3281 18.0547 Q132.3281 16.8984 131.8281 15.9922 Q131.3438 15.0859 130.4688 14.5859 Q129.6094 14.0703 128.5 14.0703 Q127.4063 14.0703 126.5156 14.6016 Q125.625 15.1172 125.1094 16.0234 Q124.6094 16.9141 124.6094 18.0703 L124.6094 18.0703 L123.9063 18.0703 L123.9063 15.0547 L124.1563 15.0547 Q124.5 14.2578 125.1719 13.6016 Q125.8438 12.9297 126.7813 12.5391 Q127.7188 12.1328 128.8594 12.1328 Q130.4844 12.1328 131.75 12.8984 Q133.0156 13.6641 133.75 14.9922 Q134.4844 16.3203 134.4844 18.0078 L134.4844 18.0234 Q134.4844 19.7891 133.7031 21.1484 Q132.9219 22.5078 131.5625 23.2891 Q130.2188 24.0703 128.4844 24.0703 Z" /><path fill="rgb(255,255,255)" d="M143.5781 18.0703 Q143.0156 18.0703 142.625 17.6797 Q142.25 17.2734 142.25 16.6797 Q142.25 16.0859 142.625 15.6797 Q143.0156 15.2734 143.5781 15.2734 Q144.1406 15.2734 144.5313 15.6797 Q144.9219 16.0859 144.9219 16.6797 Q144.9219 17.2734 144.5313 17.6797 Q144.1406 18.0703 143.5781 18.0703 Z" /><path fill="rgb(255,255,255)" d="M156.6875 24.0703 L156.6875 8.4453 L156.6406 8.4453 L152.1563 11.7734 L152.1563 9.5078 L156.6563 6.0703 L158.7188 6.0703 L158.7188 24.0703 Z" /><path fill="rgb(255,255,255)" d="M163.375 24.0703 L163.375 22.5391 L169.3281 16.0391 Q170.4688 14.7891 171.0781 13.9766 Q171.6875 13.1484 171.9063 12.5078 Q172.1406 11.8516 172.1406 11.1172 L172.1406 11.0859 Q172.1406 10.1797 171.7344 9.4922 Q171.3281 8.7891 170.6094 8.3984 Q169.9063 7.9922 168.9844 7.9922 Q167.9375 7.9922 167.0938 8.4609 Q166.2656 8.9297 165.7813 9.7109 Q165.3125 10.4766 165.3125 11.4453 L165.3125 11.4453 L163.2656 11.4453 L163.2656 11.3672 Q163.2656 9.8516 164.0313 8.6484 Q164.7969 7.4297 166.0781 6.7578 Q167.375 6.0703 168.9531 6.0703 Q170.4844 6.0703 171.6719 6.7266 Q172.875 7.3672 173.5625 8.4922 Q174.25 9.6016 174.25 10.9766 L174.25 11.0078 Q174.25 11.9766 173.9063 12.8828 Q173.5625 13.7891 172.7031 14.9297 Q171.8438 16.0547 170.2813 17.7266 L165.6406 22.7109 L166.2656 21.3516 L166.2656 22.7109 L165.6406 22.1016 L174.5313 22.1016 L174.5313 24.0703 Z" /><path fill="rgb(255,255,255)" d="M181.3281 24.0703 L181.3281 11.0703 L183.3594 11.0703 L183.3594 13.1797 L183.4063 13.1797 Q183.8281 12.2422 184.7031 11.6641 Q185.5781 11.0703 186.75 11.0703 Q187.5781 11.0703 188.25 11.3672 Q188.9375 11.6484 189.4219 12.1953 Q189.9219 12.7422 190.1719 13.5234 L190.2188 13.5234 Q190.5625 12.7578 191.125 12.2109 Q191.7031 11.6641 192.4375 11.3672 Q193.1875 11.0703 194.0469 11.0703 Q195.25 11.0703 196.1406 11.6016 Q197.0313 12.1172 197.5156 13.0547 Q198.0156 13.9922 198.0156 15.2578 L198.0156 24.0703 L195.9688 24.0703 L195.9688 15.7578 Q195.9688 14.8672 195.6719 14.2422 Q195.375 13.6172 194.8125 13.2891 Q194.25 12.9609 193.4375 12.9609 Q192.6406 12.9609 192.0156 13.3516 Q191.3906 13.7266 191.0313 14.4141 Q190.6875 15.0859 190.6875 15.9609 L190.6875 24.0703 L188.6563 24.0703 L188.6563 15.5234 Q188.6563 14.7422 188.3438 14.1797 Q188.0313 13.6016 187.4688 13.2891 Q186.9219 12.9609 186.1563 12.9609 Q185.3438 12.9609 184.7188 13.3672 Q184.0938 13.7734 183.7188 14.4766 Q183.3594 15.1797 183.3594 16.0703 L183.3594 24.0703 Z" /><path fill="rgb(255,255,255)" d="M201.4531 24.0703 L201.4531 11.0703 L203.5 11.0703 L203.5 24.0703 ZM202.4688 8.7578 Q201.9531 8.7578 201.5781 8.3672 Q201.2031 7.9609 201.2031 7.4141 Q201.2031 6.8516 201.5781 6.4609 Q201.9531 6.0703 202.4688 6.0703 Q203.0156 6.0703 203.375 6.4609 Q203.75 6.8516 203.75 7.4141 Q203.75 7.9609 203.375 8.3672 Q203.0156 8.7578 202.4688 8.7578 Z" /><path fill="rgb(255,255,255)" d="M206.3281 24.0703 L206.3281 11.0703 L208.3594 11.0703 L208.3594 13.1328 L208.4063 13.1328 Q208.9063 12.2422 209.8438 11.6641 Q210.7813 11.0703 212.1563 11.0703 Q214.1719 11.0703 215.2656 12.3359 Q216.375 13.6016 216.375 15.7891 L216.375 24.0703 L214.3438 24.0703 L214.3438 16.1797 Q214.3438 14.6172 213.6406 13.7891 Q212.9531 12.9609 211.5469 12.9609 Q210.5781 12.9609 209.8594 13.4141 Q209.1563 13.8516 208.75 14.6641 Q208.3594 15.4766 208.3594 16.5703 L208.3594 24.0703 Z" /><path fill="rgb(255,255,255)" d="M223.3281 24.0703 L223.3281 11.0703 L225.3594 11.0703 L225.3594 13.4766 L225.4063 13.4766 Q225.7188 12.3672 226.4688 11.7266 Q227.2188 11.0703 228.25 11.0703 Q228.5156 11.0703 228.7344 11.1016 Q228.9531 11.1328 229.0625 11.1484 L229.0625 13.2266 Q228.9531 13.1797 228.6563 13.1484 Q228.3594 13.1016 227.9844 13.1016 Q227.1875 13.1016 226.5938 13.4766 Q226.0156 13.8359 225.6875 14.5391 Q225.3594 15.2266 225.3594 16.1953 L225.3594 24.0703 Z" /><path fill="rgb(255,255,255)" d="M235.3438 24.0703 Q233.5938 24.0703 232.3281 23.2734 Q231.0781 22.4766 230.4063 21.0391 Q229.7344 19.5859 229.7344 17.6172 L229.7344 17.6016 Q229.7344 15.6641 230.4063 14.1953 Q231.0938 12.7266 232.3125 11.8984 Q233.5469 11.0703 235.2188 11.0703 Q236.875 11.0703 238.0781 11.8516 Q239.2813 12.6328 239.9219 14.0391 Q240.5625 15.4453 240.5625 17.3047 L240.5625 18.0703 L230.75 18.0703 L230.75 16.3984 L239.5625 16.3984 L238.5313 17.9453 L238.5313 17.1484 Q238.5313 15.7266 238.0938 14.8047 Q237.6719 13.8672 236.9219 13.4141 Q236.1719 12.9609 235.2031 12.9609 Q234.2344 12.9609 233.4531 13.4453 Q232.6875 13.9141 232.2344 14.8672 Q231.7969 15.8203 231.7969 17.2109 L231.7969 18.0078 Q231.7969 19.3203 232.2344 20.2578 Q232.6719 21.1953 233.4688 21.6953 Q234.2813 22.1797 235.3906 22.1797 Q236.1563 22.1797 236.7656 21.9297 Q237.375 21.6641 237.7813 21.2422 Q238.2031 20.8047 238.375 20.2422 L238.4063 20.2422 L240.4219 20.2422 L240.3906 20.3672 Q240.2344 21.1328 239.8125 21.8047 Q239.3906 22.4766 238.7188 22.9922 Q238.0469 23.5078 237.1875 23.7891 Q236.3438 24.0703 235.3438 24.0703 Z" /><path fill="rgb(255,255,255)" d="M245.8906 24.0703 Q244.6875 24.0703 243.7656 23.5859 Q242.8594 23.0859 242.3438 22.2109 Q241.8281 21.3203 241.8281 20.1328 L241.8281 20.1172 Q241.8281 19.0078 242.3438 18.1953 Q242.875 17.3828 243.8594 16.9141 Q244.8594 16.4297 246.25 16.4297 L250.7656 16.4297 L250.7656 18.0703 L246.4844 18.0703 Q245.2656 18.0703 244.5938 18.6328 Q243.9219 19.1797 243.9219 20.1172 L243.9219 20.1328 Q243.9219 21.1016 244.5781 21.6641 Q245.25 22.2109 246.3438 22.2109 Q247.3125 22.2109 248.0781 21.8047 Q248.8438 21.3828 249.2969 20.6797 Q249.75 19.9609 249.75 19.0547 L249.75 15.3984 Q249.75 14.2578 249.0469 13.6172 Q248.3438 12.9609 247.0781 12.9609 Q245.9063 12.9609 245.1719 13.4766 Q244.4531 13.9922 244.2813 14.8203 L244.2656 14.8203 L242.2969 14.8203 L242.2969 14.6953 Q242.3906 13.6797 242.9844 12.8672 Q243.5781 12.0391 244.625 11.5547 Q245.6719 11.0703 247.0938 11.0703 Q248.5313 11.0703 249.5781 11.5859 Q250.6406 12.1016 251.2031 13.0391 Q251.7813 13.9766 251.7813 15.2578 L251.7813 24.0703 L249.75 24.0703 L249.75 21.7422 L249.7031 21.7422 Q249.3438 22.4453 248.75 22.9766 Q248.1719 23.4922 247.4375 23.7891 Q246.7031 24.0703 245.8906 24.0703 Z" /><path fill="rgb(255,255,255)" d="M258.9063 24.0703 Q257.3438 24.0703 256.1719 23.2734 Q255.0156 22.4609 254.375 21.0078 Q253.7344 19.5547 253.7344 17.5703 L253.7344 17.5547 Q253.7344 15.5703 254.375 14.1172 Q255.0313 12.6641 256.1875 11.8672 Q257.3438 11.0703 258.875 11.0703 Q259.7344 11.0703 260.4844 11.3672 Q261.2344 11.6484 261.8125 12.1797 Q262.4063 12.7109 262.7813 13.4453 L262.8281 13.4453 L262.8281 6.0703 L264.8594 6.0703 L264.8594 24.0703 L262.8281 24.0703 L262.8281 21.6797 L262.7813 21.6797 Q262.4063 22.4297 261.8281 22.9609 Q261.25 23.4766 260.5156 23.7734 Q259.7813 24.0703 258.9063 24.0703 ZM259.3125 22.1797 Q260.3438 22.1797 261.1406 21.6016 Q261.9375 21.0234 262.375 19.9922 Q262.8281 18.9609 262.8281 17.5703 L262.8281 17.5547 Q262.8281 16.1641 262.375 15.1328 Q261.9219 14.1016 261.125 13.5391 Q260.3438 12.9609 259.3125 12.9609 Q258.2344 12.9609 257.4375 13.5234 Q256.6563 14.0859 256.2344 15.1172 Q255.8125 16.1328 255.8125 17.5547 L255.8125 17.5703 Q255.8125 18.9922 256.2344 20.0391 Q256.6563 21.0703 257.4375 21.6328 Q258.2344 22.1797 259.3125 22.1797 Z" /></g></g></g></g><defs><linearGradient id="decal-70d00e10ccecb64e" y1="100%" x2="0"><stop stop-color="rgb(108,92,231)" offset="0" /><stop stop-color="rgb(162,155,254)" offset="1" /></linearGradient><filter id="decal-81c4773b4367c9b"><feTurbulence type="fractalNoise" baseFrequency="0.01" numOctaves="5" result="decal-1a26a0a28d5e143c" /><feColorMatrix type="matrix" values="1 0 0 0 0 1 0 0 0 0 1 0 0 0 0 0 0 0 0 1" result="decal-af9742a409479ecd" /><feFlood flood-color="rgb(0,0,0)" flood-opacity="0.8" result="decal-8ffb1e3f3229d2d" /><feComponentTransfer in="decal-af9742a409479ecd" result="decal-ba899933d7c1aa60"><feFuncR type="table" tableValues="0 0.02 0.03 0.03 0.09 0.12 0.27 0.91 0.3 0.03 0 0" /><feFuncG type="table" tableValues="0.01 0.09 0.16 0.18 0.38 0.48 0.54 0.73 0.33 0.09 0.01 0.01" /><feFuncB type="table" tableValues="0.03 0.17 0.3 0.25 0.37 0.42 0.42 0.6 0.17 0.01 0 0" /></feComponentTransfer><feComposite in="decal-8ffb1e3f3229d2d" in2="decal-ba899933d7c1aa60" result="decal-b9d21bac61aca0f7" /></filter><clipPath id="decal-99c748de6a015ef7"><path d="M8 0 H56 A8 8 0 0 1 64 8 V56 A8 8 0 0 1 56 64 H8 A8 8 0 0 1 0 56 V8 A8 8 0 0 1 8 0 Z" /></clipPath></defs></svg>